<?xml version="1.0" encoding="UTF-8"?>
<svg id="_レイヤー_1" xmlns="http://www.w3.org/2000/svg" viewBox="0 0 132 28">
  <path d="M54.001,14.007c.959-.263,1.835-.581,2.67-.973,2.174-1.022,3.899-2.432,5.296-4.123,1.524-1.844,2.56-3.87,3.285-6.007.324-.954.573-1.92.765-2.904.02.097.043.194.059.292.424,2.631,1.345,5.133,2.909,7.465,1.233,1.838,2.832,3.42,4.943,4.633,1.196.687,2.493,1.205,3.886,1.564.053.014.106.029.186.051-.038.018-.053.029-.07.034-3.503,1-6.196,2.835-8.217,5.357-1.458,1.818-2.43,3.808-3.079,5.91-.264.855-.459,1.72-.59,2.595-.005.032-.012.064-.051.099-.019-.105-.036-.211-.056-.316-.02-.107-.04-.214-.062-.321-.651-3.077-1.939-5.946-4.184-8.494-1.948-2.211-4.452-3.845-7.576-4.822-.025-.008-.049-.017-.115-.04h.001Z" style="fill: #737169;"/>
  <path d="M0,14.007c.959-.263,1.835-.581,2.67-.973,2.174-1.022,3.899-2.432,5.296-4.123,1.524-1.844,2.56-3.87,3.285-6.007.324-.954.573-1.92.765-2.904.02.097.043.194.059.292.424,2.631,1.345,5.133,2.909,7.465,1.233,1.838,2.832,3.42,4.943,4.633,1.196.687,2.493,1.205,3.886,1.564.053.014.106.029.186.051-.038.018-.053.029-.07.034-3.503,1-6.196,2.835-8.217,5.357-1.458,1.818-2.43,3.808-3.079,5.91-.264.855-.459,1.72-.59,2.595-.005.032-.012.064-.051.099-.019-.105-.036-.211-.056-.316-.02-.107-.04-.214-.062-.321-.651-3.077-1.939-5.946-4.184-8.494-1.948-2.211-4.452-3.845-7.576-4.822-.025-.008-.049-.017-.115-.04h0Z" style="fill: #737169;"/>
  <path d="M108.001,14.007c.959-.263,1.835-.581,2.67-.973,2.174-1.022,3.899-2.432,5.296-4.123,1.524-1.844,2.56-3.87,3.285-6.007.324-.954.573-1.92.765-2.904.02.097.043.194.059.292.424,2.631,1.345,5.133,2.909,7.465,1.233,1.838,2.832,3.42,4.943,4.633,1.196.687,2.493,1.205,3.886,1.564.053.014.106.029.186.051-.038.018-.053.029-.07.034-3.503,1-6.196,2.835-8.217,5.357-1.458,1.818-2.43,3.808-3.079,5.91-.264.855-.459,1.72-.59,2.595-.005.032-.012.064-.051.099-.019-.105-.036-.211-.056-.316-.02-.107-.04-.214-.062-.321-.651-3.077-1.939-5.946-4.184-8.494-1.948-2.211-4.452-3.845-7.576-4.822-.025-.008-.049-.017-.115-.04h.001Z" style="fill: #737169;"/>
</svg>