<?xml version="1.0" encoding="UTF-8"?>
<svg id="_レイヤー_1" data-name="レイヤー_1" xmlns="http://www.w3.org/2000/svg" viewBox="0 0 73.5 79">
  <rect x=".25" width="73" height="79" style="fill: none;"/>
  <path d="M73.5,72.159h-33.052v-1.157c2.985-.268,5.064-.771,6.238-1.509,2.079-1.308,3.119-3.119,3.119-5.433,0-1.375-.47-3.22-1.409-5.534l-.855-2.113-4.83-11.873h-22.136l-2.616,6.943-1.258,3.119c-1.509,3.69-2.264,6.59-2.264,8.703,0,1.241.277,2.398.83,3.471.553,1.074,1.299,1.946,2.239,2.616,1.308.906,2.985,1.443,5.031,1.61v1.157H0v-1.157c1.777-.101,3.337-.536,4.679-1.308,1.341-.771,2.649-2.012,3.924-3.723,1.073-1.375,2.121-3.144,3.144-5.307,1.023-2.163,2.372-5.408,4.05-9.735L34.209,3.488h2.868l21.884,52.874c1.643,3.992,2.951,6.842,3.924,8.552.972,1.71,2.029,3.002,3.169,3.874.805.604,1.727,1.065,2.767,1.383,1.039.319,2.599.596,4.679.83v1.157ZM41.907,42.477l-10.565-26.06-9.961,26.06h20.526Z" style="fill: #8e474f;"/>
</svg>