<?xml version="1.0" encoding="UTF-8"?>
<svg id="_レイヤー_1" data-name="レイヤー_1" xmlns="http://www.w3.org/2000/svg" xmlns:xlink="http://www.w3.org/1999/xlink" viewBox="0 0 200 200">
  <defs>
    <linearGradient id="_名称未設定グラデーション_87" data-name="名称未設定グラデーション 87" x1="0" y1="100" x2="200" y2="100" gradientUnits="userSpaceOnUse">
      <stop offset="0" stop-color="#baaf8d"/>
      <stop offset=".5" stop-color="#9f9678"/>
      <stop offset="1" stop-color="#4f4b3c"/>
    </linearGradient>
  </defs>
  <path d="M12.036,147.112c.408-.265.801-.515,1.179-.749.38-.234.756-.473,1.129-.716.408-.265.824-.554,1.248-.866.425-.313.867-.618,1.326-.916l.199.305c-1.488,1.113-2.387,2.445-2.697,3.999-.31,1.554.088,3.178,1.193,4.873.442.678,1.079,1.248,1.911,1.709.832.461,1.797.739,2.896.832,1.1.094,2.299-.028,3.599-.367,1.3-.338,2.645-.96,4.035-1.863.831-.54,1.654-1.22,2.471-2.041.817-.821,1.48-1.728,1.989-2.724.509-.995.785-2.044.827-3.145.043-1.101-.296-2.203-1.015-3.305-.541-.83-1.17-1.508-1.886-2.032s-1.489-.873-2.316-1.048c-.826-.174-1.682-.179-2.566-.015-.884.164-1.77.511-2.658,1.04l-.199-.305c.493-.32,1.023-.647,1.591-.98.569-.334,1.014-.605,1.336-.815.17-.111.331-.215.484-.315.153-.1.321-.214.502-.344.181-.13.397-.282.645-.456.249-.174.556-.391.918-.651l.165.254-.646,1.289c.219.075.515.197.889.363.376.167.797.405,1.265.716.469.311.96.71,1.471,1.198.511.488,1.005,1.097,1.48,1.826.83,1.271,1.405,2.57,1.724,3.894.321,1.325.368,2.622.143,3.89-.225,1.269-.744,2.482-1.561,3.64-.815,1.159-1.954,2.212-3.414,3.162-1.205.784-2.485,1.296-3.839,1.537-1.353.241-2.69.222-4.007-.056-1.317-.278-2.56-.803-3.729-1.576-1.168-.773-2.168-1.795-2.997-3.067-.619-.949-1.062-1.935-1.329-2.956-.267-1.021-.392-2.056-.375-3.105l-1.215.138-.166-.254ZM4.48,129.193c-.19-.576-.337-1.039-.442-1.388-.105-.349-.189-.651-.252-.908-.063-.256-.126-.491-.186-.706-.059-.215-.144-.485-.252-.812-.102-.307-.193-.57-.276-.788-.083-.218-.175-.448-.277-.692-.102-.243-.215-.536-.339-.879-.124-.343-.281-.802-.472-1.378l.289-.095c.102.307.224.592.363.855.14.263.313.478.517.645s.447.273.729.319c.282.046.625.002,1.029-.131l14.975-4.939c.405-.133.706-.302.905-.506.2-.204.331-.434.396-.69.065-.256.076-.531.032-.825-.045-.294-.117-.595-.219-.903l.289-.095c.19.576.338,1.039.442,1.388.105.349.189.652.252.908.064.256.128.496.19.72.064.224.146.49.248.797.108.327.202.594.281.802.08.208.171.434.272.677.102.243.215.536.338.879.125.343.282.802.472,1.378l-.288.095c-.102-.307-.223-.592-.363-.855-.139-.263-.313-.477-.517-.644-.204-.167-.447-.273-.729-.319-.282-.045-.625-.002-1.029.132l-7.473,2.465,2.973,8.99,7.474-2.465c.404-.133.705-.302.904-.506.2-.204.331-.434.396-.69.065-.256.076-.531.032-.825-.044-.294-.117-.595-.219-.903l.289-.095c.19.576.338,1.039.442,1.388.106.349.19.652.252.908.064.256.128.496.191.72s.145.49.247.797c.108.327.202.594.281.802.08.208.171.434.272.677.102.243.215.536.339.879.124.343.281.802.472,1.378l-.289.095c-.102-.307-.223-.592-.363-.855-.139-.263-.313-.477-.517-.645-.204-.167-.447-.273-.729-.319-.282-.045-.624-.002-1.029.131l-14.975,4.939c-.405.133-.705.302-.905.506-.199.204-.331.434-.396.69-.064.256-.075.531-.032.825.045.294.118.595.219.903l-.289.095c-.19-.576-.337-1.039-.442-1.388s-.189-.651-.252-.908c-.063-.256-.125-.491-.186-.706-.059-.214-.144-.485-.252-.811-.101-.307-.193-.57-.276-.788-.083-.217-.175-.448-.277-.692-.102-.243-.215-.536-.338-.879-.125-.343-.282-.802-.472-1.378l.288-.095c.102.307.224.593.363.855.14.263.313.477.517.644.205.167.448.273.729.319.282.046.625.002,1.029-.132l6.983-2.303-2.973-8.99-6.984,2.303c-.404.133-.704.302-.904.506-.199.204-.331.434-.396.69-.064.256-.075.531-.032.825.045.295.117.596.219.903l-.289.095ZM10.024,107.443c-.073-.908-.354-1.559-.843-1.957-.49-.397-1.147-.563-1.976-.497l-.024-.303c.465-.037.849-.062,1.152-.077.304-.014.557-.024.76-.03.203-.006.375-.01.518-.011.142,0,.3-.009.471-.022.171-.014.321-.031.452-.051.131-.02.291-.043.482-.069.192-.025.433-.055.725-.088.292-.033.671-.069,1.135-.106l.024.303c-.787.063-1.391.329-1.81.799-.419.47-.594,1.159-.52,2.066l.165,2.057,6.532-.522c.723-.058,1.295-.169,1.716-.335.42-.165.723-.423.907-.773.184-.349.284-.799.301-1.348.017-.549-.008-1.237-.074-2.064-.058-.726-.137-1.405-.238-2.036-.102-.631-.292-1.179-.571-1.644s-.687-.833-1.223-1.105c-.536-.272-1.258-.412-2.166-.421l-.027-.333,4.26-.097c.093.906.172,1.711.239,2.416.066.705.134,1.471.2,2.298.137,1.714.223,3.098.256,4.15.034,1.053.076,1.902.128,2.547.026.323.053.6.082.831.029.231.058.478.09.739.032.262.066.573.105.935.04.362.083.846.132,1.451l-.303.024c-.026-.322-.075-.628-.149-.916-.074-.288-.191-.538-.35-.749-.158-.21-.37-.371-.633-.482-.262-.111-.606-.149-1.03-.116l-15.721,1.257c-.424.034-.757.127-.999.278-.242.151-.424.344-.548.576-.124.234-.199.498-.227.794-.027.297-.028.606-.002.929l-.303.024c-.048-.605-.081-1.084-.1-1.438-.018-.353-.032-.657-.043-.91-.01-.253-.019-.49-.027-.713-.007-.223-.025-.495-.05-.818-.054-.685-.151-1.515-.291-2.488-.138-.973-.257-2.065-.354-3.275-.062-.786-.109-1.498-.14-2.135-.031-.637-.068-1.359-.113-2.168l3.923-.496.025.303c-.756.121-1.353.332-1.793.63-.439.299-.761.68-.966,1.143-.204.463-.322.99-.356,1.581-.034.592-.022,1.24.035,1.945.015.182.037.393.066.634.03.241.059.482.088.724.031.241.064.472.102.692.038.221.072.401.104.54.097.459.388.669.87.63l8.091-.647-.164-2.057ZM10.76,88.835c.106-.904-.042-1.598-.443-2.084-.403-.485-1.015-.776-1.841-.873l.036-.301c.463.054.845.104,1.145.15.301.046.551.085.751.119.2.034.37.064.51.09.14.027.296.05.466.07.171.02.321.033.454.038.132.005.294.015.486.026.193.013.435.031.728.055.293.024.671.063,1.134.118l-.036.301c-.784-.092-1.428.051-1.932.43-.504.379-.809,1.02-.915,1.924l-.241,2.049,7.582.89c.421.049.766.024,1.032-.078.266-.101.482-.254.649-.459.166-.204.292-.449.376-.735.084-.285.145-.589.183-.91l.301.035c-.071.603-.133,1.084-.185,1.445s-.105.67-.155.929c-.05.259-.095.504-.133.733-.037.23-.074.506-.113.827-.04.342-.068.624-.084.846-.016.223-.029.465-.04.729-.011.264-.032.577-.064.939-.033.363-.085.846-.155,1.449l-.302-.036c.038-.321.048-.631.033-.928-.016-.297-.082-.564-.197-.802-.115-.237-.29-.436-.526-.597-.236-.16-.566-.265-.988-.314l-15.663-1.839c-.423-.049-.768-.023-1.035.077-.266.101-.484.254-.65.458-.167.205-.293.45-.378.735-.084.286-.145.589-.183.91l-.303-.035c.071-.603.134-1.084.186-1.445.052-.36.099-.67.14-.931.041-.26.079-.505.117-.735.038-.23.074-.506.113-.827.08-.683.142-1.47.186-2.362.044-.891.137-1.939.278-3.145.095-.803.192-1.54.291-2.211.1-.671.207-1.407.321-2.208l3.966.099-.036.301c-.77.012-1.401.136-1.893.373-.494.238-.887.573-1.181,1.007-.293.434-.515.953-.668,1.556-.152.604-.272,1.277-.359,2.02-.022.181-.041.383-.056.605-.016.223-.032.445-.047.667-.016.223-.031.429-.043.621-.013.192-.015.34-.007.442,0,.509.252.793.754.852l8.393.985.241-2.049ZM10.308,77.666c-.193-.533-.416-.974-.669-1.324-.253-.35-.511-.638-.776-.866-.264-.227-.522-.401-.774-.52-.251-.119-.484-.207-.699-.265-.04-.01-.094-.02-.166-.028-.07-.008-.136-.02-.195-.036l-.176-.047c.1.257.154.465.164.625.01.16-.004.308-.041.445-.109.41-.336.732-.682.965-.345.233-.743.289-1.193.169-.509-.136-.872-.405-1.09-.808-.217-.403-.271-.81-.161-1.221.067-.254.19-.494.365-.719.175-.225.399-.412.668-.56.271-.148.584-.242.941-.284.357-.041.761-.002,1.211.118.94.25,1.703.767,2.291,1.552.588.785,1.021,1.675,1.3,2.67l-.319.135ZM11.039,57.058c.341.156.68.304,1.015.446.355.15.766.297,1.233.44.468.143.897.298,1.289.464l-.142.335c-.561-.172-1.152-.246-1.775-.224-.621.022-1.222.136-1.801.341-.579.205-1.103.511-1.57.917-.468.406-.833.916-1.094,1.531-.206.485-.305.975-.297,1.473.008.498.102.961.282,1.389.181.428.448.816.804,1.165.357.349.768.622,1.232.818.688.292,1.334.357,1.941.196.605-.161,1.181-.444,1.727-.851.545-.406,1.078-.872,1.598-1.399.52-.526,1.039-1.011,1.554-1.451.543-.451,1.091-.862,1.644-1.232.554-.37,1.124-.65,1.711-.841.588-.191,1.213-.277,1.877-.26s1.387.192,2.17.524,1.434.795,1.953,1.388c.518.594.891,1.268,1.12,2.024.229.756.312,1.572.248,2.446-.063.874-.289,1.768-.677,2.68-.396.931-.903,1.7-1.523,2.305-.621.606-1.328,1.169-2.121,1.689l.818,1.105-.119.279c-.578-.245-1.032-.448-1.359-.609-.327-.161-.678-.32-1.052-.478-.391-.166-.819-.336-1.284-.511-.465-.175-.996-.389-1.593-.642l.142-.335c.725.263,1.462.405,2.212.426.751.021,1.461-.084,2.132-.317.671-.232,1.286-.592,1.846-1.08s1.005-1.123,1.337-1.905c.245-.577.384-1.161.414-1.753.032-.591-.045-1.151-.228-1.679-.182-.528-.461-.998-.837-1.41-.375-.411-.843-.736-1.402-.973-.578-.245-1.15-.323-1.717-.233-.566.09-1.114.281-1.645.572-.531.292-1.047.65-1.547,1.075-.5.426-.977.838-1.433,1.238-.533.478-1.09.934-1.671,1.369-.582.435-1.193.786-1.834,1.052-.642.267-1.316.415-2.022.445s-1.46-.124-2.261-.464c-.672-.284-1.244-.697-1.718-1.239-.475-.541-.833-1.149-1.074-1.823-.242-.674-.359-1.382-.351-2.127.008-.743.158-1.46.451-2.149.301-.708.715-1.334,1.244-1.879.528-.545,1.149-1.007,1.861-1.387l-.814-1.037.119-.279c.318.135.646.28.987.435ZM33.086,55.167c.158-.252.259-.508.302-.769.043-.26.014-.523-.087-.79-.101-.266-.311-.542-.627-.825l-11.759-10.497c-.317-.283-.613-.46-.89-.53-.277-.07-.542-.07-.796.001-.254.072-.499.2-.732.385-.233.185-.458.398-.674.639l-.227-.202c.378-.422.686-.758.923-1.008.236-.249.433-.454.59-.613.156-.159.292-.295.408-.41.116-.114.247-.254.396-.42.27-.302.482-.56.634-.777.153-.216.385-.498.695-.845l16.063,5.507-7.516-15.053c.257-.286.471-.503.642-.648s.412-.392.723-.739c.175-.196.321-.365.434-.508.114-.142.244-.303.392-.484.148-.18.333-.402.555-.665.222-.263.528-.613.92-1.051l.227.202c-.216.242-.403.488-.561.741-.158.253-.258.509-.301.769-.044.261-.014.524.087.79.101.267.31.541.627.825l11.758,10.497c.318.283.614.46.891.531.276.071.541.07.795-.002.254-.071.499-.199.732-.384.233-.185.458-.398.675-.64l.227.202c-.406.452-.733.811-.983,1.076-.251.265-.472.489-.662.671-.191.183-.368.358-.53.524-.163.167-.353.371-.569.612-.229.257-.414.471-.556.644-.14.173-.292.364-.452.573-.16.21-.358.453-.594.731-.235.279-.556.644-.961,1.096l-.228-.202c.217-.241.404-.488.562-.741.157-.252.258-.508.301-.769.044-.26.014-.523-.087-.79-.101-.266-.311-.542-.627-.825l-12.233-10.922,8.993,18.001-.041.045-18.712-6.326,11.826,10.557c.317.283.613.46.89.53.277.071.542.07.796-.001.254-.071.498-.2.731-.385.233-.185.459-.398.675-.639l.227.202c-.27.302-.493.544-.67.725-.176.182-.328.337-.458.466-.129.129-.251.251-.367.364-.116.114-.247.254-.396.42-.149.166-.273.313-.374.44-.1.128-.208.263-.321.405-.114.143-.248.308-.403.495-.154.188-.367.433-.637.734l-.227-.202c.216-.241.404-.488.561-.741ZM50.131,24.93c.761-.503,1.195-1.064,1.307-1.684.111-.62-.062-1.275-.521-1.967l.253-.168c.257.388.465.711.625.97.159.259.291.475.395.649.103.175.19.324.26.447.07.124.153.258.248.401.095.143.182.266.263.37.082.104.179.234.295.388.115.155.257.352.428.59.17.239.385.552.642.94l-.253.168c-.436-.658-.962-1.056-1.577-1.195-.615-.139-1.303.043-2.062.546l-1.722,1.14,3.621,5.454c.401.603.776,1.049,1.125,1.336s.721.427,1.116.418c.396-.009.838-.139,1.328-.39.49-.251,1.079-.606,1.772-1.065.608-.402,1.164-.8,1.669-1.194.504-.394.892-.826,1.163-1.295.272-.469.398-1.003.376-1.603-.022-.6-.248-1.298-.681-2.096l.279-.184,2.149,3.675c-.749.52-1.417.98-2.001,1.379-.586.4-1.225.829-1.916,1.287-1.435.951-2.607,1.695-3.513,2.234-.905.54-1.629.988-2.169,1.346-.27.179-.5.337-.687.474-.189.137-.39.283-.604.436-.214.154-.47.336-.768.545-.299.21-.701.482-1.208.817l-.167-.253c.269-.179.513-.37.73-.575.217-.204.379-.426.487-.668.107-.241.145-.503.116-.787-.031-.283-.163-.602-.399-.956l-8.715-13.126c-.235-.354-.478-.6-.728-.738-.249-.138-.506-.204-.771-.2-.264.005-.532.068-.805.187-.273.12-.544.269-.814.448l-.168-.253c.506-.335.91-.597,1.212-.784.301-.187.56-.346.777-.478.217-.131.42-.254.611-.369.192-.114.422-.261.692-.44.574-.38,1.253-.866,2.039-1.459.785-.593,1.685-1.224,2.698-1.895.659-.436,1.26-.821,1.802-1.157.544-.335,1.158-.718,1.845-1.148l2.336,3.187-.253.168c-.473-.601-.947-1.022-1.421-1.261-.475-.239-.964-.336-1.469-.291-.504.046-1.024.197-1.558.454-.534.258-1.097.582-1.688.973-.151.101-.326.223-.523.365-.197.143-.394.285-.591.428-.197.143-.383.284-.558.424-.175.14-.316.257-.422.352-.355.308-.399.663-.131,1.066l4.485,6.755,1.722-1.14ZM67.147,6.976c.133.35.269.693.408,1.031.145.356.334.748.566,1.178.231.43.428.842.59,1.234l-.337.138c-.278-.516-.646-.984-1.103-1.405-.458-.421-.965-.762-1.521-1.023s-1.144-.411-1.762-.451c-.618-.04-1.237.067-1.856.32-.488.2-.903.479-1.248.838-.345.36-.604.755-.778,1.185-.173.431-.256.895-.248,1.393.007.498.107.98.299,1.447.284.69.697,1.191,1.241,1.502.543.311,1.152.514,1.826.608.674.095,1.381.137,2.122.128s1.45.011,2.127.06c.703.061,1.383.154,2.037.279.654.126,1.256.327,1.808.604.552.277,1.057.655,1.516,1.133.46.479.851,1.111,1.174,1.897s.46,1.572.411,2.357c-.049.786-.259,1.528-.629,2.226-.37.698-.885,1.336-1.546,1.913s-1.451,1.053-2.369,1.43c-.937.384-1.839.573-2.706.568-.868-.005-1.766-.101-2.697-.289l-.197,1.36-.281.115c-.238-.58-.417-1.042-.537-1.387-.121-.344-.256-.704-.411-1.078-.161-.393-.346-.815-.553-1.266-.208-.451-.434-.975-.681-1.575l.337-.138c.33.696.755,1.315,1.273,1.857.518.542,1.097.966,1.738,1.272.64.306,1.331.483,2.072.528.742.046,1.507-.092,2.293-.415.581-.238,1.091-.556,1.529-.955.439-.398.779-.849,1.021-1.353.241-.504.375-1.033.398-1.59.024-.556-.08-1.115-.311-1.677-.238-.58-.591-1.037-1.056-1.371-.466-.334-.99-.583-1.573-.749-.583-.165-1.202-.273-1.857-.322-.655-.048-1.286-.091-1.891-.127-.715-.035-1.433-.102-2.152-.201s-1.401-.279-2.045-.54c-.644-.261-1.227-.629-1.751-1.103-.523-.474-.95-1.114-1.281-1.919-.277-.674-.393-1.369-.348-2.087.044-.718.218-1.401.52-2.05s.719-1.234,1.248-1.758c.529-.523,1.141-.927,1.835-1.211.711-.292,1.447-.446,2.208-.462.76-.016,1.526.091,2.299.321l.152-1.309.281-.115c.132.318.263.652.396,1.002ZM84.739,2.555c.065.369.137.731.21,1.088.078.376.192.797.34,1.262s.266.906.352,1.322l-.357.074c-.178-.558-.453-1.086-.826-1.584-.372-.498-.808-.926-1.306-1.285-.5-.359-1.049-.614-1.65-.767-.6-.153-1.228-.162-1.882-.026-.516.107-.976.305-1.382.595-.405.29-.733.631-.982,1.023s-.416.832-.501,1.323c-.084.491-.075.984.028,1.477.151.731.466,1.299.944,1.704.477.406,1.038.717,1.684.933.645.217,1.332.388,2.061.515.73.127,1.423.277,2.08.449.68.189,1.33.405,1.95.648s1.175.552,1.667.925c.492.374.919.838,1.282,1.392.364.555.632,1.248.805,2.08s.162,1.63-.031,2.393c-.193.764-.536,1.454-1.028,2.072-.493.619-1.117,1.151-1.872,1.597-.757.446-1.62.769-2.592.971-.992.205-1.914.226-2.765.061-.852-.164-1.717-.424-2.599-.779l-.443,1.301-.298.061c-.128-.614-.219-1.101-.273-1.462s-.123-.739-.205-1.135c-.086-.416-.19-.864-.311-1.346-.121-.481-.246-1.038-.379-1.673l.357-.074c.197.745.5,1.431.909,2.059.41.628.901,1.151,1.475,1.569.573.419,1.22.719,1.94.9.721.182,1.498.186,2.331.013.614-.127,1.174-.346,1.679-.658.504-.311.922-.692,1.252-1.143.33-.45.559-.947.684-1.49.126-.542.127-1.111.003-1.705-.128-.614-.39-1.128-.786-1.542-.396-.414-.866-.755-1.408-1.026-.542-.27-1.131-.488-1.766-.657-.635-.167-1.246-.325-1.836-.472-.696-.166-1.39-.363-2.078-.592-.689-.229-1.327-.531-1.911-.906-.585-.375-1.09-.843-1.517-1.405s-.729-1.269-.906-2.121c-.148-.713-.135-1.418.042-2.116.175-.697.472-1.337.888-1.92.417-.582.934-1.081,1.551-1.499.616-.417,1.292-.702,2.026-.854.754-.156,1.506-.172,2.255-.049.75.124,1.484.37,2.202.737l.39-1.259.298-.061c.07.337.138.689.205,1.058ZM90.172,20.23c1.459.024,2.484-.718,3.075-2.226L100.348,0l.578.009,6.575,18.073c.329.896.704,1.529,1.124,1.9.419.371.994.563,1.723.574l-.005.303c-.607-.01-1.089-.022-1.443-.039-.354-.016-.658-.031-.911-.045-.253-.014-.486-.028-.698-.041-.213-.014-.471-.023-.775-.028-.304-.005-.562-.004-.775.002-.214.007-.446.013-.699.019-.254.006-.574.011-.958.015-.386.004-.902,0-1.55-.01l.005-.303c.243.004.481-.007.714-.034s.452-.084.657-.171c.204-.088.368-.217.493-.387.124-.17.188-.386.193-.649.003-.223-.029-.456-.095-.7-.067-.244-.14-.467-.218-.671l-1.89-5.22-6.38-.103-2.095,5.49c-.128.362-.194.675-.198.938-.005.283.052.517.171.701.119.184.268.328.448.432.181.104.388.173.62.207s.46.053.683.057l-.005.303c-.425-.007-.77-.017-1.033-.032-.263-.014-.486-.028-.668-.041-.182-.013-.349-.026-.501-.039-.152-.012-.329-.02-.532-.024-.223-.004-.41-.001-.562.006-.152.008-.32.015-.502.022-.183.008-.407.014-.67.02-.263.006-.597.006-1.003,0l.005-.303ZM102.22,12.048l-2.784-8.27-3.233,8.172,6.016.097ZM129.801,20.134c-.138.528-.287,1.112-.443,1.751-.156.639-.267,1.159-.329,1.56-.702-.12-1.385-.131-2.05-.033-.665.098-1.352.206-2.063.324-.711.118-1.469.192-2.272.222-.804.03-1.686-.08-2.646-.33-1.431-.374-2.672-.954-3.722-1.74-1.051-.786-1.886-1.731-2.509-2.835-.621-1.103-1.008-2.328-1.158-3.674-.149-1.346-.03-2.763.359-4.25.385-1.468,1.008-2.769,1.871-3.903.862-1.134,1.878-2.039,3.051-2.716,1.171-.677,2.454-1.116,3.847-1.316,1.393-.201,2.824-.11,4.294.274,1.098.286,2.084.717,2.961,1.29.875.574,1.67,1.257,2.384,2.05l.982-.873.294.077c-.112.347-.215.639-.308.876-.094.237-.176.451-.246.641-.071.191-.139.371-.205.543-.066.171-.127.364-.183.58-.067.255-.122.465-.165.631-.044.166-.085.344-.124.532-.04.189-.095.42-.166.694-.072.274-.169.646-.292,1.116l-.353-.092c.391-1.812.172-3.398-.655-4.758s-2.201-2.291-4.121-2.793c-.823-.215-1.701-.22-2.635-.015-.933.205-1.837.638-2.71,1.297-.874.659-1.68,1.556-2.416,2.689-.737,1.133-1.323,2.531-1.758,4.192-.158.606-.29,1.266-.393,1.98-.103.714-.147,1.444-.133,2.189.014.745.1,1.477.257,2.197.156.72.412,1.386.764,2.001.352.614.813,1.152,1.384,1.614.57.462,1.276.803,2.119,1.023.607.159,1.238.229,1.892.212.653-.018,1.275-.153,1.866-.407.59-.254,1.117-.628,1.582-1.124.464-.495.804-1.154,1.02-1.976.251-.959.234-1.695-.049-2.209-.285-.513-.957-.908-2.015-1.184l.077-.294c.588.154,1.072.285,1.451.395.38.11.714.213,1.003.309.289.096.559.183.812.259.251.077.544.158.877.245.314.082.59.149.827.2.238.052.492.102.762.152.27.05.587.117.953.202.365.085.842.204,1.429.358l-.077.294c-.843-.22-1.483-.235-1.919-.046-.437.189-.771.724-1.001,1.605ZM142.938,20.736c.801.434,1.503.554,2.102.361.6-.193,1.098-.654,1.494-1.383l.268.144c-.223.409-.411.745-.564,1.007-.154.262-.284.48-.389.653-.106.173-.197.32-.273.44-.077.12-.156.256-.237.406-.082.151-.15.286-.204.406-.054.121-.123.268-.205.442-.083.174-.19.392-.321.655-.132.263-.308.599-.53,1.008l-.267-.144c.377-.694.482-1.344.317-1.952-.166-.608-.65-1.128-1.451-1.562l-1.817-.983-3.122,5.754c-.345.637-.564,1.176-.654,1.619-.09.443-.039.836.154,1.181.194.344.516.673.968.987.452.314,1.043.667,1.774,1.063.641.347,1.254.65,1.839.91.586.259,1.149.399,1.692.418s1.073-.121,1.594-.422,1.032-.829,1.533-1.584l.295.159-2.241,3.62c-.811-.416-1.531-.788-2.159-1.116-.628-.329-1.308-.69-2.038-1.085-1.514-.819-2.722-1.502-3.624-2.047-.902-.546-1.638-.973-2.208-1.281-.286-.154-.533-.282-.742-.384-.211-.102-.433-.211-.67-.327s-.517-.257-.843-.422c-.325-.164-.755-.391-1.29-.68l.145-.267c.285.154.568.279.851.374.282.095.555.134.819.115.263-.018.513-.107.75-.267.236-.16.456-.426.659-.8l7.513-13.847c.202-.373.306-.703.311-.988.005-.285-.056-.543-.185-.773-.129-.23-.31-.438-.544-.622-.234-.184-.494-.354-.779-.507l.144-.267c.534.289.956.523,1.262.7s.569.331.787.46c.218.129.421.251.613.366.191.115.428.249.714.404.605.327,1.354.698,2.247,1.113.892.414,1.874.91,2.943,1.488.694.376,1.318.725,1.869,1.046.552.322,1.178.684,1.881,1.087l-1.721,3.555-.267-.144c.31-.699.459-1.314.447-1.845-.011-.531-.155-1.008-.432-1.432-.277-.424-.655-.81-1.134-1.16-.478-.35-1.029-.694-1.652-1.031-.16-.087-.35-.183-.569-.29-.219-.106-.437-.213-.656-.32-.219-.106-.43-.204-.636-.292-.206-.089-.376-.157-.509-.207-.439-.168-.774-.04-1.004.385l-3.867,7.127,1.817.983ZM190.784,58.635c-.423.239-.832.464-1.224.674-.394.21-.783.425-1.171.645-.423.239-.857.502-1.3.787-.444.285-.903.563-1.38.832l-.179-.317c1.554-1.018,2.534-2.292,2.94-3.824s.11-3.177-.887-4.938c-.4-.704-1-1.312-1.801-1.824s-1.748-.849-2.839-1.011-2.296-.114-3.615.143-2.7.794-4.143,1.609c-.864.488-1.727,1.116-2.594,1.884-.866.769-1.585,1.633-2.154,2.595-.571.962-.911,1.991-1.022,3.088-.111,1.097.158,2.217.807,3.362.489.862,1.074,1.578,1.758,2.145.682.567,1.43.964,2.244,1.189s1.668.283,2.561.174c.892-.109,1.798-.401,2.717-.873l.18.317c-.512.289-1.061.583-1.649.88-.589.298-1.051.541-1.385.73-.176.1-.343.194-.503.284-.158.09-.332.194-.521.312s-.413.257-.673.415c-.259.158-.579.356-.956.593l-.15-.264.725-1.247c-.214-.088-.502-.228-.865-.418-.364-.19-.771-.454-1.219-.793-.448-.339-.913-.769-1.393-1.287-.481-.519-.935-1.157-1.364-1.914-.749-1.32-1.241-2.652-1.478-3.994-.237-1.342-.205-2.639.099-3.891.303-1.252.897-2.431,1.784-3.536s2.088-2.086,3.605-2.944c1.251-.708,2.56-1.139,3.927-1.296,1.366-.156,2.698-.055,3.996.304,1.297.359,2.505.96,3.623,1.804,1.119.844,2.053,1.926,2.8,3.246.559.986.94,1.997,1.144,3.033.203,1.036.263,2.077.181,3.123l1.222-.063.149.264ZM197.199,76.979c.154.587.273,1.058.356,1.413.082.355.146.662.195.922.046.259.094.498.14.716.046.218.114.493.201.826.082.313.158.581.228.803.068.222.146.458.232.708.086.249.181.549.283.898.103.35.23.818.385,1.405l-.294.077c-.082-.313-.185-.605-.309-.876-.124-.271-.282-.496-.476-.675-.194-.18-.43-.301-.708-.364-.279-.063-.623-.041-1.035.067l-15.255,3.996c-.412.108-.723.257-.935.449-.212.191-.358.412-.438.664-.08.251-.108.525-.082.822.025.296.079.601.161.914l-.294.077c-.154-.587-.273-1.058-.355-1.413-.083-.355-.148-.662-.195-.921-.047-.26-.096-.504-.145-.731-.049-.228-.115-.498-.197-.811-.088-.333-.164-.606-.23-.818-.067-.213-.143-.444-.229-.693-.086-.249-.181-.549-.283-.898-.103-.349-.23-.818-.385-1.405l.294-.077c.082.313.185.605.309.876.124.271.282.496.476.675.194.179.429.3.708.364.278.063.623.041,1.035-.067l7.613-1.994-2.405-9.158-7.614,1.994c-.412.108-.723.257-.934.449-.213.191-.358.412-.438.664-.081.251-.109.525-.083.822.026.296.079.601.162.914l-.295.077c-.154-.587-.273-1.058-.355-1.413-.083-.355-.147-.662-.195-.921-.047-.26-.096-.503-.144-.731-.049-.228-.116-.498-.198-.811-.087-.333-.164-.606-.23-.818-.066-.213-.143-.444-.229-.693-.087-.249-.181-.548-.284-.898-.102-.349-.23-.818-.385-1.405l.295-.077c.082.313.184.605.309.876.123.271.281.496.476.675.193.179.429.3.707.364.279.063.623.041,1.035-.067l15.256-3.996c.412-.108.722-.257.934-.449.212-.192.358-.413.438-.664.08-.251.108-.525.083-.822-.026-.297-.079-.602-.162-.914l.295-.077c.154.587.272,1.058.355,1.413.082.355.147.662.195.922.046.259.094.498.14.716.046.218.114.493.202.826.082.313.157.581.227.803.068.222.146.458.232.708.086.249.181.549.284.898.102.35.23.818.385,1.405l-.295.077c-.082-.313-.185-.605-.309-.876-.124-.271-.282-.496-.476-.675-.194-.18-.429-.301-.707-.364-.279-.063-.623-.04-1.036.067l-7.113,1.863,2.406,9.158,7.113-1.863c.412-.108.723-.257.935-.449.212-.192.357-.413.438-.664.08-.251.108-.525.083-.822-.027-.297-.08-.602-.162-.914l.294-.077ZM190.317,98.368c.017.91.257,1.578.72,2.005.464.426,1.111.632,1.942.617l.005.303c-.466.009-.851.01-1.154.006-.304-.005-.558-.01-.761-.017-.203-.007-.375-.014-.517-.021-.142-.008-.3-.01-.472-.007-.171.003-.322.011-.454.023-.132.012-.294.025-.486.039-.193.013-.435.028-.729.043-.293.015-.673.027-1.139.036l-.006-.303c.79-.014,1.41-.243,1.857-.686.448-.444.664-1.12.647-2.03l-.038-2.063-6.552.119c-.724.013-1.302.089-1.733.229-.43.139-.748.378-.953.715-.206.338-.333.78-.384,1.327s-.068,1.235-.052,2.065c.013.728.049,1.41.112,2.046.062.636.218,1.195.468,1.676s.634.873,1.152,1.178c.517.304,1.23.488,2.136.553l.006.334-4.259-.165c-.036-.91-.066-1.719-.089-2.427-.023-.708-.043-1.477-.057-2.306-.032-1.72-.031-3.106,0-4.158.032-1.053.042-1.903.03-2.55-.006-.324-.016-.602-.031-.834-.015-.233-.029-.48-.044-.743-.016-.263-.031-.576-.047-.94s-.031-.849-.042-1.456l.304-.006c.006.324.037.632.093.924.055.292.156.548.303.769.145.22.346.393.601.52.256.127.596.186,1.022.179l15.769-.286c.425-.008.763-.08,1.014-.216.251-.137.445-.317.584-.542.137-.225.229-.485.274-.779.046-.294.065-.604.059-.927l.304-.005c.011.607.015,1.087.011,1.441-.004.354-.008.657-.014.911-.006.253-.011.49-.017.713-.007.223-.007.496,0,.82.013.687.058,1.521.137,2.501.078.98.129,2.077.15,3.29.015.789.017,1.502.009,2.14-.009.638-.016,1.361-.022,2.17l-3.946.254-.006-.303c.762-.075,1.372-.248,1.829-.519.457-.271.801-.632,1.035-1.081.232-.45.384-.968.454-1.556.069-.588.098-1.236.085-1.944-.004-.182-.013-.394-.027-.637-.015-.243-.03-.485-.044-.728-.015-.243-.035-.475-.058-.697-.025-.223-.048-.404-.07-.545-.069-.465-.346-.692-.831-.683l-8.115.147.038,2.063ZM188.436,116.869c-.162.896-.058,1.598.313,2.107.371.509.964.838,1.783.985l-.054.299c-.459-.083-.836-.156-1.134-.22-.297-.064-.545-.119-.742-.165-.198-.046-.365-.087-.504-.122-.138-.036-.293-.068-.461-.099-.169-.031-.32-.053-.45-.066-.132-.014-.293-.033-.484-.057-.192-.024-.433-.058-.723-.1-.292-.042-.666-.105-1.125-.188l.054-.299c.778.141,1.429.037,1.956-.31.526-.347.87-.968,1.033-1.864l.368-2.03-7.513-1.358c-.417-.076-.762-.071-1.034.014-.272.084-.497.223-.676.417-.179.194-.32.43-.421.71-.102.279-.182.579-.239.897l-.298-.054c.108-.597.199-1.074.274-1.431.075-.356.146-.663.213-.917.067-.255.127-.497.178-.724.051-.227.106-.5.163-.818.062-.339.107-.618.137-.839.029-.221.057-.463.085-.725.027-.263.067-.574.123-.934.054-.36.137-.839.245-1.436l.299.054c-.058.318-.088.626-.091.924-.002.297.046.568.146.813.1.244.262.453.489.628.226.174.548.299.966.375l15.519,2.806c.419.076.765.071,1.038-.013.272-.085.499-.223.678-.417.179-.194.32-.431.422-.71.102-.28.182-.579.239-.897l.299.054c-.108.597-.2,1.074-.274,1.431-.075.357-.141.663-.198.92-.057.257-.112.499-.163.726-.051.227-.106.5-.163.818-.123.677-.233,1.458-.332,2.345-.099.887-.257,1.927-.474,3.122-.144.796-.287,1.526-.427,2.189-.141.663-.294,1.391-.458,2.184l-3.953-.344.054-.299c.77.036,1.407-.049,1.914-.255.506-.207.92-.517,1.24-.932.321-.415.575-.919.764-1.512.189-.593.351-1.258.485-1.994.033-.179.063-.379.093-.6.03-.221.059-.442.089-.662.03-.221.056-.427.081-.617.025-.191.036-.338.035-.441.03-.509-.203-.808-.699-.897l-8.316-1.503-.368,2.03ZM188.19,128.04c.159.544.354.998.585,1.363.229.365.47.669.719.912.249.243.497.432.74.567.243.134.47.237.682.308.039.013.093.025.163.039.07.013.135.029.192.048l.173.058c-.083-.263-.125-.473-.124-.633,0-.16.023-.307.067-.441.135-.403.382-.71.741-.92.359-.211.759-.243,1.201-.095.5.167.846.458,1.038.874.191.416.22.826.085,1.228-.084.249-.221.481-.41.695-.189.214-.423.386-.702.517s-.597.205-.956.224c-.359.019-.76-.046-1.202-.193-.922-.308-1.652-.872-2.189-1.691s-.914-1.735-1.131-2.746l.327-.115ZM186.178,148.555c-.33-.177-.659-.346-.985-.509-.344-.172-.745-.344-1.203-.515-.457-.172-.876-.353-1.257-.543l.163-.326c.549.206,1.135.317,1.757.334.621.016,1.229-.06,1.819-.228.591-.169,1.133-.442,1.624-.818.492-.377.887-.863,1.187-1.46.235-.471.364-.954.388-1.452.023-.498-.042-.966-.196-1.404-.152-.438-.396-.842-.73-1.213-.333-.37-.726-.668-1.178-.893-.669-.334-1.31-.439-1.924-.316-.614.123-1.207.37-1.777.742-.57.371-1.131.804-1.683,1.297-.551.493-1.099.944-1.641,1.352-.57.416-1.143.792-1.717,1.127-.576.335-1.162.579-1.76.733-.598.154-1.228.202-1.889.143s-1.372-.278-2.134-.658c-.761-.38-1.382-.882-1.862-1.506-.481-.625-.812-1.321-.993-2.09-.181-.769-.213-1.588-.095-2.456.118-.869.399-1.747.842-2.633.453-.905,1.008-1.64,1.665-2.205.657-.566,1.397-1.084,2.222-1.554l-.748-1.153.136-.271c.562.28,1.001.511,1.319.692.318.181.657.362,1.019.543.381.19.797.386,1.25.59.453.203.969.45,1.55.739l-.163.326c-.707-.308-1.434-.495-2.181-.563-.748-.068-1.463-.007-2.148.183-.684.19-1.321.511-1.909.964s-1.073,1.059-1.454,1.819c-.28.561-.455,1.135-.522,1.724-.068.588-.028,1.151.123,1.689.149.538.399,1.024.748,1.459.348.434.794.787,1.338,1.058.562.28,1.128.393,1.698.339.571-.054,1.131-.211,1.679-.468.548-.258,1.085-.584,1.61-.977.525-.394,1.028-.776,1.509-1.147.562-.444,1.145-.865,1.753-1.262.606-.398,1.238-.711,1.895-.937.657-.227,1.338-.333,2.046-.319.706.013,1.449.215,2.229.604.652.325,1.198.773,1.637,1.343.44.57.76,1.198.959,1.886.2.687.272,1.402.219,2.144-.054.742-.249,1.448-.585,2.117-.344.688-.796,1.287-1.358,1.799-.562.511-1.21.934-1.944,1.269l.748,1.086-.136.271c-.309-.154-.628-.319-.959-.495ZM164.041,149.098c-.173.242-.289.491-.348.749-.059.257-.046.522.039.794.084.272.276.56.575.862l11.085,11.203c.3.302.585.497.857.585.272.087.536.103.794.048.258-.056.509-.169.755-.339.244-.17.482-.369.712-.596l.214.216c-.404.398-.731.714-.983.949-.252.234-.461.426-.627.576-.165.149-.31.277-.431.384-.123.106-.263.238-.421.395-.289.284-.515.529-.682.736-.166.206-.414.473-.746.8l-15.691-6.488,6.568,15.489c-.273.27-.501.472-.681.607-.179.135-.435.365-.767.693-.187.185-.342.345-.465.48-.123.135-.263.288-.421.459-.159.17-.357.38-.595.629-.237.249-.565.579-.983.992l-.214-.216c.23-.228.432-.463.606-.705.173-.243.289-.492.348-.749.058-.258.046-.522-.039-.794-.084-.273-.276-.56-.575-.862l-11.086-11.203c-.299-.302-.584-.497-.856-.585-.272-.088-.536-.104-.794-.048-.258.055-.51.168-.755.339-.244.17-.482.369-.712.597l-.214-.216c.432-.427.781-.765,1.049-1.013.266-.249.501-.459.701-.629.202-.171.389-.334.562-.49.173-.157.375-.348.605-.576.245-.242.443-.445.595-.608.151-.164.314-.345.487-.544.173-.2.386-.431.638-.694.252-.263.595-.608,1.027-1.034l.214.216c-.23.227-.432.462-.606.705-.173.242-.289.491-.348.749-.058.257-.046.521.039.794.084.272.276.56.575.862l11.534,11.656-7.861-18.522.044-.043,18.284,7.469-11.149-11.267c-.299-.302-.585-.497-.857-.585-.271-.088-.536-.104-.794-.048-.258.056-.509.168-.754.339-.244.17-.483.369-.713.597l-.214-.216c.289-.285.526-.512.713-.682.188-.171.349-.317.487-.437.137-.121.266-.235.389-.341.123-.107.263-.238.421-.394.158-.157.292-.295.4-.416.108-.121.224-.249.346-.384.123-.135.267-.292.432-.469.166-.178.394-.409.682-.693l.214.216c-.23.227-.433.462-.606.705ZM145.157,178.222c-.789.455-1.259.988-1.409,1.6-.149.611-.017,1.276.399,1.995l-.263.152c-.233-.403-.421-.739-.564-1.006-.143-.268-.261-.492-.354-.672-.092-.181-.169-.335-.232-.463-.061-.128-.137-.267-.222-.415-.086-.149-.166-.277-.24-.386-.075-.109-.164-.244-.27-.405-.105-.162-.234-.367-.391-.616-.155-.249-.349-.575-.583-.978l.263-.152c.396.684.895,1.113,1.501,1.291.605.177,1.302.038,2.092-.417l1.789-1.031-3.275-5.668c-.362-.627-.708-1.095-1.04-1.404-.33-.309-.692-.471-1.088-.487-.395-.016-.845.086-1.348.307-.504.221-1.116.538-1.835.953-.632.364-1.212.727-1.739,1.089-.528.362-.942.769-1.242,1.22s-.459.976-.475,1.577c-.016.6.167,1.311.549,2.134l-.29.167-1.915-3.801c.779-.472,1.474-.89,2.082-1.253.609-.363,1.274-.751,1.993-1.166,1.492-.859,2.706-1.53,3.643-2.012.938-.482,1.688-.885,2.249-1.208.281-.162.519-.305.716-.43.197-.125.407-.258.629-.398.224-.141.491-.306.801-.497.311-.191.729-.438,1.255-.741l.152.263c-.281.162-.535.338-.765.528-.229.19-.405.402-.527.636-.122.234-.177.493-.164.778.013.284.125.611.337.979l7.883,13.641c.213.368.439.628.68.782.24.153.493.235.757.247.264.011.536-.035.815-.137.28-.103.561-.235.841-.397l.152.263c-.526.303-.946.539-1.258.707-.312.168-.58.311-.804.429-.225.117-.435.227-.634.33-.198.102-.437.235-.718.396-.596.344-1.305.787-2.126,1.33-.821.543-1.758,1.118-2.81,1.724-.685.394-1.308.742-1.871,1.043-.563.301-1.201.645-1.912,1.032l-2.133-3.326.263-.152c.434.63.88,1.078,1.339,1.347.459.268.942.395,1.448.381.506-.014,1.035-.133,1.584-.357.549-.224,1.131-.513,1.745-.867.157-.091.339-.202.545-.331.205-.13.411-.261.616-.39.206-.13.4-.26.583-.388.183-.129.331-.237.443-.325.374-.285.439-.637.197-1.056l-4.057-7.021-1.789,1.031ZM127.075,195.075c-.111-.358-.226-.709-.342-1.054-.124-.364-.288-.768-.492-1.211-.204-.444-.375-.867-.511-1.269l.345-.117c.245.532.584,1.023,1.013,1.471.431.448.916.82,1.454,1.115.539.295,1.116.482,1.731.56s1.238.01,1.872-.204c.5-.169.932-.422,1.299-.759.366-.338.65-.715.85-1.134.2-.419.312-.877.335-1.375.024-.498-.046-.985-.209-1.463-.239-.707-.621-1.232-1.145-1.576-.523-.344-1.119-.585-1.786-.721s-1.37-.223-2.11-.26c-.739-.037-1.446-.101-2.119-.192-.698-.104-1.37-.239-2.015-.405-.644-.166-1.234-.405-1.767-.715-.533-.311-1.015-.719-1.443-1.226-.429-.506-.779-1.162-1.053-1.966-.273-.805-.36-1.598-.262-2.379.098-.781.354-1.509.767-2.182.412-.674.967-1.278,1.663-1.813.695-.535,1.513-.961,2.453-1.28.96-.325,1.872-.458,2.736-.399.866.059,1.757.211,2.674.456l.281-1.345.288-.098c.202.593.352,1.066.45,1.418s.212.718.342,1.102c.137.402.295.834.473,1.298.179.463.372,1,.581,1.614l-.345.117c-.286-.715-.671-1.359-1.154-1.932s-1.035-1.033-1.655-1.378c-.62-.346-1.299-.565-2.037-.656-.737-.092-1.509-.002-2.314.271-.595.201-1.124.487-1.586.858-.463.37-.831.799-1.104,1.287-.272.487-.438,1.008-.496,1.562-.057.553.011,1.118.206,1.693.202.593.524,1.072.968,1.434.444.363.952.644,1.523.846.571.202,1.182.347,1.833.437.651.089,1.277.17,1.879.244.712.079,1.423.191,2.136.334.712.143,1.381.365,2.007.666s1.186.704,1.679,1.21.878,1.171,1.158,1.995c.234.69.308,1.391.219,2.105-.089.714-.305,1.385-.648,2.014-.342.629-.794,1.187-1.355,1.677-.562.489-1.197.854-1.907,1.094-.729.247-1.473.355-2.233.324-.759-.031-1.517-.186-2.275-.463l-.233,1.297-.288.098c-.11-.326-.221-.668-.331-1.025ZM109.218,198.397c-.044-.372-.091-.738-.142-1.098-.054-.381-.141-.808-.26-1.281s-.209-.92-.269-1.341l.361-.052c.142.568.385,1.112.725,1.632s.749.974,1.224,1.363c.476.389,1.008.678,1.599.868.59.19,1.216.238,1.878.143.521-.075.993-.244,1.416-.508.422-.264.772-.584,1.045-.959.274-.375.468-.805.583-1.29s.137-.977.064-1.476c-.106-.739-.384-1.325-.835-1.76s-.992-.78-1.622-1.036c-.63-.256-1.306-.47-2.026-.643-.72-.172-1.404-.364-2.048-.578-.668-.231-1.303-.487-1.906-.768-.602-.282-1.138-.624-1.605-1.027-.467-.404-.865-.893-1.193-1.47-.328-.577-.552-1.285-.673-2.126s-.06-1.637.179-2.386c.241-.75.626-1.418,1.156-2.004.529-.587,1.185-1.079,1.968-1.477.782-.398,1.665-.667,2.647-.808,1.003-.143,1.924-.106,2.763.111.84.217,1.688.53,2.545.939l.523-1.27.301-.043c.089.62.149,1.113.181,1.476.032.363.076.745.134,1.146.06.421.137.874.227,1.362.09.488.181,1.052.273,1.693l-.361.052c-.149-.756-.409-1.459-.779-2.111s-.827-1.205-1.373-1.658c-.546-.454-1.173-.793-1.88-1.019-.708-.226-1.483-.279-2.326-.158-.621.089-1.193.273-1.716.552-.523.279-.963.633-1.322,1.063-.357.429-.616.91-.776,1.444-.158.533-.195,1.101-.109,1.702.089.621.319,1.15.688,1.588.369.438.817.808,1.341,1.111.524.303,1.098.558,1.721.766.623.207,1.224.402,1.802.585.686.209,1.364.449,2.038.72s1.29.613,1.85,1.023c.561.41,1.037.91,1.427,1.497.392.588.649,1.312.773,2.173.103.721.046,1.424-.174,2.109-.219.685-.554,1.306-1.007,1.861-.452.555-.999,1.021-1.641,1.399-.641.378-1.333.62-2.075.726-.762.109-1.513.078-2.254-.092s-1.457-.461-2.152-.873l-.468,1.232-.301.043c-.048-.341-.095-.697-.137-1.069ZM104.844,180.289c-1.455-.094-2.516.597-3.18,2.074l-7.968,17.637-.577-.037-5.687-18.371c-.286-.911-.629-1.561-1.03-1.952-.402-.391-.965-.61-1.694-.657l.02-.303c.606.039,1.087.075,1.439.109.353.033.656.062.908.089.252.026.484.051.695.076.212.024.469.046.773.065.303.02.561.031.774.035.214.003.447.009.699.015.254.006.573.017.958.032.385.015.901.043,1.548.085l-.02.303c-.243-.016-.482-.016-.716,0-.233.015-.455.062-.664.14-.208.078-.378.198-.51.362-.133.163-.208.377-.225.639-.015.222.006.457.061.703.054.247.117.474.184.681l1.634,5.306,6.367.413,2.36-5.382c.145-.355.226-.665.243-.927.018-.283-.028-.519-.137-.708-.11-.19-.252-.341-.427-.453-.176-.113-.379-.192-.609-.237-.23-.045-.456-.075-.68-.09l.02-.303c.424.027.769.055,1.031.082.262.027.484.051.665.074.181.022.347.042.499.063.15.02.327.037.529.05.223.014.411.021.562.021.152,0,.321,0,.503.002.183.001.407.006.67.013.263.007.597.024,1.001.05l-.02.303ZM92.414,187.875l2.377,8.395,3.627-8.006-6.004-.389ZM65.354,178.067c.171-.519.355-1.092.552-1.72.196-.628.338-1.14.426-1.537.693.164,1.374.217,2.043.161.67-.057,1.363-.122,2.08-.195.717-.073,1.478-.1,2.282-.08s1.678.184,2.62.494c1.405.462,2.607,1.118,3.606,1.969s1.775,1.846,2.327,2.986c.552,1.14.861,2.386.926,3.739.066,1.353-.142,2.759-.624,4.22-.475,1.441-1.178,2.7-2.11,3.779-.932,1.078-2.003,1.918-3.215,2.521-1.212.602-2.519.961-3.922,1.074-1.402.114-2.825-.067-4.268-.541-1.077-.354-2.035-.845-2.874-1.472-.838-.627-1.589-1.359-2.251-2.194l-1.035.81-.289-.095c.134-.34.254-.625.362-.855.108-.231.204-.439.286-.625.083-.186.162-.362.238-.528s.149-.356.219-.567c.083-.25.151-.457.205-.62.053-.163.107-.338.156-.524.051-.186.121-.413.21-.682.088-.269.209-.634.361-1.095l.346.114c-.504,1.784-.385,3.381.356,4.79.74,1.409,2.053,2.424,3.939,3.044.808.266,1.684.325,2.628.179.944-.147,1.874-.522,2.787-1.125.914-.604,1.774-1.448,2.579-2.533.806-1.085,1.478-2.443,2.016-4.074.196-.595.368-1.246.515-1.952.148-.706.238-1.432.27-2.176.033-.744-.007-1.481-.119-2.208-.112-.728-.324-1.409-.638-2.044-.313-.635-.74-1.2-1.28-1.697s-1.224-.881-2.052-1.153c-.595-.196-1.221-.306-1.875-.329-.653-.023-1.283.073-1.887.29s-1.154.557-1.649,1.023-.875,1.102-1.142,1.909c-.311.941-.34,1.678-.088,2.207.251.53.897.966,1.936,1.308l-.095.288c-.578-.19-1.052-.351-1.424-.485-.372-.133-.698-.257-.981-.371-.282-.114-.546-.217-.793-.309-.247-.092-.534-.192-.862-.299-.308-.101-.579-.185-.813-.251-.233-.066-.484-.133-.75-.199-.266-.066-.579-.153-.938-.261-.359-.108-.828-.256-1.405-.446l.095-.288c.827.272,1.465.327,1.913.166s.814-.674,1.099-1.539ZM52.291,176.657c-.773-.483-1.465-.646-2.075-.49-.611.156-1.137.585-1.577,1.288l-.258-.161c.247-.395.456-.718.625-.97.17-.252.313-.461.428-.627.116-.166.216-.307.3-.422.084-.115.172-.246.262-.391.091-.145.168-.276.229-.393.061-.117.138-.26.231-.428.094-.168.215-.38.361-.634.147-.254.344-.579.591-.973l.258.161c-.418.669-.564,1.312-.436,1.928.129.617.579,1.166,1.351,1.648l1.753,1.093,3.472-5.55c.385-.614.635-1.139.753-1.576.118-.436.091-.832-.08-1.188-.172-.356-.474-.704-.906-1.044-.431-.341-.999-.73-1.704-1.17-.618-.386-1.211-.727-1.779-1.022s-1.123-.469-1.663-.522-1.078.054-1.616.322-1.081.763-1.629,1.486l-.283-.177,2.46-3.474c.783.465,1.479.881,2.086,1.248.606.367,1.262.77,1.967,1.209,1.46.911,2.623,1.667,3.49,2.267.868.6,1.576,1.072,2.125,1.415.275.172.514.315.717.429.203.114.419.237.647.368.229.131.501.288.815.473.316.184.73.437,1.245.759l-.161.257c-.274-.171-.55-.314-.826-.426-.276-.113-.546-.168-.81-.165-.264.002-.518.076-.765.22s-.482.397-.707.758l-8.357,13.357c-.226.36-.349.682-.372.967-.022.284.024.545.137.783.114.238.282.456.504.654.224.198.472.384.746.555l-.16.257c-.515-.322-.921-.581-1.217-.777-.295-.196-.547-.365-.757-.508-.209-.143-.406-.277-.59-.404-.183-.127-.412-.275-.687-.447-.585-.364-1.309-.781-2.175-1.249-.865-.468-1.813-1.024-2.844-1.667-.671-.418-1.27-.805-1.801-1.159-.53-.355-1.134-.755-1.81-1.201l1.939-3.442.257.161c-.352.678-.539,1.283-.561,1.814-.022.531.093,1.016.343,1.456s.603.849,1.058,1.228c.456.379.985.756,1.586,1.131.155.097.338.204.55.325.212.12.422.24.634.36s.417.23.617.331.365.18.496.238c.427.195.77.087,1.026-.323l4.301-6.874-1.753-1.093Z" style="fill: url(#_名称未設定グラデーション_87);"/>
</svg>