<?xml version="1.0" encoding="UTF-8"?>
<svg id="_レイヤー_1" data-name=" レイヤー 1" xmlns="http://www.w3.org/2000/svg" viewBox="0 0 680 101.21">
  <g>
    <path d="M47.18,101.21c-.73,0-1.43-.39-1.8-1.09L.24,14.78c-.53-1-.15-2.24.84-2.77,1-.53,2.23-.15,2.76.85l45.15,85.35c.53,1,.15,2.24-.84,2.77-.31.16-.63.24-.96.24h0Z" style="fill: #fff;"/>
    <path d="M632.81,101.21c-.32,0-.65-.08-.96-.24-.99-.53-1.37-1.77-.84-2.77l45.15-85.35c.53-1,1.76-1.38,2.76-.85.99.53,1.37,1.77.84,2.77l-45.15,85.35c-.37.69-1.07,1.09-1.8,1.09Z" style="fill: #fff;"/>
  </g>
  <rect x="41.64" width="600" height="41.88" style="fill: #8e474f; isolation: isolate; opacity: .5;"/>
  <rect x="108.02" y="56.54" width="463.06" height="41.88" style="fill: #8e474f; isolation: isolate; opacity: .5;"/>
  <g>
    <path d="M63.84,25.18c1.84,1.35,2.76,2.67,2.76,3.94,0,.48-.15.88-.44,1.2-.29.32-.61.49-.95.49s-.68-.15-1.02-.44c-.33-.29-.63-.7-.89-1.22-.73-1.47-1.6-2.8-2.6-3.99-1-1.19-2.06-2.13-3.18-2.82-4.05,4.59-8.72,7.97-14.01,10.16-.11.04-.21.06-.29.06-.13,0-.19-.05-.19-.16s.12-.22.36-.32c2.32-1.25,4.62-2.95,6.88-5.1,2.26-2.14,4.2-4.32,5.83-6.52,1.63-2.21,2.71-4,3.25-5.39.04-.22.06-.34.06-.36,0-.11-.1-.16-.29-.16-.39,0-1.51.25-3.37.76-1.86.51-3.15.93-3.86,1.25-.13.07-.31.16-.55.28-.24.12-.46.18-.68.18-.54,0-1.05-.2-1.55-.58-.5-.39-.89-.84-1.18-1.36-.29-.52-.44-.95-.44-1.3,0-.3.08-.45.23-.45.06,0,.19.08.39.23s.41.28.65.39c.41.17.89.26,1.45.26.45,0,1.86-.19,4.23-.57,2.37-.38,3.85-.65,4.46-.83.21-.06.59-.23,1.13-.49.37-.22.61-.33.74-.33.26,0,.62.15,1.1.45s.9.65,1.28,1.05c.38.4.57.74.57,1.02,0,.15-.07.3-.21.44-.14.14-.35.31-.63.5-.17.13-.35.27-.53.42s-.32.3-.4.45c-1.25,1.99-2.58,3.84-4,5.55,2.11.84,4.08,1.94,5.93,3.29h0Z" style="fill: #fff;"/>
    <path d="M97.4,15.12c.75.49,1.45,1.02,2.08,1.61.63.58.95,1.05.95,1.4,0,.28-.14.48-.42.6-.28.12-.63.2-1.07.24-.43.02-.76.08-1,.16-.24.09-.6.31-1.1.68l-.84.62c-1.36,1.02-2.49,1.85-3.39,2.48-.9.64-1.71,1.12-2.42,1.44,1.98,1.25,2.97,2.54,2.97,3.86,0,.48-.13.89-.4,1.23-.27.35-.62.52-1.05.52-.8,0-1.46-.61-2-1.82-.41-.91-1.11-1.93-2.1-3.07-.99-1.14-2.06-2-3.2-2.58-.41-.22-.61-.38-.61-.49,0-.09.08-.13.23-.13.32,0,1.09.22,2.31.65,1.22.43,2.35.95,3.41,1.56,1.25-1.1,2.43-2.36,3.54-3.76s1.66-2.51,1.66-3.31c0-.26-.16-.39-.48-.39-.28,0-1.95.22-5.02.65-3.07.43-5.32.8-6.77,1.1-.99.22-1.98.51-2.97.88-.09.02-.25.08-.48.16s-.44.13-.61.13c-.6,0-1.22-.28-1.84-.83-.62-.55-1.03-1.08-1.23-1.57-.09-.24-.13-.44-.13-.62,0-.2.05-.29.16-.29.06,0,.29.1.68.29.6.26,1.22.39,1.84.39.26,0,.6-.02,1.03-.07.39-.04.69-.06.9-.06,1.49-.11,4.14-.38,7.96-.83,3.82-.44,6.1-.77,6.83-.99.19-.07.39-.18.6-.34.2-.16.38-.24.53-.24.21,0,.7.24,1.45.73h0Z" style="fill: #fff;"/>
    <path d="M114.07,22.18c0,.15-.02.3-.05.45-.03.15-.06.29-.08.42-.32,1.71-.9,3.14-1.73,4.28-.83,1.15-1.73,1.72-2.7,1.72-.5,0-.9-.13-1.21-.41-.31-.27-.47-.63-.47-1.09s.19-.87.57-1.23c.38-.37.84-.67,1.4-.91,1.46-.61,2.67-1.54,3.62-2.79.04-.06.12-.19.24-.39.12-.2.21-.29.27-.29.09,0,.13.08.13.23h0ZM121.37,19.81c0,1.04.08,2.77.23,5.19.13,1.73.19,2.93.19,3.6,0,1.08-.15,2.08-.44,2.99-.29.91-.82,1.37-1.6,1.4-.5,0-.81-.41-.94-1.23-.17-.89-.58-1.64-1.23-2.26s-1.26-1.11-1.84-1.48c-.15-.11-.23-.2-.23-.26,0-.09.05-.13.16-.13l.19.03c.09.02.47.13,1.15.34s1.19.31,1.53.31c.3,0,.49-.09.58-.28.09-.18.14-.45.16-.8l.03-3.6c0-2.32-.02-4.06-.06-5.23-2.41.32-4.47.71-6.17,1.17-.62.17-1.18.26-1.68.26-.6,0-1.15-.17-1.63-.52-.48-.35-.85-.85-1.08-1.53-.13-.3-.19-.57-.19-.81,0-.26.05-.39.16-.39s.32.11.65.33c.28.17.68.32,1.21.44.53.12,1.12.18,1.79.18.86,0,3.16-.16,6.91-.49-.06-2.49-.21-4.09-.42-4.8-.17-.52-.59-.94-1.26-1.27-.43-.15-.65-.28-.65-.39,0-.15.21-.32.63-.52.42-.2.81-.29,1.18-.29.39,0,.85.15,1.39.44.54.29,1.01.65,1.4,1.07s.6.81.6,1.15c0,.17-.05.38-.15.63-.1.25-.17.42-.21.5-.11.32-.19.72-.24,1.18-.05.47-.09,1.16-.11,2.09,2.48-.26,4.05-.48,4.71-.65.28-.09.74-.28,1.39-.58.3-.17.54-.29.73-.36.18-.07.39-.1.63-.1.39,0,.9.12,1.55.36s1.22.53,1.71.89c.49.36.74.7.74,1.02,0,.5-.35.75-1.07.75-.24,0-.63-.03-1.19-.1-1.62-.15-2.8-.23-3.55-.23-1.83,0-3.72.1-5.68.29v1.66h0ZM131.62,24.24c1.39.98,2.08,2.12,2.08,3.39,0,.5-.13.88-.4,1.15-.27.27-.58.41-.92.41-.41,0-.73-.13-.97-.41-.24-.27-.51-.71-.81-1.31-.06-.13-.19-.38-.39-.75-.19-.37-.41-.7-.65-1.01-.95-1.3-2.01-2.28-3.2-2.95-.19-.11-.34-.2-.45-.29s-.16-.16-.16-.23c0-.11.07-.16.23-.16.04,0,.23.03.55.1,2,.39,3.7,1.08,5.09,2.06h0Z" style="fill: #fff;"/>
    <path d="M162.15,13.27c1.03.44,1.86,1.09,2.47,1.93.61.84.92,1.86.92,3.05,0,1.04-.27,1.97-.81,2.81-.54.83-1.26,1.49-2.16,1.96-.9.48-1.88.71-2.94.71-1.21,0-2.44-.35-3.7-1.04-1.26-.69-2.46-1.72-3.6-3.08-.3-.37-.45-.63-.45-.78,0-.06.03-.1.1-.1s.18.07.35.21c.17.14.31.25.42.34.97.65,2.01,1.18,3.12,1.59,1.11.41,2.13.62,3.05.62,1.29,0,2.34-.35,3.13-1.05s1.19-1.61,1.19-2.71c0-1.23-.45-2.19-1.34-2.86-.89-.67-2.02-1.01-3.37-1.01s-2.85.43-4.55,1.28c-1.7.86-3.27,1.92-4.71,3.2l-1.29,1.07c1.12,1.99,2.23,4.13,3.33,6.43.84,1.73,1.46,3.21,1.87,4.45.41,1.23.61,2.14.61,2.73,0,.45-.14.84-.42,1.15-.28.31-.63.47-1.07.47s-.76-.14-1-.41c-.24-.27-.39-.57-.47-.91-.08-.34-.16-.81-.24-1.41-.28-2.12-.73-4.08-1.34-5.89s-1.44-3.65-2.47-5.54c-1.01.91-1.8,1.57-2.36,1.98-.56.41-1.05.62-1.49.62-.65,0-1.26-.25-1.86-.76-.59-.51-.97-1.08-1.15-1.71-.02-.09-.03-.19-.03-.32s.01-.22.03-.26c0-.09.02-.13.06-.13s.12.04.23.13c.34.35.84.52,1.49.52.41,0,.81-.11,1.21-.33.4-.22.88-.55,1.44-1.01.13-.13.34-.3.65-.52l.52-.39-1.58-2.47c-.71-1.02-1.07-2-1.07-2.95s.34-1.68,1.02-2.24,1.59-.84,2.73-.84c.58,0,1.38.08,2.39.23.11.02.46.09,1.07.21.6.12,1.13.18,1.58.18.56,0,.84-.17.84-.52,0-.2-.09-.41-.27-.65s-.37-.44-.57-.62c-.09-.07-.21-.16-.37-.28-.16-.12-.24-.22-.24-.31,0-.06.05-.1.16-.1.24,0,.61.12,1.13.36.73.33,1.41.75,2.03,1.28.62.53.94,1.13.94,1.8,0,.43-.18.77-.53,1.02-.36.25-.75.37-1.18.37-.54,0-1.22-.22-2.03-.65-.6-.35-1.32-.67-2.15-.96-.83-.29-1.6-.44-2.31-.44-.75,0-1.32.19-1.71.57s-.58.9-.58,1.57c0,.63.17,1.3.52,2.03.34.73.82,1.56,1.42,2.52,1.94-1.36,3.94-2.51,6.01-3.44,2.07-.93,4.05-1.4,5.94-1.4,1.27,0,2.42.22,3.46.66h0Z" style="fill: #fff;"/>
    <path d="M193.94,10.35c1.22.51,2.19,1.23,2.92,2.16.73.93,1.1,2.02,1.1,3.28,0,3.98-2.88,6.15-8.65,6.49-.37.02-1.04.03-2.03.03h-1.65v7.79c0,.84.23,1.43.68,1.75.45.32,1.14.49,2.07.49h.48c.15,0,.23.14.23.42,0,.3-.08.45-.23.45h-9.62c-.15,0-.23-.15-.23-.45,0-.28.08-.42.23-.42h.48c.9,0,1.59-.16,2.07-.49.47-.33.71-.91.71-1.75V12.64c0-.82-.23-1.4-.69-1.74-.46-.34-1.16-.5-2.08-.5h-.48c-.15,0-.23-.14-.23-.42,0-.3.08-.45.23-.45h10.79c1.4.04,2.71.32,3.92.83h0ZM193.02,19.79c.95-1.01,1.42-2.39,1.42-4.14,0-1.45-.38-2.56-1.15-3.34-.76-.78-1.61-1.29-2.54-1.53-.93-.24-1.76-.36-2.49-.36-1.77,0-2.65.69-2.65,2.08v8.86h2.49c2.32-.04,3.96-.57,4.91-1.57h0Z" style="fill: #fff;"/>
    <path d="M207.02,32.39c-1.76-.85-3.22-2.16-4.41-3.93-1.18-1.76-1.78-3.94-1.78-6.54,0-2.36.51-4.51,1.52-6.44s2.34-3.46,3.99-4.58c1.65-1.11,3.38-1.67,5.22-1.67.69,0,1.32.07,1.89.21.57.14,1.23.35,1.99.63.3.11.59.21.87.29.28.09.51.13.68.13.6,0,1.15-.22,1.65-.65.09-.06.16-.09.21-.06s.09.08.11.16c.52,1.97.91,3.64,1.19,5l.06.33c0,.11-.02.19-.06.24-.04.05-.11.1-.19.15-.04.02-.1.03-.16.03-.13,0-.26-.08-.39-.23-.11-.15-.47-.71-1.1-1.67-.62-.96-1.51-1.76-2.65-2.4-1.14-.64-2.42-.96-3.84-.96-2.07,0-3.65.71-4.76,2.14-1.11,1.43-1.84,2.96-2.18,4.61-.34,1.65-.52,3.04-.52,4.19,0,2.4.42,4.41,1.26,6.02.84,1.61,1.89,2.8,3.15,3.57,1.26.77,2.55,1.15,3.86,1.15,1.66,0,3.06-.44,4.2-1.33,1.14-.89,2.23-2.1,3.26-3.64.11-.13.2-.2.29-.2.06,0,.16.05.29.16.15.09.23.2.23.33,0,.04-.02.11-.06.19-2.15,4.02-5.05,6.04-8.69,6.04-1.66,0-3.36-.43-5.12-1.28h0Z" style="fill: #fff;"/>
    <path d="M226.97,31.3c-.63-.86-1.36-1.63-2.18-2.31-.09-.06-.21-.15-.35-.26-.15-.11-.23-.19-.23-.26,0-.11.09-.16.26-.16.15,0,.34.03.58.1.71.17,1.63.53,2.74,1.07,1.12.54,2.1,1.2,2.96,1.96.85.77,1.27,1.56,1.27,2.39,0,.58-.16,1.03-.47,1.33-.31.3-.65.45-1.02.45-.56,0-1.07-.39-1.52-1.17-.73-1.23-1.42-2.28-2.05-3.15h0Z" style="fill: #fff;"/>
    <path d="M279.21,11.52c.5.31.93.67,1.31,1.05.38.39.57.69.57.91s-.05.37-.16.47-.28.2-.52.31c-.28.15-.51.29-.69.42s-.36.35-.53.65c-1.42,2.42-2.97,4.65-4.65,6.69.82.71,1.46,1.42,1.94,2.11.47.69.71,1.33.71,1.92,0,.52-.12.94-.37,1.25-.25.31-.57.47-.95.47-.28,0-.56-.12-.82-.37-.27-.25-.5-.57-.69-.96-.56-1.04-1.05-1.88-1.49-2.53-4.26,4.48-9.38,7.74-15.34,9.77-.3.09-.51.13-.61.13-.17,0-.26-.05-.26-.16,0-.09.23-.25.68-.49,2.86-1.36,5.48-3.02,7.85-4.97,2.37-1.95,4.47-4.01,6.3-6.2-.52-.65-1.02-1.19-1.5-1.62-.48-.43-1.15-1.01-1.99-1.72l-.74-.58c-.13-.11-.19-.21-.19-.29s.05-.13.16-.13c.04,0,.16.03.35.1,1.85.78,3.54,1.71,5.07,2.79.86-1.1,1.61-2.15,2.24-3.15.63-.99,1.12-1.83,1.45-2.5s.5-1.09.5-1.27c0-.13-.03-.22-.1-.28s-.17-.08-.32-.08l-.71.1c-1.4.28-2.59.42-3.58.42s-1.65-.11-2.1-.32c-1.27,1.77-2.82,3.57-4.65,5.39-1.83,1.82-3.42,3.05-4.78,3.7-.17.11-.33.16-.48.16s-.23-.05-.23-.16.14-.29.42-.55c1.01-.84,2.13-2.01,3.34-3.51s2.28-3,3.18-4.51c.9-1.51,1.44-2.73,1.61-3.64.04-.3.06-.52.06-.65,0-.8-.34-1.2-1.03-1.2-.06,0-.13,0-.21-.02-.08-.01-.15-.03-.21-.05s-.1-.05-.1-.1c0-.17.18-.33.55-.47.37-.14.7-.21,1-.21.39,0,.86.15,1.42.45.56.3,1.05.65,1.49,1.04.43.39.65.71.65.97,0,.15-.08.33-.24.54s-.29.37-.37.5c-.15.35-.39.77-.71,1.27.11.02.25.03.42.03.73,0,1.67-.08,2.81-.23,1.14-.15,1.95-.31,2.42-.49.41-.15.72-.29.94-.42.28-.17.53-.26.74-.26.28,0,.67.16,1.16.47h0Z" style="fill: #fff;"/>
    <path d="M291.83,33.38c0-.13.21-.31.65-.55,3.88-2.01,7.1-4.35,9.67-7.03,2.57-2.67,4.47-5.14,5.7-7.42,1.23-2.27,1.86-3.79,1.91-4.54,0-.17-.1-.26-.29-.26s-1.08.11-2.66.32c-1.58.22-3.27.5-5.07.84-1.8.35-3.3.7-4.5,1.07-.47.15-.92.23-1.32.23-.67,0-1.25-.19-1.74-.58-.39-.32-.72-.77-1-1.33-.28-.56-.42-1.02-.42-1.36,0-.24.1-.36.29-.36s.44.09.74.26c.47.2.87.32,1.19.39.32.06.68.1,1.07.1.67,0,2.61-.13,5.83-.39,3.22-.26,5.17-.49,5.86-.68.39-.11.77-.26,1.16-.45.77-.3,1.27-.45,1.49-.45.24,0,.62.17,1.16.52.54.35,1.02.75,1.45,1.2.43.45.65.83.65,1.14,0,.24-.06.45-.19.65-.13.2-.34.45-.65.78-.56.61-.96,1.14-1.19,1.59-1.44,2.84-3.08,5.25-4.91,7.24-1.83,1.99-3.87,3.68-6.1,5.06s-4.9,2.73-7.98,4.03c-.26.11-.44.16-.55.16-.15,0-.23-.05-.23-.16ZM314.29,12.21c-.25-.15-.44-.38-.57-.68-.3-.63-.63-1.16-.98-1.61-.36-.44-.82-.84-1.4-1.18-.11-.06-.26-.16-.47-.29s-.31-.24-.31-.32c0-.11.16-.16.48-.16.41,0,1.02.1,1.84.29.82.19,1.58.53,2.29,1.01.71.48,1.07,1.13,1.07,1.95,0,.39-.12.69-.37.91-.25.22-.52.33-.82.33-.26,0-.51-.08-.76-.23h0ZM316.79,9c-.41-.65-.77-1.15-1.08-1.49-.31-.35-.75-.65-1.31-.91-.13-.07-.29-.14-.48-.23s-.33-.16-.4-.23c-.08-.07-.11-.13-.11-.2,0-.15.3-.23.9-.23s1.26.11,2.03.34,1.45.57,2.02,1.02.86,1.01.86,1.66c0,.35-.12.62-.35.81-.24.19-.5.29-.77.29-.56,0-.99-.28-1.29-.84h0Z" style="fill: #fff;"/>
    <path d="M328.81,29.85c-.39-.33-.73-.71-1.03-1.14-.3-.42-.45-.72-.45-.89,0-.11.05-.25.15-.44s.16-.37.18-.57c.17-1.17.26-2.76.26-4.77,0-2.25-.14-4.45-.42-6.59-.09-.71-.59-1.07-1.52-1.07-.13,0-.25,0-.35-.02-.11-.01-.16-.05-.16-.11,0-.28.23-.51.68-.7.45-.18.87-.28,1.26-.28.41,0,.9.09,1.49.28s1.09.42,1.52.71c.43.29.65.6.65.93,0,.24-.12.54-.36.91-.17.24-.3.47-.39.68-.09.22-.14.51-.16.88l-.06,1.85-.1,3.15c0,1.45.02,2.43.06,2.95.02.28.05.49.1.63.04.14.14.21.29.21.3,0,1.39-.45,3.28-1.35,1.88-.9,4.06-2.2,6.54-3.89,2.47-1.7,4.86-3.76,7.17-6.18.24-.26.42-.39.55-.39.06,0,.1.06.1.16,0,.09-.04.2-.11.33-.08.13-.16.24-.24.32-1.72,2.29-3.66,4.39-5.81,6.28-2.15,1.9-4.11,3.43-5.88,4.61-1.77,1.18-3.14,2.02-4.13,2.52-.19.11-.48.36-.87.75-.26.26-.47.45-.63.57s-.35.18-.57.18c-.28,0-.61-.17-1-.5h0Z" style="fill: #fff;"/>
    <path d="M361.1,23.12c-.15-.74-.34-1.37-.58-1.9s-.67-1.02-1.29-1.48c-.22-.15-.32-.28-.32-.39,0-.15.11-.23.32-.23.32,0,.84.17,1.57.5.72.34,1.37.8,1.95,1.38.58.58.87,1.24.87,1.98,0,.41-.1.78-.31,1.12-.21.34-.5.5-.89.5-.67,0-1.11-.5-1.32-1.49h0ZM359.48,34.12c-.06-.04-.1-.09-.1-.13,0-.11.2-.24.61-.39,1.96-.67,3.86-1.77,5.72-3.31,1.85-1.54,3.42-3.26,4.7-5.16,1.28-1.9,2.13-3.7,2.54-5.39.15-.65.23-1.11.23-1.4,0-.5-.17-.89-.52-1.17-.09-.06-.21-.15-.36-.26s-.23-.21-.23-.29c0-.22.18-.33.55-.33.49,0,.96.08,1.39.23.52.17,1.03.56,1.55,1.15.52.6.77,1.17.77,1.74,0,.17-.03.31-.1.41-.06.1-.18.23-.36.39-.17.16-.29.31-.35.44-.13.2-.29.49-.48.88-.88,1.65-1.87,3.24-2.97,4.79-1.1,1.55-2.64,3.08-4.62,4.61-1.98,1.53-4.34,2.58-7.07,3.16-.21.07-.43.1-.65.1-.11,0-.19-.02-.26-.06h0ZM366.52,21.22c-.22-.27-.37-.63-.45-1.09-.13-.69-.33-1.3-.6-1.83-.27-.53-.69-1.08-1.28-1.64-.22-.17-.32-.31-.32-.42,0-.13.1-.2.29-.2.41,0,.97.18,1.69.55s1.36.85,1.91,1.46c.55.61.82,1.25.82,1.95,0,.48-.12.87-.35,1.17-.24.3-.55.45-.94.45-.3,0-.56-.13-.77-.4h0Z" style="fill: #fff;"/>
    <path d="M404.74,19.42c1.78.86,2.66,1.97,2.66,3.31,0,.41-.11.76-.32,1.04-.22.28-.48.42-.81.42-.65,0-1.43-.57-2.36-1.72-1.53-1.95-3.27-3.37-5.23-4.25v5.78c.04,3.42.11,5.43.19,6.04.21,1.13.32,1.91.32,2.34,0,.58-.16,1.06-.47,1.43-.31.37-.62.55-.92.55-.34,0-.67-.26-.97-.78-.3-.52-.54-1.11-.73-1.79-.18-.67-.27-1.16-.27-1.46,0-.24.03-.55.1-.94.13-.84.21-1.55.26-2.11.06-.8.13-2.25.19-4.35,0-.43.02-1.1.06-2.01.04-1.38.06-3.41.06-6.07,0-2.12-.05-3.52-.16-4.19-.06-.5-.21-.86-.42-1.1-.22-.24-.53-.5-.94-.78-.11-.07-.19-.12-.26-.16-.06-.04-.1-.1-.1-.16,0-.26.27-.45.82-.58s1.03-.2,1.44-.2c.75,0,1.4.27,1.94.81.26.26.39.57.39.94,0,.19-.04.47-.13.81-.24.95-.35,2.1-.35,3.44l-.06,3.89c2.26.37,4.28.99,6.05,1.85h0Z" style="fill: #fff;"/>
    <path d="M445.54,22.02c0,.35-.09.61-.27.8s-.44.28-.76.28c-.56,0-1.08-.22-1.55-.65-1.1-.99-1.95-2.01-2.57-3.03-.61-1.03-1.32-2.42-2.11-4.17.19,1.38.31,2.21.36,2.47.26,1.62.39,3.01.39,4.16,0,2.08-.29,4.04-.86,5.87-.57,1.84-1.53,3.35-2.87,4.54-1.35,1.19-3.11,1.79-5.28,1.79-1.57,0-2.96-.34-4.17-1.02-1.21-.68-2.14-1.63-2.81-2.86-.67-1.22-1-2.62-1-4.2,0-3.48,1.77-7.44,5.3-11.88-.5.3-.97.5-1.44.6s-.86.15-1.18.15c-.6,0-1.22-.21-1.84-.62-.3-.22-.58-.53-.84-.94s-.39-.7-.39-.88c0-.04.02-.06.06-.06s.09.02.15.05c.05.03.13.06.24.08.09.02.31.08.66.18.36.1.75.15,1.18.15.88,0,1.65-.14,2.29-.42.65-.28,1.3-.65,1.97-1.1.21-.15.42-.29.63-.41.2-.12.37-.18.5-.18.6,0,1.12.14,1.57.42.44.28.66.57.66.88,0,.15-.07.29-.21.41-.14.12-.3.23-.47.33-.17.1-.28.17-.32.21-.47.26-.81.48-1,.65-1.66,1.51-2.96,3.32-3.89,5.4-.94,2.09-1.4,4.08-1.4,5.99s.48,3.49,1.45,4.71c.97,1.21,2.41,1.82,4.33,1.82,2.58,0,4.53-.98,5.83-2.94,1.3-1.96,1.95-4.73,1.95-8.33,0-1.93-.17-3.97-.52-6.13-.02-.09-.13-.67-.32-1.75-.19-1.02-.29-1.68-.29-1.98,0-.39.09-.72.26-.99.17-.27.41-.41.71-.41.47,0,.8.21.97.62.17.41.3,1.08.39,2.01.17,1.58.45,2.84.82,3.77.38.93.91,1.75,1.62,2.47.7.71,1.76,1.57,3.18,2.56.6.45.9,1,.9,1.62h0Z" style="fill: #fff;"/>
    <path d="M460.38,32.79c-1.52-.82-2.28-2.26-2.28-4.32,0-1.64.45-3.03,1.34-4.17s2.05-2.16,3.47-3.07c-.84-.65-1.44-1.35-1.79-2.11-.35-.76-.53-1.71-.53-2.86,0-.87.07-1.65.21-2.35.14-.7.22-1.13.24-1.28.11-.45.2-.91.27-1.38.08-.47.11-.9.11-1.31,0-.93-.25-1.68-.74-2.24-.15-.15-.3-.29-.44-.41-.14-.12-.21-.2-.21-.24,0-.15.16-.23.48-.23.21,0,.47.03.77.1.3.07.56.15.77.26.67.26,1.17.61,1.52,1.04.34.43.52,1,.52,1.69,0,.37-.05.71-.15,1.04-.1.32-.22.65-.35.99-.14.34-.24.6-.31.8-.06.17-.19.48-.37.92-.18.44-.32.9-.42,1.38-.1.48-.15.99-.15,1.53,0,.84.19,1.64.57,2.39.38.75.8,1.12,1.28,1.12.26,0,.55-.07.87-.2s.74-.32,1.26-.58c.13-.07.42-.2.86-.39.44-.2.79-.29,1.05-.29.52,0,1,.14,1.44.42.44.28.66.59.66.94,0,.45-.19.77-.58.96s-1.02.35-1.91.5c-1.96.32-3.77.99-5.42,2s-2.49,2.47-2.49,4.4c0,1.1.38,2,1.13,2.69.75.69,1.89,1.04,3.42,1.04.71,0,1.65-.11,2.81-.32.97-.2,1.72-.29,2.26-.29,1.36,0,2.03.43,2.03,1.3,0,.63-.54,1.08-1.63,1.36-1.09.28-2.45.42-4.08.42-2.15,0-3.99-.41-5.51-1.23h0Z" style="fill: #fff;"/>
    <path d="M492.11,31.59c0-.17.15-.28.45-.33,2.6-.26,4.97-.92,7.1-2,2.13-1.07,3.81-2.4,5.04-3.99,1.23-1.59,1.84-3.24,1.84-4.95,0-1.21-.26-2.25-.79-3.1-.53-.85-1.21-1.5-2.05-1.93-.84-.43-1.72-.65-2.65-.65-1.27,0-2.61.35-4,1.04-1.4.69-2.52,1.35-3.36,1.98-.84.63-1.73,1.33-2.68,2.11-.11.09-.4.32-.87.71s-.96.72-1.47.99c-.51.27-.96.4-1.37.4-.62,0-1.26-.22-1.91-.66-.65-.44-1.17-.9-1.58-1.38-.32-.3-.48-.54-.48-.71,0-.11.03-.18.08-.21.05-.03.16-.05.31-.05.13,0,.42.03.87.1.45.07.82.1,1.1.1.65,0,1.29-.16,1.94-.47.65-.31,1.53-.82,2.65-1.51,1.21-.73,2.26-1.34,3.16-1.82.9-.48,1.97-.89,3.2-1.23,1.23-.35,2.56-.52,4-.52s2.91.34,4.21,1.01c1.3.67,2.34,1.61,3.12,2.82.77,1.21,1.16,2.59,1.16,4.12,0,1.17-.36,2.47-1.08,3.89-.72,1.43-2.3,2.8-4.75,4.11-2.44,1.31-6.01,2.1-10.7,2.39-.32,0-.48-.09-.48-.26h0Z" style="fill: #fff;"/>
    <path d="M537.46,10.09c.68.44,1.02.96,1.02,1.54,0,.28-.09.51-.27.68-.18.17-.4.26-.66.26-.32,0-.87-.07-1.65-.2-.9-.17-1.59-.26-2.07-.26-.56,0-1.1.07-1.63.2s-.94.25-1.24.36c-.93.41-1.74,1.31-2.45,2.71-.71,1.4-1.26,2.95-1.66,4.67-.4,1.72-.6,3.24-.6,4.56,0,2.14.33,3.64.98,4.48.66.84,1.73,1.27,3.21,1.27l.87-.07c.65-.09,1.15-.13,1.52-.13.77,0,1.39.12,1.84.36.45.24.68.58.68,1.04,0,.65-.44,1.07-1.31,1.27-.87.2-1.78.29-2.73.29-2.67,0-4.55-.67-5.65-2-1.1-1.33-1.65-3.44-1.65-6.31,0-2.6.55-4.98,1.66-7.16,1.11-2.18,2.5-3.94,4.18-5.31-.06,0-.21.02-.42.06-.75.13-1.89.5-3.41,1.12-1.52.62-3.04,1.29-4.57,2.03-.26.15-.48.29-.68.41-.19.12-.37.22-.52.31-.45.32-.84.56-1.16.71s-.68.23-1.07.23c-.62,0-1.27-.31-1.94-.92-.67-.62-1.13-1.21-1.39-1.77-.09-.15-.13-.29-.13-.42,0-.2.1-.29.29-.29.13,0,.27.04.42.13.3.17.58.31.82.41.25.1.53.15.86.15.13,0,.32-.02.58-.07.17-.04.88-.27,2.13-.68,2.22-.78,4.33-1.47,6.33-2.06s3.83-1,5.49-1.22c.49-.06,1.11-.25,1.84-.55.41-.17.75-.3,1.03-.37.28-.08.58-.11.9-.11.77,0,1.5.22,2.18.66h0ZM539.61,11.16c-.26-.16-.44-.42-.55-.76-.21-.67-.47-1.25-.77-1.74-.3-.49-.72-.93-1.26-1.31-.06-.04-.19-.13-.39-.26s-.29-.25-.29-.36c0-.13.1-.2.29-.2.28,0,.83.14,1.66.41.83.27,1.59.67,2.28,1.2.69.53,1.03,1.19,1.03,2,0,.41-.12.72-.37.94-.25.22-.53.32-.86.32-.26,0-.52-.08-.77-.24h0ZM543.32,9.02c-.24-.16-.43-.39-.58-.7-.28-.63-.57-1.12-.86-1.49-.29-.37-.73-.75-1.31-1.14-.13-.09-.3-.19-.52-.32s-.32-.25-.32-.36c0-.13.14-.19.42-.19.45,0,1.08.12,1.89.36.81.24,1.53.61,2.16,1.1.63.5.95,1.1.95,1.82,0,.41-.12.71-.36.89-.24.18-.51.28-.81.28-.22,0-.44-.08-.68-.24h0Z" style="fill: #fff;"/>
    <path d="M558.56,13.67c.06-.09.18-.23.34-.44.16-.21.31-.31.44-.31.17,0,.52.26,1.03.8.52.53.84.96.97,1.28.06.13.03.24-.1.32-.32.22-.65.36-.97.42v2.24c.06,1.84.13,3.2.19,4.09,0,.13-.04.24-.13.32-.22.2-.5.37-.86.54s-.73.24-1.11.24h-.16c-.17,0-.26-.09-.26-.26v-1.04h-5.65v5.26c.04,2.68.13,5.17.26,7.47,0,.11-.03.21-.1.29-.19.26-.48.48-.87.66s-.8.28-1.23.28c-.19,0-.37-.06-.52-.19s-.23-.28-.23-.45c.09-1.28.16-2.52.23-3.72.06-1.2.11-2.78.13-4.72v-13.18c-.88.93-1.71,1.68-2.49,2.24-.13.09-.25.08-.36-.03l-.03-.03c-.15-.11-.17-.23-.06-.36.67-.82,1.37-1.88,2.1-3.18.49-.93.97-2,1.44-3.21.46-1.21.77-2.26.92-3.15.04-.2.15-.25.32-.16,2.02.8,3.04,1.34,3.04,1.62,0,.09-.1.16-.29.23l-.58.2c-.39.74-.69,1.28-.9,1.62h5.39l.61-.91c.06-.09.16-.22.27-.39.12-.17.22-.3.31-.39.09-.09.17-.13.26-.13.17,0,.58.28,1.21.83.63.55,1.03.98,1.18,1.28.02.11.01.22-.03.32-.13.24-.38.36-.74.36h-5.91c.56.33.97.68,1.23,1.05.26.38.39.75.39,1.12s-.11.67-.32.91c-.21.24-.48.36-.81.36-.28,0-.56-.1-.84-.29-.06-.07-.12-.17-.16-.33-.09-.45-.24-.94-.47-1.44-.23-.51-.49-.97-.79-1.38h-1.36c-.71,1.1-1.47,2.1-2.29,2.99l2.26,1.1h5.59l.52-.75h0ZM557.95,17.63v-2.27h-5.65v2.27h5.65ZM552.3,18.61v2.34h5.65v-2.34h-5.65ZM558.69,33.54c0,.13-.21.29-.63.49-.42.19-.84.29-1.24.29-.15,0-.27-.06-.37-.19-.1-.13-.15-.28-.15-.45.09-.8.15-1.82.19-3.05v-1.85c0-2.03-.1-3.81-.29-5.32v-.06c0-.09.03-.14.08-.16.05-.02.12-.01.21.03l2.32,1.07h5.36l.52-.65c.06-.09.17-.22.32-.41.15-.18.29-.27.42-.27.17,0,.57.24,1.18.71.61.48,1.01.85,1.18,1.14.06.13.03.24-.1.32-.32.24-.67.38-1.03.42v2.6c.06,2.12.13,3.71.19,4.77,0,.11-.03.22-.1.32-.19.2-.49.37-.89.52s-.75.23-1.05.23c-.24,0-.4-.16-.48-.49,0-.04.02-.15.06-.32l.06-.32v-.58h-5.78v1.23h0ZM564.47,27.83v-2.6h-5.78v2.6h5.78ZM558.69,28.73v2.66h5.78v-2.66h-5.78ZM568.41,10.33c.56.3.97.64,1.24,1.02.27.38.4.75.4,1.12s-.11.68-.34.94c-.23.26-.51.39-.86.39-.26,0-.52-.1-.77-.29-.09-.04-.15-.14-.19-.29-.09-.45-.26-.95-.52-1.48-.26-.53-.55-1-.87-1.41h-1.58c-1.03,1.36-2.21,2.51-3.52,3.44-.13.09-.25.08-.35-.03l-.03-.03c-.15-.11-.17-.23-.06-.36.34-.45.65-.89.9-1.3.54-.84,1.04-1.86,1.5-3.03.46-1.18.78-2.22.95-3.13.04-.22.16-.27.35-.16,1.94.8,2.91,1.33,2.91,1.59,0,.09-.11.16-.32.23l-.58.16c-.15.28-.33.59-.55.93s-.37.58-.45.73h5.85l.68-.97c.06-.09.16-.22.29-.41s.24-.32.34-.42c.1-.1.19-.15.27-.15.19,0,.65.29,1.36.88.71.58,1.15,1.04,1.32,1.36.02.11.01.21-.03.29-.13.26-.38.39-.74.39h-6.59ZM565.5,22.34c0,.11-.22.26-.66.45-.44.2-.89.29-1.34.29-.15,0-.27-.07-.36-.2s-.13-.28-.13-.45c.06-.56.11-1.15.13-1.75,0-.35.01-.63.03-.84v-1.65c0-1.69-.09-3.26-.26-4.71v-.07c0-.09.02-.14.06-.16.04-.02.11-.01.19.03l2.49,1.14h5.91l.35-.68c.06-.09.13-.19.21-.31.08-.12.14-.21.19-.28.05-.06.12-.1.21-.1.17,0,.55.26,1.15.78s.96.94,1.11,1.27c.04.11.01.22-.1.32-.37.22-.71.36-1.03.42v16.94c0,.97-.2,1.69-.61,2.16s-1.21.74-2.39.83h-.06c-.13,0-.19-.08-.19-.23-.02-.54-.17-.97-.45-1.3-.37-.39-1.01-.69-1.94-.91-.15-.02-.23-.11-.23-.26,0-.11.06-.16.19-.16l1.03.03c.77.04,1.35.07,1.71.07.21,0,.37-.03.45-.1.09-.06.13-.18.13-.36v-10.68h-5.81v.45h0ZM571.32,17.63v-2.27h-5.81v2.27h5.81ZM565.5,18.61v2.34h5.81v-2.34h-5.81Z" style="fill: #fff;"/>
    <path d="M601.83,12.18c.06-.09.16-.21.27-.36.12-.15.22-.26.31-.34.09-.08.17-.11.26-.11.17,0,.6.29,1.27.86.68.57,1.1,1.02,1.28,1.35.06.11.04.22-.06.32-.26.24-.61.4-1.07.49v3.51c.06,2.92.14,5.14.23,6.65,0,.13-.04.24-.13.33-.22.22-.56.42-1.02.6-.46.18-.88.28-1.24.28h-.13c-.17,0-.26-.09-.26-.26v-1.07h-6.56v3.93h8.2l.81-1.14c.11-.13.24-.3.4-.52.16-.22.29-.38.39-.49.1-.11.19-.16.27-.16.19,0,.71.35,1.55,1.04.84.69,1.35,1.2,1.52,1.53.06.11.06.22,0,.33-.13.24-.39.36-.77.36h-12.37v1.95l.03,1.17c.02.89.06,1.67.13,2.34,0,.13-.03.23-.1.29-.17.22-.45.41-.84.58-.39.17-.84.26-1.36.26-.17,0-.31-.06-.42-.19-.11-.13-.16-.28-.16-.45.09-1,.15-2.24.19-3.73v-2.21h-7.75c-1.38.02-2.92.16-4.62.42h-.1c-.09,0-.16-.05-.23-.16l-.58-1.14s-.03-.07-.03-.13c0-.11.08-.16.23-.16,1.18.11,2.5.18,3.94.23h9.14v-3.93h-6.56v.81c0,.15-.23.34-.69.55-.46.22-.93.32-1.4.32-.19,0-.35-.06-.47-.19-.12-.13-.18-.28-.18-.45.09-1.1.16-2.62.23-4.54v-2.63c0-2.55-.12-4.65-.35-6.3v-.06c0-.15.09-.2.26-.13l2.81,1.2h11.04c.34-.5.58-.86.71-1.1.52-.84,1.03-1.84,1.55-2.99.52-1.15.9-2.16,1.16-3.05.02-.17.14-.23.35-.16,2.09,1.08,3.13,1.76,3.13,2.05,0,.11-.1.18-.29.23l-.61.13c-1.66,2.01-3.37,3.65-5.13,4.9h3.23l.58-.81h0ZM583.2,6.44c.13-.09.25-.1.36-.03,1.61.45,2.8,1.07,3.57,1.85.76.78,1.15,1.55,1.15,2.31,0,.43-.11.78-.34,1.05-.23.27-.51.41-.86.41-.24,0-.51-.09-.81-.26-.09-.04-.15-.13-.19-.26-.17-.76-.53-1.56-1.07-2.4-.54-.84-1.13-1.62-1.78-2.34-.13-.13-.14-.24-.03-.33h0ZM592.47,18.19v-4.22h-6.56v4.22h6.56ZM585.91,19.09v4.38h6.56v-4.38h-6.56ZM590.56,5.98c.09-.07.2-.08.35-.03,1.42.56,2.47,1.23,3.15,2,.68.77,1.02,1.52,1.02,2.26,0,.45-.12.83-.35,1.12-.24.29-.54.44-.9.44-.32,0-.63-.11-.94-.32-.06-.07-.12-.17-.16-.33-.09-.76-.33-1.57-.74-2.45-.41-.88-.88-1.65-1.42-2.32-.13-.15-.13-.27,0-.36h0ZM601.54,18.19v-4.22h-6.56v4.22h6.56ZM594.99,19.09v4.38h6.56v-4.38h-6.56Z" style="fill: #fff;"/>
    <path d="M617.49,32.83c-.41-.39-.72-.84-.94-1.36-.84-2.12-1.26-4.7-1.26-7.72,0-1.43.11-2.7.32-3.81.22-1.11.51-2.3.87-3.55.24-.84.41-1.51.52-2s.16-.97.16-1.44-.08-.91-.24-1.38-.38-.84-.66-1.12c-.04-.04-.11-.11-.19-.21-.09-.1-.13-.19-.13-.27s.06-.13.19-.13.3.05.52.16c.86.43,1.56.98,2.1,1.64.54.66.81,1.52.81,2.58,0,.52-.1,1.05-.29,1.59-.19.54-.48,1.17-.87,1.88-.21.43-.43.89-.65,1.38-.22.49-.38.95-.48,1.38-.21.78-.32,1.61-.32,2.5,0,.54.05,1.04.16,1.51.11.47.25.7.42.7.09,0,.19-.09.31-.28.12-.18.2-.31.24-.37l1.78-3.67c.15-.24.27-.36.36-.36.06,0,.1.04.1.13l-.1.39c-.32.86-.66,1.93-1.02,3.2-.36,1.27-.53,2.3-.53,3.1,0,.56.05,1.12.16,1.69.11.56.26,1.25.45,2.08.19.74.29,1.19.29,1.36,0,.33-.09.57-.27.75-.18.17-.4.26-.66.26-.34,0-.72-.19-1.13-.58h0ZM626.81,31.22c-1.26-.53-2.16-1.5-2.7-2.91-.15-.37-.23-.62-.23-.75,0-.09.04-.13.13-.13.06,0,.15.04.26.13.11.09.19.15.26.19.84.67,1.81,1.14,2.91,1.4.52.13,1.25.19,2.2.19,1.03,0,2.38-.12,4.04-.36.82-.09,1.26-.13,1.32-.13.58,0,1.04.15,1.39.45s.52.64.52,1.01c0,.69-.52,1.15-1.57,1.36-1.04.22-2.37.32-3.99.32-1.77,0-3.28-.26-4.54-.79h0ZM627.5,14.78c-.69-.24-1.28-.56-1.78-.96-.5-.4-.84-.8-1.03-1.18-.09-.17-.13-.31-.13-.42,0-.09.03-.13.1-.13.04,0,.15.05.32.16.17.11.32.2.45.26.73.3,1.56.45,2.49.45.6,0,1.39-.07,2.36-.2.97-.13,1.8-.28,2.49-.45.32-.11.59-.16.81-.16.49,0,.94.14,1.32.41.39.27.58.59.58.96,0,.58-.55,1.01-1.65,1.28-1.1.27-2.26.41-3.49.41-1.12,0-2.07-.14-2.84-.42h0Z" style="fill: #fff;"/>
  </g>
  <g>
    <path d="M114.97,79.36c-.45.07-.8-.02-1.04-.26s-.35-.53-.32-.88.18-.65.49-.91c.76-.67,1.39-1.5,1.88-2.49.5-.99.82-2.18.97-3.59.22-.26.44-.29.68-.1.11.54.17,1.06.2,1.56h14.49c.24-.41.51-.93.83-1.54.31-.62.61-1.24.89-1.87.28-.63.48-1.16.59-1.59s.16-.75.15-.96c-.01-.21.03-.35.11-.44.07-.04.18-.03.36.03.19.09.47.23.83.44.36.21.71.42,1.07.63s.64.39.86.52c.15.11.21.26.16.45-.09.19-.24.27-.46.23-.28-.04-.5-.05-.65-.03-.15.02-.31.14-.49.36-.39.54-.89,1.16-1.5,1.87-.61.7-1.18,1.34-1.72,1.9h4.97c.15,0,.27-.04.36-.13.11-.11.3-.26.57-.45.27-.19.48-.35.63-.45.24-.2.45-.2.65,0,.17.15.42.38.73.7.31.31.63.63.94.94.31.31.56.57.73.76.2.22.21.43.03.65-.15.22-.41.27-.78.16-.41-.11-.75-.13-1.01-.08-.26.06-.54.18-.85.37-.24.15-.56.37-.97.65-.41.28-.81.55-1.19.81s-.67.45-.86.58c-.35,0-.52-.14-.52-.42.15-.26.34-.58.57-.96.23-.38.46-.77.7-1.15.24-.39.42-.71.55-.98h-20.76c-.02,1.54-.29,2.83-.81,3.88-.52,1.05-1.21,1.64-2.08,1.77ZM113.9,92.72c-.28-.17-.34-.4-.16-.68.52-.11,1.27-.3,2.24-.57s2.09-.65,3.35-1.14c1.26-.49,2.55-1.09,3.88-1.82,1.33-.73,2.62-1.61,3.85-2.65-.85-1-1.6-2.14-2.26-3.43-.66-1.29-1.16-2.77-1.51-4.43h-2.63c-.71.02-1.29.08-1.72.16l-.29-1.4c.56.13,1.23.22,2.01.26h11.6c.15,0,.27-.04.36-.13.11-.11.28-.26.5-.47.23-.21.42-.36.57-.47.11-.11.21-.16.29-.16s.21.05.36.16c.15.11.36.28.62.52.26.24.52.47.78.68s.44.38.55.49c.17.15.23.31.18.47-.05.16-.18.27-.37.31l-.81.19c-.15.02-.25.07-.31.15s-.12.2-.21.37c-.65,1.47-1.42,2.79-2.31,3.96-.89,1.17-1.85,2.21-2.89,3.12,1.13.84,2.31,1.51,3.54,1.98,1.23.48,2.45.83,3.64,1.04,1.19.22,2.3.36,3.31.42,1.02.06,1.86.11,2.53.13h.49c-.56.33-1.05.75-1.45,1.28-.4.53-.69,1-.86,1.41-.52-.09-1.24-.22-2.16-.41-.92-.18-1.96-.46-3.12-.83-1.16-.37-2.35-.88-3.57-1.54-1.22-.66-2.4-1.5-3.53-2.52-1.63,1.24-3.32,2.23-5.09,2.99-1.77.76-3.47,1.33-5.1,1.71-1.64.38-3.07.65-4.31.83ZM116.66,66.92c-.11-.11-.16-.22-.16-.34s.04-.22.13-.31c.95-.06,2.08-.16,3.4-.28,1.31-.12,2.71-.25,4.21-.4,1.5-.15,2.99-.34,4.48-.55,1.49-.22,2.9-.45,4.21-.7,1.31-.25,2.43-.52,3.36-.83.32-.11.56-.23.71-.37.15-.14.26-.22.32-.24.11-.04.2-.01.26.1.11.13.31.35.6.65.29.3.59.62.89.94.3.32.52.57.65.75.09.09.12.18.1.28-.02.1-.07.18-.13.24-.17.17-.37.17-.58,0-.28-.19-.5-.31-.67-.34-.16-.03-.42-.03-.76.02-1.91.28-3.86.51-5.87.68-2,.17-3.95.31-5.85.42-1.9.11-3.65.18-5.25.23-1.6.04-2.96.07-4.06.07ZM122.38,72.47c-.15,0-.32-.04-.5-.13-.18-.09-.33-.34-.44-.78-.13-.63-.34-1.27-.62-1.92-.28-.65-.66-1.27-1.14-1.85,0-.32.16-.49.49-.49.43.24.88.52,1.33.84.46.33.86.69,1.22,1.09s.58.85.67,1.35c.11.52.05.96-.16,1.32-.22.36-.5.55-.84.57ZM128.1,84.92c.95-.91,1.82-1.94,2.6-3.09.78-1.15,1.4-2.43,1.85-3.83h-8.29c.41,1.52.95,2.84,1.61,3.98.66,1.14,1.4,2.12,2.23,2.94ZM128.75,72.47c-.15,0-.32-.05-.5-.15-.18-.1-.31-.36-.37-.8-.13-.69-.36-1.39-.68-2.08-.32-.69-.73-1.34-1.2-1.95.04-.32.22-.47.52-.42.39.22.83.5,1.32.86.49.36.93.76,1.32,1.22.39.46.62.95.68,1.5.09.52.02.95-.21,1.28-.23.33-.51.51-.86.53Z" style="fill: #fff;"/>
    <path d="M154.23,88.4c-.22.15-.5.23-.86.24-.36.01-.68-.09-.96-.31-.8-.6-1.44-1.55-1.9-2.83-.47-1.28-.7-2.97-.7-5.07,0-1.17.1-2.24.29-3.2.2-.96.42-1.89.67-2.78.25-.89.47-1.77.67-2.65.2-.88.29-1.81.29-2.81,0-.45-.08-.89-.23-1.3-.15-.41-.31-.75-.49-1.01,0-.15.04-.28.13-.37.09-.1.2-.14.32-.11.63.35,1.18.86,1.64,1.54.47.68.7,1.43.7,2.26,0,.69-.12,1.36-.36,2s-.51,1.33-.81,2.08c-.3.75-.57,1.63-.81,2.65-.24,1.02-.36,2.25-.36,3.71,0,1.62.16,2.75.49,3.38.11.22.24.3.39.26s.26-.16.33-.36c.22-.65.47-1.38.75-2.19.28-.81.56-1.6.83-2.37s.49-1.41.67-1.93c.3-.15.51-.09.62.2-.09.39-.22.91-.39,1.56-.17.65-.35,1.34-.52,2.06-.17.73-.32,1.43-.44,2.11-.12.68-.19,1.25-.21,1.71-.02.39,0,.68.08.88.08.2.24.51.5.94.17.32.22.65.13.98-.09.32-.24.57-.45.75ZM161.34,91.71c-.17-.04-.3-.14-.39-.29-.09-.15-.1-.3-.03-.45,1.19-.8,2.2-1.72,3.02-2.76.82-1.04,1.45-2.26,1.88-3.67s.65-3.08.65-5c0-.93-.01-1.76-.03-2.49-.02-.73-.05-1.39-.1-2-.54.07-1.09.11-1.64.13-.55.02-1.09.03-1.61.03-1.19,0-2.18-.29-2.96-.86-.78-.57-1.27-1.39-1.46-2.45.07-.11.16-.18.29-.21.13-.03.24-.02.32.05.22.56.53.98.94,1.24s.86.42,1.33.49c.48.07.92.1,1.33.1.52,0,1.07-.02,1.64-.07.57-.04,1.14-.1,1.71-.16-.07-.87-.1-1.71-.11-2.52-.01-.81.04-1.75.15-2.81.04-.35.05-.6.02-.76-.03-.16-.14-.29-.31-.37-.11-.06-.25-.1-.44-.11-.18-.01-.34-.02-.47-.02h-.13c-.24-.24-.24-.45,0-.65.35-.11.77-.17,1.28-.18.51-.01.94.04,1.28.15.46.11.85.35,1.17.71s.37.76.13,1.17c-.3.54-.48,1.25-.54,2.11-.05.87-.05,1.83.02,2.89.43-.11.83-.22,1.19-.34.36-.12.64-.25.86-.41.13-.09.18-.18.16-.29-.02-.11-.09-.2-.19-.29-.13-.09-.3-.19-.52-.32-.22-.13-.43-.26-.65-.39-.04-.32.09-.51.39-.55.28.11.67.28,1.17.5.5.23.89.35,1.17.37.43.04.74.11.93.21.18.1.35.24.5.44.56.76.32,1.34-.71,1.75-.67.26-1.35.48-2.05.67-.69.18-1.4.34-2.11.47.06.8.13,1.61.19,2.42s.1,1.62.1,2.42c0,1.82-.22,3.39-.65,4.73-.43,1.33-1.01,2.47-1.74,3.4s-1.52,1.72-2.39,2.36c-.87.64-1.73,1.19-2.6,1.64Z" style="fill: #fff;"/>
    <path d="M190.59,91.49c-.15-.11-.23-.25-.24-.42-.01-.17.04-.31.15-.42,1.17-.13,2.3-.37,3.4-.71,1.09-.35,2.07-.8,2.94-1.35.87-.55,1.55-1.19,2.06-1.9.51-.71.76-1.52.76-2.41,0-.78-.16-1.49-.47-2.14-.31-.65-.76-1.17-1.35-1.58-.58-.4-1.27-.6-2.05-.6-.91,0-1.72.24-2.44.71-.71.48-1.31,1.02-1.79,1.62-.48.61-.83,1.13-1.07,1.56-.19.35-.51.74-.96,1.17-.44.43-.98.62-1.61.55-.74-.06-1.32-.35-1.74-.86s-.63-1.4-.63-2.68c0-.54.05-1.14.15-1.79.1-.65.2-1.33.31-2.05.17-1.02.33-2.08.47-3.2.14-1.12.17-2.18.08-3.2-.07-.71.05-1.28.34-1.69s.69-.72,1.19-.93c.5-.2,1.02-.34,1.58-.42.55-.08,1.04-.14,1.48-.18.85-.06,1.44-.29,1.79-.66.35-.38.43-.85.24-1.4-.18-.55-.67-1.11-1.45-1.67-.04-.32.09-.51.39-.55.89.28,1.75.75,2.58,1.4.83.65,1.39,1.35,1.67,2.11.17.41.2.83.08,1.27-.12.43-.4.77-.83,1.01-.41.22-.76.3-1.06.24-.29-.05-.61-.16-.96-.31-.28-.11-.6-.22-.96-.34s-.8-.18-1.32-.18c-1.13,0-1.97.17-2.52.5-.55.34-.75.92-.6,1.74.17,1.06.2,2.15.07,3.27-.13,1.12-.27,2.15-.42,3.1-.09.5-.16.97-.23,1.41-.07.44-.1.84-.1,1.19,0,.91.21,1.45.63,1.61.42.16.96,0,1.61-.47.39-.28.88-.67,1.48-1.17s1.28-.95,2.05-1.36c.77-.41,1.6-.62,2.49-.62,1.06,0,2.08.23,3.07.68s1.79,1.1,2.42,1.93c.63.83.94,1.82.94,2.97s-.28,2.21-.83,3.04c-.55.84-1.27,1.52-2.16,2.05-.89.53-1.85.95-2.89,1.25-1.04.3-2.07.52-3.09.65-1.02.13-1.91.2-2.66.23Z" style="fill: #fff;"/>
    <path d="M220.16,90.28c-.28,0-.52-.08-.71-.23-.19-.15-.28-.39-.26-.71.02-.63-.03-1.28-.16-1.96-.13-.68-.31-1.36-.55-2.03-.19-.54-.41-1.07-.65-1.59-.24-.52-.48-1.02-.71-1.5-.61.93-1.15,1.8-1.62,2.6-.48.8-.87,1.47-1.17,2.01-.56,1.02-1.15,1.27-1.75.75-.35-.3-.52-.67-.52-1.1s.21-.88.62-1.33c.39-.43.89-1.06,1.49-1.87.61-.81,1.29-1.7,2.05-2.68-.35-.63-.69-1.18-1.02-1.66-.34-.47-.61-.86-.83-1.14-.39-.52-.59-1.06-.59-1.61s.28-1.07.85-1.54c.54-.46,1.27-.9,2.19-1.32.92-.42,1.81-.75,2.68-.99.04-.98.09-1.82.13-2.55.04-.73.1-1.26.16-1.61.11-.74-.01-1.18-.36-1.33-.13-.09-.3-.14-.52-.15-.22-.01-.39,0-.52.02-.22-.24-.23-.45-.03-.65.37-.11.81-.17,1.32-.18.51-.01.94.04,1.28.15.45.11.85.35,1.19.73s.37.76.11,1.15c-.48.74-.85,2.12-1.11,4.16.5.02.91.14,1.23.36.32.22.52.5.58.85,1.04-.85,2.09-1.53,3.15-2.06,1.06-.53,2.12-.8,3.18-.8.93,0,1.7.2,2.31.6.61.4,1.05.93,1.33,1.57.28.65.38,1.37.29,2.14-.07.65-.14,1.4-.21,2.24-.08.85-.15,1.69-.23,2.55-.08.86-.14,1.66-.18,2.42-.04.76-.07,1.39-.07,1.88,0,.85.17,1.42.52,1.72.35.3.89.46,1.62.46,1.41,0,2.56-.28,3.44-.83s1.65-1.21,2.27-1.97c.32-.04.51.09.55.39-.32.63-.84,1.29-1.54,2-.7.7-1.52,1.3-2.44,1.79-.92.49-1.88.73-2.88.73-1.17,0-2.11-.29-2.81-.86-.7-.57-1.06-1.56-1.06-2.97,0-.78.04-1.74.13-2.89.09-1.15.19-2.33.31-3.54.12-1.21.21-2.3.28-3.25.07-.95-.09-1.65-.47-2.09s-.89-.67-1.54-.67c-.89,0-1.8.24-2.75.73-.94.49-1.87,1.14-2.78,1.97s-1.8,1.74-2.66,2.76c0,.35,0,.71-.02,1.11-.01.39-.02.79-.02,1.2,0,1.37.08,2.67.23,3.92.15,1.25.3,2.3.44,3.17.14.87.21,1.44.21,1.72,0,.56-.14,1.01-.41,1.33-.27.33-.61.49-1.02.49ZM216.94,79.69c.37-.47.76-.96,1.17-1.45.41-.49.83-.97,1.27-1.45v-.86c0-.27.01-.55.03-.83-.07-.54-.42-.76-1.07-.65-.39.07-.82.22-1.3.45-.48.24-.87.49-1.17.75-.3.28-.47.54-.49.77-.02.23.07.52.26.89.15.26.34.6.57,1.02.23.42.47.87.73,1.35ZM219.12,84.17c.04.15.1.22.16.2.06-.02.1-.11.1-.26v-2.89c-.02-.26-.03-.5-.03-.73v-1.41c-.28.37-.55.74-.81,1.11s-.52.74-.78,1.1c.32.61.61,1.17.86,1.69.25.52.42.92.5,1.2Z" style="fill: #fff;"/>
    <path d="M258.99,90.54c-1.91.02-3.31-.35-4.21-1.12-.9-.77-1.25-1.73-1.06-2.88.13-.76.52-1.35,1.17-1.79.65-.43,1.44-.59,2.37-.49,1.11.11,1.99.51,2.65,1.22.66.7,1.16,1.66,1.51,2.88,1.08-.37,2-1,2.76-1.89.76-.89,1.13-2.03,1.1-3.44-.02-1.45-.47-2.65-1.35-3.61-.88-.95-2.15-1.41-3.82-1.37-1.17.02-2.25.28-3.23.76-.99.49-1.89,1.13-2.7,1.93-.81.8-1.55,1.67-2.23,2.6-.67.93-1.28,1.85-1.82,2.76-.3.52-.67.79-1.09.81-.42.02-.71-.15-.86-.52-.19-.5-.26-.98-.19-1.45s.3-.87.71-1.22c.56-.52,1.21-1.19,1.93-2.01s1.48-1.74,2.28-2.75c.79-1.01,1.58-2.04,2.36-3.09.78-1.05,1.51-2.05,2.19-3.01.68-.95,1.27-1.79,1.75-2.52.49-.73.84-1.26,1.06-1.61.28-.48.38-.82.31-1.04-.08-.22-.32-.28-.73-.19-1.23.24-2.52.89-3.87,1.95-.37.28-.68.56-.93.84-.25.28-.66.43-1.22.46-.37,0-.73-.18-1.09-.54-.36-.36-.66-.77-.91-1.24-.25-.46-.43-.84-.54-1.12.09-.33.28-.44.58-.36.3.35.58.59.85.73.26.14.63.2,1.1.18.37,0,.88-.15,1.53-.44.65-.29,1.39-.62,2.23-.99.83-.37,1.71-.66,2.62-.88.67-.17,1.15-.26,1.45-.26s.61.11.96.32c1.75,1.04,1.88,1.98.39,2.83-.3.17-.74.56-1.32,1.17-.57.61-1.2,1.32-1.87,2.13-.67.81-1.35,1.64-2.03,2.49-.68.84-1.29,1.62-1.84,2.32-.54.7-.95,1.23-1.23,1.58.74-.56,1.58-1.05,2.52-1.45.94-.4,1.9-.61,2.88-.63,1.6-.02,2.97.25,4.11.81,1.14.56,2.01,1.33,2.63,2.29s.94,2.04.96,3.23c.02,1.6-.36,2.96-1.14,4.08-.78,1.12-1.84,1.97-3.17,2.57-1.33.6-2.84.91-4.53.93ZM259.06,88.76h.29c-.2-.69-.46-1.27-.78-1.72s-.79-.76-1.4-.91c-.41-.11-.78-.11-1.1-.02s-.53.33-.62.7c-.06.26-.02.55.13.86.15.31.5.58,1.06.8.55.22,1.36.31,2.42.29Z" style="fill: #fff;"/>
    <path d="M280.41,89.92c-.17-.04-.31-.14-.41-.29-.1-.15-.12-.3-.08-.45,1.17-1.02,2.43-2.26,3.79-3.74,1.35-1.47,2.66-3.09,3.92-4.84,1.26-1.76,2.33-3.53,3.22-5.33-1.26.11-2.43.24-3.53.39-1.09.15-2.09.33-2.97.52-.52.09-.95.22-1.3.39-.35.17-.79.27-1.33.29-.37.02-.76-.14-1.17-.47-.41-.33-.78-.73-1.09-1.17-.31-.44-.53-.82-.63-1.12.11-.35.3-.46.58-.33.48.48.97.74,1.5.78.52.04,1.23.02,2.14-.07.09-.02.15-.03.2-.03.54-.04,1.31-.11,2.31-.19,1-.09,2.09-.18,3.28-.28,1.19-.1,2.35-.19,3.48-.28-.02-.95-.04-1.81-.07-2.57-.02-.76-.03-1.34-.03-1.75,0-.39-.04-.74-.13-1.04-.09-.3-.23-.53-.42-.68-.09-.06-.23-.14-.42-.23-.19-.09-.41-.15-.65-.19-.19-.28-.16-.5.1-.65.48,0,1.07.05,1.79.16.71.11,1.27.27,1.66.49.28.15.48.36.58.62.11.26.07.51-.13.75-.22.22-.35.45-.41.7-.05.25-.08.57-.08.96-.04,1.04-.04,2.13,0,3.28.67-.04,1.28-.09,1.82-.13.54-.04.97-.08,1.3-.1.43-.02.78-.08,1.04-.16s.61-.25,1.04-.49c.41-.26.95-.22,1.62.13.28.13.61.33.99.6s.64.48.8.63c.26.28.35.53.26.75-.09.22-.37.31-.85.29-.3-.02-.69-.04-1.17-.06-.48-.02-.96-.05-1.45-.08-.49-.03-.9-.05-1.25-.05-.69,0-1.38.01-2.06.03-.68.02-1.37.05-2.06.1.06,1.3.15,2.6.24,3.9.1,1.3.2,2.5.31,3.61.11,1.11.21,2.05.29,2.84.09.79.14,1.34.16,1.64.06.43-.02.88-.26,1.33s-.55.84-.93,1.14c-.38.3-.78.45-1.19.45-.54,0-.92-.35-1.14-1.04-.11-.37-.35-.73-.73-1.07-.38-.35-.81-.66-1.28-.94-.48-.28-.92-.51-1.33-.68-.11-.3-.01-.51.29-.62.17.07.47.17.89.32.42.15.87.3,1.33.46.47.15.82.26,1.06.32.61.17.91,0,.91-.52,0-.26-.02-.86-.07-1.79-.04-.93-.09-2.05-.13-3.36-.04-1.31-.1-2.65-.16-4.01-.89,1.54-1.91,3-3.05,4.4-1.15,1.4-2.31,2.68-3.48,3.84-1.17,1.16-2.24,2.14-3.22,2.96-.98.81-1.72,1.39-2.24,1.74Z" style="fill: #fff;"/>
    <path d="M316.22,88.07c-.32-.32-.68-.73-1.06-1.2-.38-.48-.72-.93-1.02-1.36-.28-.39-.48-.73-.59-1.01.04-.15.12-.26.23-.33.11-.06.22-.07.32-.03.24.28.52.51.84.68s.73.26,1.2.26c.59,0,1.12-.11,1.59-.34.48-.23.93-.45,1.36-.66.89-.45,1.92-1.08,3.1-1.88,1.18-.8,2.41-1.68,3.69-2.65,1.28-.96,2.5-1.93,3.67-2.91,1.17-.98,2.21-1.88,3.12-2.73.91-.85,1.57-1.53,1.98-2.05.2-.02.36.02.49.13.13.11.19.25.19.42-.3.52-.81,1.19-1.51,2.01s-1.54,1.73-2.52,2.73c-.97,1-2.02,2.01-3.14,3.04-1.12,1.03-2.25,2-3.41,2.91-1.16.91-2.27,1.7-3.33,2.37-.82.52-1.53.99-2.11,1.4-.58.41-.96.8-1.14,1.17-.41.93-1.07.94-1.98.03ZM319.95,75.24c-.22.15-.47.2-.75.15-.28-.05-.55-.29-.81-.7-.43-.74-1.04-1.47-1.82-2.2-.78-.73-1.64-1.28-2.57-1.67-.13-.28-.07-.5.19-.65.74.02,1.53.14,2.39.36.86.22,1.65.51,2.37.89.73.38,1.23.83,1.51,1.35.26.48.33.95.21,1.41-.12.47-.36.82-.73,1.06Z" style="fill: #fff;"/>
    <path d="M348.26,90.8c-.41-.15-.54-.41-.39-.78,1.95-1.02,3.79-2.25,5.52-3.69,1.73-1.44,3.29-3.03,4.66-4.76,1.38-1.73,2.49-3.54,3.33-5.43.13-.3.15-.52.07-.67-.09-.14-.32-.21-.71-.21-.24,0-.64.02-1.22.06-.57.04-1.25.11-2.01.2-.77.09-1.56.18-2.36.29-.8.11-1.54.23-2.23.36-.68.13-1.23.26-1.64.39-.52.15-.98.31-1.38.47s-.79.24-1.15.24c-.39,0-.77-.18-1.14-.55s-.69-.79-.96-1.27-.46-.87-.57-1.17c.13-.32.33-.43.58-.32.41.41.87.66,1.38.75s1.25.09,2.23,0c.46-.04,1.11-.1,1.95-.18.85-.08,1.75-.17,2.73-.28.98-.11,1.91-.21,2.79-.31.89-.1,1.6-.18,2.14-.24.35-.04.61-.1.8-.16.18-.07.36-.17.53-.32.28-.24.52-.36.71-.37.2-.01.39.06.58.21.24.13.53.35.88.65s.68.61,1.01.93c.33.31.55.57.68.77.22.28.29.53.23.75-.07.22-.27.38-.62.49-.28.09-.54.27-.78.55-.24.28-.44.58-.62.91-1.02,1.82-2.29,3.53-3.8,5.12s-3.23,3.03-5.13,4.32c-1.91,1.29-3.94,2.38-6.11,3.26ZM351.34,70.4c-.39,0-.76-.16-1.12-.49-.36-.33-.67-.7-.93-1.12-.26-.42-.46-.8-.58-1.12.06-.3.26-.41.58-.32.37.45.77.71,1.2.78.43.07,1.03.09,1.79.07.09,0,.17,0,.26-.02.09-.01.18-.02.29-.02.45-.02,1.09-.07,1.92-.16.82-.09,1.66-.2,2.5-.36.85-.15,1.54-.31,2.08-.49.02,0,.04-.01.07-.03.15-.04.3-.08.44-.1.14-.02.33.01.57.1.87.3,1.43.63,1.69.99.26.36.32.65.18.88-.14.23-.41.33-.8.31-.82-.06-1.77-.06-2.83,0-1.06.07-2.07.16-3.04.28-.96.12-1.73.23-2.29.34-.52.09-.89.19-1.11.31-.22.12-.51.18-.88.18Z" style="fill: #fff;"/>
    <path d="M389.53,90.9c-.41-.11-.76-.31-1.04-.62-.28-.3-.41-.66-.39-1.07,0-.17.02-.59.07-1.27.04-.67.09-1.48.13-2.44.04-.95.09-1.98.13-3.07.04-1.09.08-2.17.11-3.23.03-1.06.05-2,.05-2.83,0-.19-.01-.37-.03-.52-.02-.15-.05-.27-.1-.36-1.28,1.21-2.59,2.35-3.93,3.4-1.34,1.05-2.6,1.98-3.77,2.78-1.17.8-2.16,1.44-2.96,1.92-.41-.11-.57-.36-.49-.75.61-.41,1.38-1,2.32-1.77.94-.77,1.95-1.66,3.04-2.67,1.08-1.01,2.17-2.08,3.27-3.22s2.11-2.29,3.06-3.44c.94-1.16,1.73-2.27,2.36-3.33.15-.24.25-.42.29-.55s.04-.3,0-.52c-.02-.17-.1-.32-.23-.44-.13-.12-.27-.21-.42-.28-.11-.28-.03-.48.23-.58.39.02.83.14,1.32.36.49.22.94.48,1.36.78.42.3.72.62.89.94.11.19.13.37.07.54s-.18.26-.36.31c-.2.04-.36.1-.49.16-.13.07-.25.18-.36.36-.54.87-1.18,1.72-1.92,2.57-.74.85-1.52,1.68-2.34,2.5.24.06.46.14.67.23.21.09.38.18.54.29.17.09.25.23.24.42-.01.2-.07.38-.18.55-.15.26-.23.55-.23.88,0,.98,0,2.02.02,3.14.01,1.12.03,2.22.05,3.31.02,1.09.04,2.11.07,3.05.02.94.04,1.73.05,2.36.01.63.02,1.03.02,1.2,0,.41-.1.69-.31.83-.21.14-.47.17-.8.08Z" style="fill: #fff;"/>
    <path d="M413.7,88.07c-.33-.32-.68-.73-1.06-1.2-.38-.48-.72-.93-1.02-1.36-.28-.39-.48-.73-.58-1.01.04-.15.12-.26.23-.33.11-.06.22-.07.32-.03.24.28.52.51.85.68.33.17.73.26,1.2.26.58,0,1.12-.11,1.59-.34.48-.23.93-.45,1.36-.66.89-.45,1.92-1.08,3.1-1.88,1.18-.8,2.41-1.68,3.69-2.65,1.28-.96,2.5-1.93,3.67-2.91,1.17-.98,2.21-1.88,3.12-2.73.91-.85,1.57-1.53,1.98-2.05.19-.02.36.02.49.13.13.11.2.25.2.42-.3.52-.81,1.19-1.51,2.01-.7.82-1.54,1.73-2.52,2.73-.97,1-2.02,2.01-3.14,3.04-1.12,1.03-2.25,2-3.41,2.91-1.16.91-2.27,1.7-3.33,2.37-.82.52-1.53.99-2.11,1.4-.58.41-.96.8-1.14,1.17-.41.93-1.07.94-1.98.03ZM417.44,75.24c-.22.15-.47.2-.75.15-.28-.05-.55-.29-.81-.7-.43-.74-1.04-1.47-1.82-2.2-.78-.73-1.64-1.28-2.57-1.67-.13-.28-.07-.5.2-.65.74.02,1.53.14,2.39.36.86.22,1.65.51,2.37.89.73.38,1.23.83,1.51,1.35.26.48.33.95.21,1.41-.12.47-.36.82-.73,1.06Z" style="fill: #fff;"/>
    <path d="M445.45,92.72c-.45,0-.68-.17-.68-.52,0-.09.01-.46.03-1.12.02-.66.05-1.49.08-2.5.03-1.01.06-2.09.08-3.25.02-1.16.03-2.29.03-3.39v-2.83c-.87,1.8-1.88,3.51-3.04,5.14-1.16,1.62-2.28,2.96-3.36,4-.32,0-.49-.15-.49-.46.71-.93,1.47-2.08,2.28-3.46.8-1.37,1.56-2.84,2.28-4.39.71-1.55,1.28-3.04,1.69-4.47h-3.8c-.74.02-1.32.08-1.75.16l-.26-1.4c.54.13,1.2.22,1.98.26h4.48v-9.23c0-.78-.08-1.29-.23-1.53-.09-.13-.09-.24,0-.33.09-.09.19-.12.32-.1.35.06.83.17,1.45.31.62.14,1.1.27,1.45.37.22.06.3.19.26.39-.02.2-.14.31-.36.36-.22.02-.44.06-.68.13-.24.06-.36.26-.36.58v9.03h2.53c.13,0,.25-.05.36-.16.07-.06.18-.2.36-.41.17-.2.35-.4.52-.6.17-.19.29-.32.36-.39.15-.15.35-.16.58-.03.13.09.32.25.57.49.25.24.5.47.76.7.26.23.43.4.52.5.19.22.26.42.21.6-.06.18-.19.28-.41.28h-6.37v1.17c.84.24,1.76.6,2.75,1.07.99.48,1.76,1.08,2.32,1.82.37.48.51.97.44,1.46-.08.5-.29.84-.63,1.01-.43.24-.78.09-1.04-.45-.43-.85-.99-1.61-1.66-2.31-.67-.69-1.4-1.28-2.18-1.75v4.45c0,1.17,0,2.32.02,3.44.01,1.13.03,2.15.05,3.09.02.93.04,1.7.05,2.31.01.61.02.98.02,1.11,0,.17-.16.36-.49.55-.33.19-.67.29-1.04.29ZM442.92,73.64c-.22.04-.4.02-.55-.08-.15-.1-.27-.34-.36-.73-.22-1.08-.57-2.15-1.07-3.2-.5-1.05-1.08-1.99-1.76-2.81,0-.15.05-.27.15-.36.1-.09.21-.12.34-.1.98.67,1.84,1.42,2.58,2.24.75.82,1.26,1.71,1.54,2.66.17.61.18,1.13.02,1.56-.16.43-.46.7-.89.81ZM447.86,73.74c-.15.02-.28,0-.37-.08-.1-.08-.16-.18-.18-.31.17-.3.38-.72.62-1.25.24-.53.48-1.11.73-1.72.25-.62.47-1.22.67-1.8s.34-1.07.42-1.46c.04-.24.07-.44.07-.6s-.01-.3-.03-.41c-.02-.19,0-.31.07-.36.09-.07.2-.07.33,0,.22.09.5.22.86.39.36.17.73.35,1.1.52.38.17.68.32.89.45.2.09.25.23.16.42-.07.22-.21.3-.42.26-.2-.04-.39-.05-.58-.03-.2.02-.36.15-.49.39-.39.74-.82,1.47-1.3,2.2-.48.73-.94,1.39-1.4,1.98-.45.6-.83,1.07-1.14,1.41ZM461.67,92.72c-.37,0-.55-.2-.55-.58,0-.09.01-.46.03-1.12.02-.66.04-1.5.07-2.52.02-1.02.04-2.11.07-3.28.02-1.17.03-2.3.03-3.38l-9.68,2.24c-.67.19-1.22.39-1.66.58l-.58-1.33c.56.02,1.23-.04,2.01-.2l9.91-2.31v-15.57c0-.39-.02-.71-.07-.96-.04-.25-.1-.44-.16-.57-.09-.13-.09-.24,0-.33.07-.09.17-.12.33-.1.22.04.51.11.89.19.38.09.76.17,1.15.26.39.09.7.16.94.23.17.06.26.19.26.39-.02.2-.14.31-.36.36-.24.02-.47.06-.7.13-.23.06-.34.26-.34.58v14.91l1.04-.23c.13-.04.23-.12.29-.23.07-.09.16-.24.28-.47.12-.23.24-.46.36-.7s.2-.39.24-.45c.15-.2.35-.25.58-.16.13.06.35.18.65.34s.61.32.93.49c.31.16.52.29.63.37.24.15.35.33.32.54-.02.21-.14.33-.36.37l-4.97,1.14c0,1.17.01,2.34.03,3.51.02,1.17.04,2.26.07,3.25.02,1,.04,1.82.06,2.47.02.65.03,1.04.03,1.17,0,.17-.17.37-.52.6-.35.23-.77.34-1.27.34ZM458.45,79.59c-.22.09-.42.1-.6.05s-.33-.22-.44-.5c-.37-1-.84-1.95-1.41-2.86-.57-.91-1.23-1.7-1.97-2.37-.04-.35.09-.52.39-.52,1.02.48,1.93,1.02,2.73,1.64.8.62,1.38,1.26,1.72,1.93.3.54.38,1.08.24,1.61-.14.53-.36.87-.67,1.02ZM459.03,72.05c-.43.24-.77.1-1.01-.42-.41-.97-.93-1.9-1.56-2.78-.63-.88-1.32-1.63-2.08-2.26-.02-.15,0-.28.08-.37s.18-.16.31-.18c1.02.45,1.93.97,2.73,1.56.8.58,1.4,1.2,1.79,1.85.33.52.44,1.05.34,1.58s-.3.87-.6,1.02Z" style="fill: #fff;"/>
    <path d="M473.56,89.47c-.17.13-.32.11-.45-.06-.13-.17-.34-.43-.63-.77-.29-.33-.58-.68-.86-1.04-.28-.36-.51-.64-.68-.86-.09-.13-.1-.24-.03-.32.11-.15.32-.22.63-.21.31.01.79-.05,1.41-.18.39-.11.85-.24,1.36-.39.52-.15,1.07-.31,1.66-.49v-8.74h-2.63c-.71.02-1.29.08-1.72.16l-.29-1.4c.54.13,1.21.22,2.01.26h2.63v-8.16h-2.86c-.71.02-1.29.08-1.72.16l-.26-1.43c.54.15,1.2.25,1.98.29h5.72c.13,0,.25-.05.36-.16.11-.11.28-.29.5-.55.23-.26.38-.43.47-.52.11-.13.21-.19.29-.18.09.01.2.06.32.15.11.09.27.22.49.41s.44.37.67.57c.23.2.38.34.47.42.17.13.24.3.2.52-.04.22-.16.32-.36.32h-4.29v8.16h.85c.15,0,.27-.05.36-.16.11-.11.28-.29.5-.54s.38-.43.47-.54c.17-.17.38-.17.62,0,.11.07.27.2.49.39.22.19.44.38.67.57s.38.32.47.41c.17.15.24.33.19.53-.04.21-.16.31-.36.31h-4.26v8.03c1.13-.41,2.2-.83,3.23-1.27,1.03-.43,1.82-.81,2.39-1.14.33.04.44.24.36.58-.58.39-1.29.83-2.13,1.33-.83.5-1.71,1-2.63,1.51-.92.51-1.83.99-2.73,1.45-.9.46-1.71.85-2.42,1.17-.22.09-.35.19-.41.31-.05.12-.03.32.08.6.11.19.07.36-.13.49ZM480.58,91.45l-.26-1.4c.54.13,1.2.22,1.98.26h7.57v-5.36h-4.78c-.71.02-1.3.08-1.75.16l-.26-1.4c.54.13,1.2.22,1.98.26h4.81v-5.23h-4.19v1.2c0,.15-.14.31-.41.49-.27.17-.64.26-1.12.26-.39,0-.58-.16-.58-.49,0-.13.01-.55.03-1.25.02-.7.04-1.6.07-2.68.02-1.08.04-2.27.06-3.54.02-1.28.03-2.56.03-3.83,0-1.17-.03-2.12-.08-2.86s-.15-1.26-.28-1.56c-.04-.15-.02-.27.07-.36.11-.09.23-.1.36-.03.2.11.55.31,1.06.6.51.29.93.53,1.25.7h9.52c.15,0,.27-.04.36-.13l.91-1.07c.2-.19.41-.19.65,0,.22.15.53.4.94.75s.71.62.91.81c.28.24.23.46-.16.68-.11.04-.23.1-.37.16-.14.06-.29.13-.44.19-.09.04-.15.1-.2.16-.04.06-.07.21-.07.42,0,.89.01,1.85.03,2.89.02,1.04.04,2.07.07,3.1.02,1.03.04,1.98.07,2.84.02.87.04,1.58.07,2.13.02.55.03.88.03.99,0,.22-.15.4-.46.55s-.68.23-1.14.23c-.39,0-.59-.16-.59-.49v-.88h-4.42v5.23h3.57c.13,0,.25-.05.36-.16.07-.06.18-.2.36-.41.17-.21.35-.41.52-.6.17-.19.29-.32.36-.39.15-.15.35-.16.58-.03.13.09.32.25.57.49.25.24.5.47.76.7.26.23.44.4.55.5.17.19.24.39.2.58-.04.19-.18.29-.42.29h-7.41v5.36h4.19c.15,0,.27-.04.36-.13l1.46-1.53c.17-.17.37-.17.59,0,.3.22.68.52,1.12.91.44.39.76.69.96.91.17.17.23.35.18.54s-.17.28-.34.28h-18.03c-.71.02-1.3.08-1.75.16ZM485.68,71.57h4.19v-5.2h-4.19v5.2ZM485.68,77.77h4.19v-5.23h-4.19v5.23ZM491.85,71.57h4.42v-5.2h-4.42v5.2ZM491.85,77.77h4.42v-5.23h-4.42v5.23Z" style="fill: #fff;"/>
    <path d="M510.02,92.69c-.19-.58-.41-1.03-.63-1.33-.23-.3-.53-.53-.91-.7-.38-.16-.91-.3-1.58-.4-.09-.11-.11-.23-.08-.36s.1-.23.21-.29c.45.02.99.06,1.61.11.62.05,1.16.08,1.64.08.35,0,.57-.06.68-.18.11-.12.16-.33.16-.63v-3.31c-.91.28-1.75.54-2.52.78-.77.24-1.4.42-1.9.55-.28.06-.45.17-.5.32-.05.15-.05.37.02.65.07.22-.01.36-.23.42-.17.11-.33.06-.46-.13-.13-.24-.3-.53-.5-.88-.21-.35-.41-.7-.6-1.07-.2-.37-.37-.66-.52-.88-.09-.11-.1-.22-.03-.32.07-.09.26-.11.58-.06.13,0,.27.01.42.03s.33.02.52,0c.54-.04,1.33-.16,2.37-.34,1.04-.18,2.16-.4,3.35-.66v-1.62c0-.78-.08-1.29-.23-1.53-.09-.13-.09-.24,0-.32.09-.09.19-.12.32-.1.15.02.33.06.54.11.21.05.42.1.63.15.24-.28.55-.64.93-1.09.38-.44.71-.84.99-1.19h-3.38c-1.06,1.04-2.19,2-3.4,2.89-1.2.89-2.49,1.73-3.85,2.54-.15-.04-.26-.12-.31-.23s-.07-.22-.05-.32c1.99-1.37,3.91-2.99,5.75-4.87h-2.05c-.71.02-1.29.08-1.72.16l-.26-1.43c.54.15,1.2.25,1.98.29h2.96c.39-.45.78-.92,1.17-1.4.39-.48.77-.97,1.14-1.46h-6.43c-.71.02-1.3.08-1.76.16l-.26-1.43c.54.15,1.2.25,1.98.29h4.26v-4.23h-3.05c-.71.02-1.29.09-1.72.2l-.26-1.43c.54.13,1.2.22,1.98.26h3.05v-3.22c0-.8-.08-1.31-.23-1.53-.09-.13-.09-.25,0-.36.11-.06.22-.09.33-.06.35.06.83.16,1.46.29.63.13,1.13.25,1.5.36.17.07.26.2.26.39-.02.19-.14.31-.36.36-.24.02-.47.07-.7.13-.23.07-.34.26-.34.58v3.06h1.43c.15,0,.27-.04.36-.13.11-.13.23-.27.37-.41.14-.14.27-.26.37-.37.11-.11.2-.16.26-.16s.16.05.29.16c.13.09.28.2.44.33.16.13.32.26.47.39.17-.37.34-.74.5-1.12.16-.38.32-.76.47-1.15.13-.32.2-.6.21-.83.01-.23.02-.42.02-.57,0-.24.03-.38.1-.42.11-.04.23-.03.36.03.2.13.46.3.8.5s.67.41,1.01.62.6.37.8.5c.15.09.2.24.13.46-.09.17-.24.24-.45.19-.3-.07-.54-.07-.7-.02s-.31.22-.44.5c-1.19,2.49-2.47,4.72-3.83,6.7h1.14c.13,0,.25-.05.36-.16.11-.13.28-.32.5-.57.23-.25.38-.42.47-.5.2-.22.4-.23.62-.03.22.15.48.37.78.66.3.29.56.54.78.73.17.17.23.36.18.55-.05.2-.17.29-.34.29h-5.2c-.76,1.02-1.55,1.97-2.37,2.86h2.24c.13,0,.26-.04.39-.13l.49-.49c.11-.11.25-.24.42-.39.22-.19.43-.18.65.03.24.2.55.47.93.83.38.36.69.67.93.93.17.17.17.36,0,.55-.13.15-.3.21-.52.16-.39-.09-.68-.12-.86-.11-.18.01-.44.14-.76.37-.28.2-.65.46-1.12.8-.47.34-.89.64-1.28.93.28.07.55.13.81.2.17.06.26.19.26.39-.02.2-.14.31-.36.36-.24.02-.47.06-.7.13-.23.06-.34.26-.34.58v1.01c1-.24,1.94-.47,2.84-.68.9-.22,1.69-.42,2.39-.6.69-.18,1.2-.32,1.53-.41.11.04.18.13.23.26s.03.26-.03.39c-.35.15-.88.36-1.61.62s-1.55.55-2.49.86-1.88.63-2.86.96v4.29c0,.87-.22,1.57-.65,2.11-.43.54-1.22.95-2.37,1.23ZM512,73.68h.97c.89-1.3,1.71-2.71,2.47-4.23h-3.44v4.23ZM513.89,92.36c-.26-.15-.31-.37-.16-.65,2.27-.71,4.24-1.67,5.9-2.86s3.05-2.61,4.17-4.26c-.61-1.17-1.13-2.46-1.58-3.88-.44-1.42-.79-3.02-1.02-4.79-.5,1-1.01,1.94-1.54,2.84-.53.9-1.06,1.68-1.58,2.36-.32.07-.51-.05-.55-.36.56-.98,1.13-2.14,1.71-3.49.57-1.35,1.11-2.78,1.61-4.27.5-1.49.92-2.96,1.25-4.39.34-1.43.55-2.71.63-3.84.02-.24.02-.44-.02-.6-.03-.16-.06-.3-.08-.41-.04-.22-.03-.35.03-.39.04-.09.15-.11.32-.06.24.06.56.17.96.32.4.15.8.3,1.2.44.4.14.71.27.93.37.2.06.26.21.2.42s-.21.3-.42.26c-.28-.04-.49-.02-.62.07s-.23.28-.29.58c-.45,1.93-1.14,4.02-2.05,6.27h5.69c.13,0,.24-.04.32-.13.07-.07.21-.21.42-.44.22-.23.43-.45.65-.66s.36-.36.42-.42c.2-.17.39-.17.58,0,.11.09.3.25.58.5.28.25.57.5.88.75.3.25.5.43.58.53.2.2.27.38.21.57s-.18.28-.37.28h-3.12c-.41,4.7-1.67,8.6-3.77,11.7,1.02,1.21,2.19,2.22,3.51,3.02,1.32.8,2.74,1.46,4.26,1.98-.71.22-1.33.54-1.84.96-.51.42-.89.82-1.15,1.19-1.19-.78-2.28-1.63-3.27-2.55-.99-.92-1.88-1.94-2.68-3.07-2.62,3.1-6.26,5.13-10.92,6.11ZM524.77,83.04c1.52-2.77,2.44-6.11,2.76-10.01h-5.04c-.09.22-.17.42-.26.62-.09.2-.17.39-.26.58.2,1.84.53,3.49,1.01,4.94.48,1.45,1.07,2.74,1.79,3.87Z" style="fill: #fff;"/>
    <path d="M536.37,92.17l-.29-1.43c.54.13,1.2.22,1.98.26h11.63v-4.52h-8.87c-.71.02-1.29.09-1.72.2l-.26-1.43c.54.13,1.2.22,1.98.26h8.87v-2.47c0-.78-.09-1.29-.26-1.53-.07-.11-.05-.23.03-.36.07-.06.16-.09.29-.06.24.02.56.08.97.16.41.09.83.17,1.25.26s.76.17,1.02.26c.22.06.3.19.26.39-.02.22-.14.33-.36.33-.22.02-.44.07-.68.15s-.36.28-.36.6v2.28h6.37c.11,0,.2-.01.26-.03.07-.02.13-.07.2-.16.13-.17.33-.43.6-.76.27-.34.46-.58.57-.73.17-.19.38-.21.62-.03.17.11.41.29.7.53.29.25.58.5.86.75.28.25.49.44.62.57.17.17.24.36.19.55-.04.2-.15.29-.32.29h-10.66v4.52h8.45c.15,0,.27-.04.36-.13.07-.07.21-.22.44-.45.23-.24.46-.48.7-.71l.42-.42c.15-.15.35-.15.58,0,.11.06.35.23.71.5.37.27.73.54,1.09.81s.58.45.67.54c.17.15.24.33.2.55-.04.22-.16.33-.36.33h-27.04c-.71.02-1.29.08-1.72.16ZM537.67,74.46c-.48.11-.86.05-1.14-.18-.28-.23-.42-.52-.41-.89s.19-.68.54-.94c.54-.37,1.04-.93,1.5-1.69.45-.76.84-1.58,1.15-2.47.31-.89.51-1.7.6-2.44.22-.26.44-.27.68-.03.02.28.03.56.03.83v.83h9.07v-2.21c0-.78-.09-1.29-.26-1.53-.07-.11-.05-.23.03-.36.04-.09.14-.11.29-.06.24.02.56.08.97.16s.83.17,1.25.26c.42.09.76.17,1.02.26.22.02.3.15.26.39-.02.22-.14.32-.36.32-.22.02-.44.07-.68.15-.24.08-.36.28-.36.6v2.01h9c.13,0,.24-.05.33-.16.17-.15.38-.33.62-.54s.41-.37.52-.5c.28-.19.53-.18.75.03.32.35.73.79,1.2,1.33.48.54.85.98,1.11,1.3.04.09.08.19.1.31.02.12,0,.22-.07.31-.13.19-.38.26-.75.19-.35-.06-.65-.07-.91-.03-.26.04-.56.16-.91.36-.22.11-.5.26-.84.45-.35.19-.68.38-1.01.57-.33.18-.56.32-.71.41-.33.04-.49-.1-.49-.42.17-.3.4-.73.68-1.28.28-.55.5-1,.65-1.35h-20.51c-.04.96-.16,1.86-.36,2.73-.19.87-.5,1.59-.91,2.18-.41.58-.98.96-1.69,1.11ZM541.05,82.78c-.2.06-.34,0-.42-.2-.11-.24-.25-.55-.44-.94s-.36-.78-.54-1.17c-.17-.39-.31-.7-.42-.94-.04-.15-.02-.26.07-.32.11-.06.34-.06.68,0,.15.04.34.08.57.11s.5.05.83.05c.52,0,1.08,0,1.67-.02.6-.01,1.22-.03,1.87-.05.19-.46.42-1.01.68-1.66.26-.65.52-1.31.78-1.98.26-.67.48-1.26.65-1.75h-4.55c-.71.02-1.29.08-1.72.16l-.26-1.4c.54.13,1.2.22,1.98.26h14.85c.15,0,.26-.04.32-.13.11-.13.31-.37.62-.71s.51-.58.62-.71c.17-.17.37-.17.58,0,.24.15.56.42.97.8.41.38.71.67.91.86.19.22.26.42.21.6-.06.18-.2.28-.44.28h-11.08c-.33.43-.75.98-1.27,1.64-.52.66-1.04,1.33-1.56,2-.52.67-.96,1.25-1.33,1.72,1.41-.06,2.84-.15,4.29-.24,1.45-.1,2.84-.21,4.16-.33,1.32-.12,2.45-.23,3.38-.34-.63-.58-1.29-1.13-1.98-1.62-.69-.5-1.42-.95-2.18-1.37-.11-.32-.02-.53.26-.62,1.11.37,2.2.81,3.28,1.33,1.08.52,2.05,1.06,2.91,1.63.86.56,1.49,1.12,1.9,1.66.37.5.57,1.03.62,1.59.04.56-.1.98-.42,1.24-.2.15-.42.21-.67.16-.25-.04-.49-.23-.73-.55-.37-.5-.75-.99-1.14-1.46s-.79-.92-1.2-1.33c-.8.15-1.76.32-2.88.52-1.12.2-2.3.39-3.56.58-1.26.2-2.51.38-3.75.55-1.25.17-2.4.33-3.48.47-1.07.14-1.98.24-2.71.31-.32.02-.53.11-.62.26-.09.15-.11.38-.07.68.07.19-.02.32-.26.39Z" style="fill: #fff;"/>
  </g>
</svg>