<?xml version="1.0" encoding="UTF-8"?>
<svg id="_レイヤー_1" data-name="レイヤー_1" xmlns="http://www.w3.org/2000/svg" viewBox="0 0 400 206.195">
  <path d="M83.019,45.885c5.499-.183,13.457.304,14.953,1.222.028.162-7.644-.122-15.394.612l-.081.015c-2.198,7.746-6.145,27.353-4.66,32.629.235.88.818.866,1.306.783,2.443-.417,4.826-2.164,6.669-3.148-2.473,3.187-5.154,5.152-7.678,5.582-2.443.416-5.967-1.581-6.585-3.738-2.267-7.404.841-22.595,3.145-31.198-1.058.181-2.035.347-3.094.528-3.745.638-7.395,1.344-11.151,2.402-9.581,12.608-31.101,49.535-49.175,52.616-4.396.749-10.146-1.036-11.146-6.898-.582-3.42.93-5.855,2.313-6.09-.554.68-1.051,2.189-.87,3.247.611,3.583,3.37,4.535,6.87,3.939,17.423-2.969,37.679-33.061,47.694-45.576-21.253,6.052-30.131,13.932-29.691,15.532.182,1.562-4.629-.131-5.404-3.686-1.463-6.621,27.769-14.03,38.527-16.284l.081-.015c6.957-9.815,25.824-37.24,29.429-42.63,2.403-3.594,3.864-5.349,5.736-5.669,2.687-.458,6.089,1.81,6.635,2.556-1.669.536-2.411,1.584-3.492,3.108-3.794,5.757-11.17,23.434-14.938,40.161ZM63.462,47.626c3.826-.652,7.762-1.156,11.806-1.508,2.103-7.816,8.023-26.166,11.65-33.402-.757.966-1.432,1.92-23.456,34.91ZM125.628,52.028c-5.004,8.979-13.995,34.388-17.258,44.243,4.919-9.97,14.878-22.811,17.114-23.945.407-.07.491.419.491.419-10.061,11.266-17.893,30.193-18.123,34.254-.135.191-.447.327-.854.396-3.201.882-5.185-3.388-5.191-4.895-.172-2.484.927-6.358,1.811-10.028,2.652-10.002,10.047-33.463,19.278-48.608-6.794,9.787-16.192,23.956-20.91,25.764-.244.042-.488.083-.651.111-1.303.221-4.201-1.545-4.534-3.499-.597-3.501,2.48-12.487,6.024-19.71,2.089-4.461,4.802-8.693,6.56-10.668.338-.476.812-.64,1.057-.682,1.954-.333,5.588,2.315,5.949,4.432.055.325-.258-.041-.923-.01-1.33.059-4.002,4.536-6.146,8.671-3.237,6.081-6.005,13.925-5.603,16.286,3.631-2.293,10.685-11.037,13.874-15.433,3.608-4.887,8.764-12.971,12.631-17.316.419-.49.731-.628,1.138-.697,1.872-.32,5.603,2.396,5.949,4.432.055.325-.34-.026-.924-.01-.666.029-1.598.942-2.53,2.358-2.808,4.166-5.397,9.13-8.23,14.137ZM161.468,43.073c-2.026,2.857-15.57,19.241-18.99,19.822-.162.028-.598-.066-.774-.119-1.59-.482-4.234-3.216-4.512-4.844-1.512-8.874,14.037-30.206,29.017-32.759,3.094-.528,7.387.081,8.038,3.907.236,1.384-.261,2.894-.895,4.09-.149.11-.325.055-.258-.04.282-.802.604-1.862.395-3.083-.416-2.444-2.171-3.401-4.586-2.821-4.68,1.049-10.04,5.48-14.569,10.861-6.611,7.911-10.969,19.209-10.166,19.493.177.052.34.025.569-.097,2.535-1.355,12.531-11.521,16.154-15.823,1.243-1.553,5.661-7.582,7.503-9.071,1.489-1.092,5.021,2.915,4.861,3.948-.545-.746-6.361,9.377-7.915,15.004-.294,1.222-.453,2.255-.342,2.907,4.879-2.339,14.621-15.477,18.863-21.059.338-.475.856.107.654.391-5.765,8.943-16.718,24.799-21.603,25.631-.407.069-.842-.024-1.467-.252-1.251-.457-3.088-1.904-3.338-3.368-.139-.815.02-1.847.138-3.124.464-3.179,2.023-7.299,3.223-9.596ZM101.145,115.86c-44.288,7.547-70.584,30.711-69.017,39.91.903,5.293,10.328,6.031,11.034,6.247,0,0-.067.095-.393.15-5.455.93-15.096.395-16.235-6.783-2.727-17.967,32.766-35.828,71.681-42.461,17.26-2.941,40.26-2.673,47.165-.498,1.318.361.287.705-.324.559-2.161-.386-24.128-.496-43.911,2.875ZM91.764,123.742c2.931-.499,6.673,1.796,7.649,5.064-.722-.799-1.659-.891-2.393-.766-2.442.416-7.335,6.611-12.936,15.526-1.782,2.816-3.455,5.783-5.316,9.116,2.021-.428,3.88-.83,5.671-1.135,12.619-2.15,17.566-.649,17.173-.497-.393.151-2.688-.045-7.655.802-2.361.402-5.359.997-8.954,2.028-2.794.812-5.655,1.718-8.421,2.691-10.547,19.224-19.89,41.09-18.961,46.545.084.488.397.854.804.785,1.71-.293,2.697-1.382,3.861-2.418-1.106,1.864-3.351,4.424-4.898,4.689-1.221.207-2.773-1.036-3.065-2.746-1.387-8.141,4.304-25.867,12.105-42.526-10.748,5.267-18.654,11.471-17.787,14.591.317,1.371-3.183-1.468-3.637-3.15-1.638-6.171,12.783-12.985,24.106-16.842,4.313-8.611,8.833-16.502,15.048-24.766,3.162-4.058,5.814-6.688,7.605-6.993ZM121.03,157.795c-6.794,9.786-15.705,23.368-20.423,25.178-.163.028-.652.112-.652.112-1.302.221-4.2-1.546-4.533-3.5-.597-3.501,2.479-12.487,6.024-19.711,2.169-4.474,4.923-8.964,6.681-10.939.338-.477.813-.64,1.056-.682,1.955-.333,5.671,2.3,6.031,4.417.055.325-.34-.026-1.087.018-1.249.044-3.946,4.861-6.104,8.914-3.223,6.163-6.086,13.939-5.684,16.302,3.632-2.295,10.686-11.038,13.956-15.449,3.525-4.873,8.343-12.982,12.373-17.356.351-.394.745-.546,1.07-.602,1.954-.333,5.59,2.315,5.936,4.35.055.327-.259-.04-1.005.003-.57.097-1.503,1.011-2.367,2.33-1,1.512-2.779,4.831-4.856,8.872-3.141,6.147-5.168,12.441-4.779,14.721,4.865-2.422,14.539-15.464,18.7-21.031.42-.49.938.091.735.377-5.765,8.941-16.718,24.798-21.602,25.63-.407.069-.924-.009-1.386-.265-1.413-.429-3.361-2.024-3.61-3.49-.139-.815.1-2.363.299-3.655.746-3.98,2.854-10.288,5.229-14.545ZM148.669,151.827c4.008-10.401,8.373-19.691,12.404-27.498,3.208-6.244,6.029-10.829,8.274-13.391,1.205-1.292,2.193-1.88,2.845-1.99,4.721-.806,8.634,3.47,7.016,2.825-2.378-.685-4.945,2.937-8.804,9.29-.716,1.212-3.831,7.021-3.831,7.021-3.831,7.019-8.355,17.341-11.49,24.997,5.267-7.935,13.746-17.172,17.734-17.852,1.792-.305,4.49,2.754,4.782,4.463,1.027,6.025-13.791,19.358-22.967,20.083,5.041,8.441,17.91,19.066,28.575,17.249,2.849-.486,5.546-1.868,7.886-4.361.202-.286.867-.316.53.161-2.864,3.84-6.455,5.876-10.363,6.541-10.502,1.79-23.213-6.433-30.372-15.014-1.33,3.997-4.739,11.028-1.006,10.812-.908.573-1.859.4-2.756.049-.611-.146-2.531-1.579-3.404-2.771-.274-.624-.732-3.31.971-9.047.456-1.751,1.074-3.532,1.611-5.299-.549-1.247-1-2.427-.827-3.378.266-1.386,1.702-2.301,3.194-2.891ZM153.454,157.296c.302.786.561,1.329.766,1.545,6.998-2.199,14.57-14.297,16.18-19.598-5.382,2.341-16.326,16.774-16.946,18.053ZM204.217,148.896c-2.026,2.858-15.57,19.241-19.071,19.837-.163.028-.516-.078-.693-.133-1.59-.483-4.234-3.216-4.512-4.844-1.512-8.874,13.956-30.193,29.018-32.76,3.094-.528,7.305.096,7.957,3.922.236,1.384-.18,2.879-.814,4.077-.148.109-.325.055-.258-.04.283-.802.604-1.862.396-3.083-.416-2.442-2.171-3.401-4.584-2.822-4.681,1.049-10.041,5.482-14.57,10.861-6.61,7.912-10.968,19.21-10.166,19.493.095.068.258.04.488-.084,2.534-1.354,12.611-11.532,16.234-15.837,1.244-1.553,5.58-7.569,7.503-9.07,1.49-1.092,5.021,2.915,4.861,3.947-.627-.73-6.36,9.378-7.915,15.004-.294,1.224-.453,2.256-.342,2.908,3.334-1.573,8.999-8.152,13.512-14.116,4.257-5.501,7.201-9.856,8.859-12.903-.341-.529-.601-1.071-.767-2.048-.819-4.803,1.857-8.276,2.508-8.386,1.221-.208,3.806,1.195,4.097,2.904.167.977-3.574,6.557-4.168,7.496.476.337,1.658.388,3.205.123,5.373-.915,15.134-5.091,16.384-8.572.484-1.088,5.852,3.863,5.152,5.657-6.049,1.868-25.607,18.355-29.63,24.737,1.625-1.283,4.607-2.461,8.108-3.058,5.943-1.012,13.182-.32,16.703,4.61.342.528.153.895-.161.531-2.618-3.073-6.912-4.185-14.81-2.839-8.222,1.401-13.534,8.087-14.837,8.309-1.139.194-4.014-2.416-3.842-3.868.796-5.163,15.553-20.328,23.924-25.776-1.722.711-3.553,1.276-5.344,1.581-2.198.374-4.221.3-5.446-.496-1.754,2.98-3.55,5.715-5.334,8.029-6.471,8.728-15.803,22.296-20.2,23.046-.407.07-.924-.008-1.467-.252-1.251-.457-3.089-1.901-3.339-3.367-.139-.815-.062-1.833.056-3.11.545-3.193,2.104-7.312,3.305-9.611ZM281.891,135.658c-2.027,2.858-15.571,19.241-18.99,19.824-.163.027-.599-.065-.775-.119-1.59-.482-4.233-3.216-4.511-4.844-1.512-8.874,14.037-30.206,29.018-32.76,3.093-.527,7.385.083,8.037,3.908.236,1.384-.261,2.893-.894,4.09-.149.11-.325.055-.258-.04.282-.802.604-1.862.396-3.083-.416-2.442-2.171-3.401-4.586-2.822-4.681,1.05-10.041,5.482-14.569,10.861-6.61,7.912-10.969,19.21-10.166,19.493.177.054.339.026.569-.097,2.535-1.354,12.531-11.519,16.154-15.823,1.243-1.553,5.661-7.583,7.503-9.07,1.489-1.091,5.021,2.915,4.861,3.947-.546-.744-6.361,9.378-7.915,15.004-.295,1.224-.453,2.256-.342,2.908,4.879-2.34,14.62-15.478,18.863-21.059.338-.475.856.106.653.392-5.765,8.94-16.717,24.798-21.603,25.63-.406.069-.842-.023-1.467-.252-1.251-.458-3.089-1.903-3.339-3.368-.139-.815.02-1.846.137-3.124.464-3.179,2.024-7.298,3.224-9.597ZM331.359,114.243c.352-.395.826-.56,1.07-.602,1.955-.332,5.982,2.165,6.506,4.254.042.243-.258-.041-1.086.017-1.236.126-2.679,2.468-4.941,7.879-2.14,5.14-3.433,11.812-2.913,12.896,9.19-8.015,19.501-25.189,25.086-38.623.378-.734.54-.762.272.121-3.414,16.834-23.004,43.463-26.26,44.017-2.035.347-4.612-2.481-4.804-3.119-.947-3.105.265-9.26,1.634-14.018-3.011,4.954-7.545,12.261-10.344,15.502-2.164,2.547-4.177,4.986-5.073,5.138-1.546.263-4.123-2.565-4.397-3.189-.884-4.206,1.781-14.126,5.176-21.743,1.803-4.161,3.099-6.393,4.707-8.259.338-.476.813-.64,1.057-.682,2.117-.36,5.996,2.245,6.438,4.348.123.231-.177-.054-.923-.01-.733.124-1.584,1.025-2.503,2.521-2.618,4.3-7.828,16.498-7.688,21.249,2.22-1.718,8.116-8.419,14.135-18.325,2.317-5.087,3.529-7.805,4.853-9.373ZM376.907,119.466c-2.026,2.857-15.57,19.239-18.99,19.822-.162.028-.598-.065-.774-.118-1.59-.483-4.234-3.217-4.511-4.845-1.513-8.874,14.037-30.206,29.016-32.76,3.094-.527,7.387.083,8.038,3.908.236,1.384-.261,2.893-.894,4.09-.149.11-.326.055-.258-.04.282-.801.604-1.862.396-3.083-.416-2.442-2.171-3.401-4.587-2.821-4.68,1.049-10.04,5.481-14.568,10.86-6.611,7.912-10.969,19.21-10.166,19.494.176.053.339.025.569-.097,2.535-1.355,12.53-11.52,16.154-15.823,1.243-1.553,5.661-7.584,7.503-9.071,1.489-1.091,5.02,2.915,4.86,3.947-.545-.744-6.36,9.378-7.914,15.004-.295,1.224-.453,2.256-.342,2.908,4.879-2.34,14.62-15.477,18.863-21.059.337-.475.856.106.653.392-5.765,8.941-16.718,24.798-21.603,25.63-.406.069-.842-.023-1.467-.252-1.25-.457-3.088-1.903-3.338-3.368-.139-.815.02-1.846.137-3.124.464-3.179,2.024-7.298,3.223-9.596Z" style="fill: #fff;"/>
</svg>