<?xml version="1.0" encoding="UTF-8"?>
<svg id="_レイヤー_1" data-name="レイヤー_1" xmlns="http://www.w3.org/2000/svg" viewBox="0 0 254.606 78.764">
  <path d="M45.507,67.088c1.882,1.257,3.996,2.241,6.34,2.953,2.345.711,4.697,1.067,7.058,1.067,2.01,0,3.916-.235,5.718-.705,1.802-.47,3.246-1.11,4.331-1.92.957-.713,1.714-1.548,2.273-2.504.558-.957,1.06-2.278,1.507-3.963l.766.097c-.128,2.349-.519,4.335-1.172,5.96-.654,1.625-1.699,3.193-3.134,4.706-3.797,3.99-9.283,5.985-16.461,5.985-4.18,0-7.688-.76-10.527-2.281-2.553-1.392-5.28-3.9-8.183-7.524l-.287-.339c-2.808,0-5.718-.439-8.733-1.317-3.015-.877-5.846-2.114-8.494-3.711-5.232-3.128-9.292-7.23-12.178-12.306C1.443,46.209,0,40.687,0,34.716c0-5.331,1.148-10.287,3.445-14.868s5.646-8.58,10.049-11.996c3.222-2.521,6.747-4.461,10.575-5.818,3.828-1.356,7.672-2.035,11.532-2.035,4.529,0,8.932.91,13.207,2.73,3.254,1.437,6.292,3.36,9.116,5.771s5.208,5.131,7.154,8.164c3.445,5.364,5.168,11.206,5.168,17.527,0,4.054-.726,7.972-2.177,11.755-1.452,3.783-3.549,7.255-6.292,10.416-2.266,2.618-4.658,4.756-7.178,6.417-2.521,1.66-5.551,3.097-9.092,4.31ZM18.806,58.762c2.328-.67,4.642-1.005,6.938-1.005,2.839,0,5.566.559,8.183,1.675,1.116.479,2.265,1.101,3.445,1.866,1.18.766,3.094,2.105,5.742,4.02l.431.335c2.073-1.117,3.868-2.426,5.383-3.927,1.515-1.5,2.991-3.463,4.426-5.89,3.541-5.842,5.312-12.674,5.312-20.496,0-5.108-.694-9.976-2.082-14.606-1.388-4.629-3.342-8.523-5.862-11.684-2.042-2.585-4.315-4.485-6.819-5.699-2.505-1.213-5.431-1.82-8.781-1.82-3.382,0-6.325.599-8.829,1.796-2.505,1.198-4.778,3.105-6.819,5.723-2.488,3.161-4.426,7.049-5.814,11.663-1.388,4.613-2.082,9.475-2.082,14.583,0,4.726.574,8.948,1.723,12.667,1.148,3.72,2.982,7.32,5.503,10.799ZM32.635,67.279l-.335-.383c-2.233-2.68-4.132-4.562-5.694-5.646-1.563-1.084-3.158-1.627-4.785-1.627-.606,0-1.276.128-2.01.383,2.01,2.329,3.979,4.036,5.91,5.12,1.93,1.085,4.235,1.803,6.915,2.153Z" style="fill: #353228;"/>
  <path d="M123.439,27.95l14.379,19.938c2.005-3.744,3.409-6.616,4.211-8.617.802-2,1.203-3.701,1.203-5.102,0-2.772-1.991-4.444-5.971-5.016v-.902h16.715v.859c-1.318.115-2.392.337-3.223.666-.831.33-1.619.838-2.363,1.525-1.461,1.375-3.266,4.297-5.414,8.766l-1.332,2.75c-.716,1.547-1.762,3.566-3.137,6.059,1.088,1.433,2.37,2.972,3.846,4.619,1.475,1.647,2.786,3.001,3.932,4.061,1.633,1.49,3.058,2.571,4.275,3.244,1.217.673,2.399,1.01,3.545,1.01,1.231,0,2.263-.344,3.094-1.031.831-.688,1.561-1.805,2.191-3.352l.859.387c-1.433,4.87-4.513,7.305-9.241,7.305-1.576,0-3.224-.301-4.942-.902-1.72-.602-3.281-1.432-4.685-2.492-2.15-1.604-4.37-3.767-6.662-6.488-1.262,1.833-2.294,3.208-3.097,4.125-1.664,1.862-3.606,3.287-5.829,4.275-2.222.988-4.596,1.482-7.119,1.482-2.323,0-4.567-.43-6.732-1.289-2.166-.859-3.937-2.034-5.313-3.523-2.553-2.721-3.828-6.159-3.828-10.312,0-4.096,1.231-7.82,3.695-11.172.974-1.317,2.141-2.557,3.502-3.717,1.36-1.16,3.229-2.514,5.607-4.061l.688-.473c-1.776-2.521-3.037-4.512-3.781-5.973-1.748-3.38-2.621-6.402-2.621-9.066,0-1.661.401-3.309,1.205-4.941,1.004-2.148,2.482-3.781,4.433-4.898,1.951-1.117,4.291-1.676,7.017-1.676,3.558,0,6.484.967,8.781,2.9,2.295,1.934,3.443,4.419,3.443,7.455,0,2.234-.589,4.218-1.767,5.951-1.177,1.733-3.087,3.431-5.729,5.092-1.867,1.203-3.146,2.048-3.834,2.535ZM117.24,31.774c-2.365,1.461-4.202,3.495-5.513,6.102-1.311,2.607-1.966,5.515-1.966,8.723,0,2.206.343,4.34,1.031,6.402s1.618,3.81,2.792,5.242c1.088,1.289,2.398,2.292,3.93,3.008,1.532.716,3.143,1.074,4.832,1.074,2.663,0,5.04-.831,7.13-2.492.773-.63,1.475-1.332,2.105-2.105.629-.773,1.417-1.905,2.362-3.395l-16.704-22.559ZM122.621,27.005c1.343-1.06,2.351-1.991,3.023-2.793.671-.802,1.265-1.762,1.78-2.879,1-2.12,1.501-4.397,1.501-6.832,0-2.864-.686-5.142-2.057-6.832-1.371-1.69-3.213-2.535-5.526-2.535-2,0-3.614.645-4.841,1.934-1.228,1.289-1.842,2.965-1.842,5.027,0,1.232.249,2.464.749,3.695.5,1.232,1.448,2.922,2.847,5.07,1.341,2.062,2.796,4.111,4.366,6.145Z" style="fill: #353228;"/>
  <path d="M254.606,66.992h-31.438v-1.101c2.839-.255,4.816-.733,5.934-1.436,1.978-1.244,2.967-2.967,2.967-5.168,0-1.308-.447-3.062-1.34-5.264l-.813-2.01-4.594-11.293h-21.055l-2.488,6.604-1.196,2.967c-1.436,3.51-2.153,6.269-2.153,8.278,0,1.181.263,2.281.79,3.302.526,1.021,1.236,1.851,2.129,2.488,1.244.861,2.839,1.372,4.785,1.531v1.101h-21.438v-1.101c1.69-.096,3.174-.51,4.45-1.244,1.275-.733,2.52-1.914,3.732-3.541,1.021-1.308,2.017-2.991,2.991-5.048.973-2.058,2.256-5.144,3.852-9.259L217.234,1.675h2.728l20.815,50.292c1.562,3.797,2.807,6.508,3.732,8.135.925,1.627,1.93,2.855,3.015,3.685.766.574,1.643,1.013,2.632,1.316.988.304,2.472.567,4.45.79v1.101ZM224.555,38.76l-10.049-24.787-9.475,24.787h19.523Z" style="fill: #353228;"/>
</svg>