<?xml version="1.0" encoding="UTF-8"?>
<svg id="_レイヤー_1" data-name="レイヤー_1" xmlns="http://www.w3.org/2000/svg" xmlns:xlink="http://www.w3.org/1999/xlink" viewBox="0 0 393 75">
  <defs>
    <linearGradient id="_名称未設定グラデーション_22" data-name="名称未設定グラデーション 22" x1=".213" y1="44.017" x2="37" y2="44.017" gradientTransform="translate(0 78.647) scale(1 -1)" gradientUnits="userSpaceOnUse">
      <stop offset="0" stop-color="#baaf8d"/>
      <stop offset=".513" stop-color="#9f9678"/>
      <stop offset="1" stop-color="#8e474f"/>
    </linearGradient>
  </defs>
  <rect width="393" height="75" style="fill: none;"/>
  <g>
    <path d="M97.154,49.038h-.64c-.16-1.492-.32-2.692-.48-3.6-.16-.906-.427-1.88-.8-2.92-.374-1.04-.828-1.84-1.36-2.4-.534-.56-1.254-1.026-2.16-1.399-.907-.373-1.974-.56-3.2-.56h-9.84v21.28c0,1.707.44,2.894,1.32,3.56.88.668,2.386,1,4.52,1h1.6v.641h-2.96c-.8,0-1.987-.04-3.56-.12-1.574-.08-2.894-.12-3.96-.12-.907,0-2.027.04-3.36.12-1.334.08-2.32.12-2.96.12h-1.76v-.641h.08c1.653,0,2.772-.306,3.36-.92.586-.612.88-1.8.88-3.56V15.279c0-1.76-.294-2.946-.88-3.56-.588-.613-1.708-.92-3.36-.92h-.08v-.64h1.76c.586,0,1.52.014,2.8.04,1.28.027,2.346.04,3.2.04s1.973-.013,3.36-.04c1.386-.026,2.373-.04,2.96-.04h17.68c1.066,0,1.84-.2,2.32-.6s.667-1,.56-1.8l.48-.16,7.04,18.48-.56.24c-4.907-6.827-8.054-10.96-9.44-12.4-1.92-1.972-4.454-2.96-7.6-2.96h-13.44v26.32h9.84c2.932,0,4.892-.853,5.88-2.56.986-1.707,1.692-4.453,2.12-8.24h.64v22.56Z" style="fill: #474336;"/>
    <path d="M163.314,46.078l-7.84,21.04-.48-.08c.106-.747-.054-1.333-.48-1.76-.428-.428-1.174-.64-2.24-.64h-16.96c-.64,0-1.587-.013-2.84-.04-1.254-.026-2.308-.04-3.16-.04s-1.92.014-3.2.04c-1.28.027-2.213.04-2.8.04h-1.76v-.641h.08c1.653,0,2.772-.306,3.36-.92.586-.612.88-1.8.88-3.56V15.279c0-1.76-.294-2.946-.88-3.56-.588-.613-1.708-.92-3.36-.92h-.08v-.64h1.76c.586,0,1.52.04,2.8.12,1.28.08,2.346.12,3.2.12s1.906-.04,3.16-.12c1.252-.08,2.2-.12,2.84-.12h1.76v.64h-.16c-1.654,0-2.774.307-3.36.92-.587.614-.88,1.8-.88,3.56v48.56h12.4c1.707,0,3.106-.213,4.2-.641,1.092-.426,2.28-1.332,3.56-2.72,1.76-1.92,5.066-6.8,9.92-14.64l.56.239Z" style="fill: #474336;"/>
    <path d="M215.553,57.479c-4.587,5.308-10.32,7.96-17.2,7.96s-12.614-2.652-17.2-7.96c-4.587-5.307-6.88-12.013-6.88-20.12s2.28-14.8,6.84-20.08c4.56-5.28,10.306-7.92,17.24-7.92,6.88,0,12.613,2.64,17.2,7.92,4.586,5.28,6.879,11.974,6.879,20.08s-2.293,14.813-6.879,20.12ZM198.353,64.719c10.772,0,16.16-9.12,16.16-27.36s-5.388-27.28-16.16-27.28c-10.827,0-16.24,9.094-16.24,27.28s5.413,27.36,16.24,27.36Z" style="fill: #474336;"/>
    <path d="M294.192,64.639c-.533,0-1.174-.013-1.92-.04-.747-.026-1.334-.04-1.76-.04-.374,0-.907.014-1.601.04-.693.027-1.333.04-1.92.04l-14.56-42.56-11.44,35.52,2.48,7.04c-.534,0-1.188-.013-1.96-.04-.774-.026-1.374-.04-1.8-.04-.374,0-.908.014-1.601.04-.693.027-1.334.04-1.92.04l-18.08-49.2c-1.228-3.092-3.094-4.64-5.6-4.64v-.64h2c.426,0,1.346.04,2.76.12,1.412.08,2.521.12,3.32.12.906,0,2.12-.04,3.64-.12,1.521-.08,2.467-.12,2.84-.12h2.08v.64c-2.773,0-4.16.88-4.16,2.64,0,.748.187,1.52.561,2.32l14.88,40.64,11.52-35.76-1.76-5.28c-1.014-3.04-2.88-4.56-5.6-4.56v-.64h2.08c.372,0,1.306.04,2.8.12,1.492.08,2.666.12,3.52.12.906,0,2.066-.04,3.48-.12,1.412-.08,2.306-.12,2.68-.12h2v.64c-2.72,0-4.08.88-4.08,2.64,0,.64.16,1.414.48,2.32l13.76,40.239,11.12-35.199c.8-2.506,1.2-4.213,1.2-5.12,0-1.493-.48-2.68-1.44-3.56s-2.428-1.32-4.399-1.32v-.64h1.039c.641,0,1.773.04,3.4.12,1.626.08,2.786.12,3.48.12.479,0,1.479-.04,3-.12,1.52-.08,2.52-.12,3-.12h1.6v.64c-4.588.16-7.92,3.574-10,10.24l-11.52,36.4,2.399,7.2Z" style="fill: #474336;"/>
    <path d="M331.871,63.958c-.907.881-2,1.32-3.28,1.32s-2.373-.439-3.279-1.32c-.908-.88-1.36-1.96-1.36-3.239s.466-2.373,1.4-3.28c.932-.906,2.012-1.36,3.239-1.36,1.28,0,2.373.454,3.28,1.36.906.907,1.36,2,1.36,3.28s-.454,2.359-1.36,3.239Z" style="fill: #474336;"/>
    <path d="M384.67,48.958h-9.28v10.48c0,1.813.28,3.027.84,3.64.561.614,1.667.92,3.32.92h.16v.641h-1.76c-.641,0-1.588-.04-2.84-.12-1.254-.08-2.308-.12-3.16-.12s-1.92.04-3.2.12-2.214.12-2.8.12h-3.521v-.641h.96c1.92,0,3.267-.279,4.04-.84.772-.56,1.16-1.692,1.16-3.399v-10.801h-22.8v-.399l23.439-38.4c.267,0,.721.014,1.36.04.64.027,1.12.04,1.44.04.16,0,.626-.013,1.399-.04.772-.026,1.427-.04,1.96-.04v38h.4c2.24,0,3.986-.692,5.24-2.08,1.252-1.386,3.105-4.346,5.56-8.879l.48.16-2.4,11.599ZM368.59,48.158V12.879l-21.52,35.279h21.52Z" style="fill: #474336;"/>
  </g>
  <path d="M.214,34.641c1.47-.403,2.813-.891,4.093-1.491,3.332-1.567,5.976-3.728,8.118-6.32,2.336-2.826,3.924-5.932,5.035-9.208.497-1.462.878-2.943,1.173-4.451.031.149.066.297.09.448.65,4.033,2.062,7.868,4.459,11.442,1.89,2.817,4.341,5.242,7.577,7.101,1.833,1.053,3.821,1.847,5.956,2.397.081.021.162.044.285.078-.058.028-.081.044-.107.052-5.369,1.533-9.497,4.345-12.595,8.211-2.235,2.787-3.725,5.837-4.719,9.059-.405,1.311-.704,2.636-.904,3.978-.008.049-.018.098-.078.152-.029-.161-.055-.323-.086-.484-.031-.164-.061-.328-.095-.492-.998-4.716-2.972-9.114-6.413-13.02-2.986-3.389-6.824-5.894-11.613-7.391-.038-.012-.075-.026-.176-.061h.002Z" style="fill: url(#_名称未設定グラデーション_22);"/>
</svg>