<?xml version="1.0" encoding="UTF-8"?>
<svg id="_レイヤー_1" xmlns="http://www.w3.org/2000/svg" viewBox="0 0 91.771 262.837">
  <g>
    <path d="M78.626,11.793l1.225-1.44c.954.955,2.25,1.566,3.529,1.566,1.603,0,2.503-.756,2.503-1.872,0-1.206-.9-1.585-2.125-2.125l-1.837-.792c-1.278-.54-2.701-1.549-2.701-3.475C79.22,1.566,81.056,0,83.577,0,85.125,0,86.584.648,87.592,1.675l-1.098,1.332c-.829-.738-1.747-1.188-2.917-1.188-1.351,0-2.233.648-2.233,1.711,0,1.134,1.062,1.566,2.143,1.998l1.818.774c1.566.666,2.701,1.639,2.701,3.583,0,2.125-1.765,3.854-4.663,3.854-1.819,0-3.511-.721-4.718-1.945h.001Z" style="fill: #fff;"/>
    <path d="M78.428,20.052h2.143l4.394,7.778,1.386,2.809h.09c-.108-1.368-.27-2.971-.27-4.411v-6.176h1.98v13.252h-2.143l-4.393-7.814-1.387-2.772h-.09c.108,1.368.27,2.898.27,4.339v6.248h-1.98v-13.252h0Z" style="fill: #fff;"/>
    <path d="M78.626,51.393l1.225-1.44c.954.955,2.25,1.566,3.529,1.566,1.603,0,2.503-.756,2.503-1.872,0-1.206-.9-1.585-2.125-2.125l-1.837-.792c-1.278-.54-2.701-1.549-2.701-3.475,0-2.089,1.836-3.655,4.357-3.655,1.548,0,3.007.648,4.015,1.675l-1.098,1.332c-.829-.738-1.747-1.188-2.917-1.188-1.351,0-2.233.648-2.233,1.711,0,1.134,1.062,1.566,2.143,1.998l1.818.774c1.566.666,2.701,1.639,2.701,3.583,0,2.125-1.765,3.854-4.663,3.854-1.819,0-3.511-.721-4.718-1.945h.001Z" style="fill: #fff;"/>
    <path d="M77.168,68.312c-.234,1.693-.612,3.439-1.17,4.574-.252-.181-.9-.469-1.224-.595.54-1.08.846-2.683,1.008-4.213l1.386.233h0ZM79.239,66.765v7.526h-1.477v-7.383c-.955.091-1.873.162-2.647.234l-.216-1.477c.36-.018.774-.036,1.224-.072.324-.396.667-.864.99-1.35-.504-.811-1.386-1.783-2.143-2.539l.846-1.116c.162.144.324.306.486.468.558-1.008,1.152-2.305,1.477-3.276l1.458.558c-.63,1.225-1.387,2.646-2.035,3.655.288.324.558.648.774.954.685-1.062,1.314-2.143,1.783-3.061l1.368.63c-1.008,1.584-2.287,3.493-3.475,4.987l2.232-.162c-.234-.45-.504-.9-.756-1.314l1.188-.521c.756,1.17,1.566,2.719,1.836,3.727l-1.26.595c-.09-.343-.234-.757-.414-1.188l-1.242.126h.003ZM80.824,68.024c.45,1.026.9,2.396,1.098,3.277.234-.685.396-1.422.504-2.125l1.35.253c-.198,1.44-.666,3.097-1.404,4.141l-1.296-.594c.324-.433.612-1.009.828-1.657l-1.278.45c-.162-.918-.594-2.286-1.026-3.349l1.225-.396h0ZM85.559,58.428c-.648,1.801-1.801,3.493-2.971,4.592-.306-.288-.954-.774-1.35-1.009,1.206-.954,2.214-2.412,2.737-3.961l1.584.378ZM86.945,61.255c-.468,1.08-1.008,2.341-1.512,3.385l2.791-.162c-.306-.45-.648-.9-.954-1.296l1.278-.648c.972,1.17,2.071,2.755,2.521,3.817l-1.351.738c-.162-.36-.396-.828-.666-1.297-2.413.198-4.844.396-6.68.522l-.288-1.513,1.818-.09c.522-1.17,1.062-2.737,1.369-3.871l1.674.414h0ZM87.414,72.887c.378,0,.468-.217.504-1.801.288.252.955.486,1.369.594-.162,2.106-.558,2.629-1.674,2.629h-1.621c-1.44,0-1.765-.45-1.765-1.927v-3.619h1.53v3.619c0,.45.072.505.468.505h1.189ZM85.379,66.351c1.134.54,2.395,1.458,3.007,2.196l-1.098,1.026c-.594-.774-1.837-1.746-2.953-2.305l1.044-.918h0ZM88.602,57.996c.702,1.278,2.07,2.755,3.169,3.564-.36.253-.9.829-1.152,1.188-1.135-.954-2.557-2.719-3.385-4.177l1.369-.576h0ZM89.664,68.889c.972,1.261,1.854,2.899,2.089,4.069l-1.369.702c-.234-1.134-1.08-2.862-1.999-4.123l1.278-.648h.001Z" style="fill: #fff;"/>
    <path d="M89.898,80.82c-.144.288-.252.685-.324,1.026-.414,1.801-1.188,4.646-2.629,6.536-1.512,1.963-3.691,3.709-6.77,4.753l-1.477-1.692c2.881-.756,5.15-2.305,6.59-4.141,1.242-1.53,1.98-3.854,2.214-5.474h-8.696c-.738,0-1.458.036-1.909.072v-1.981c.504.072,1.333.126,1.926.126h8.607c.306,0,.756,0,1.134-.107l1.333.882h0Z" style="fill: #fff;"/>
    <path d="M89.97,102.205c.396,0,1.026-.036,1.296-.09v1.729c-.36-.019-.882-.036-1.242-.036h-2.017c.054,2.088.108,4.646.126,6.392,0,.828-.468,1.351-1.351,1.351-.846,0-1.818-.036-2.575-.09l-.108-1.603c.72.107,1.35.162,1.873.162.342,0,.486-.198.486-.54,0-.991-.018-2.539-.036-4.105-1.225,1.62-3.583,3.637-5.798,4.808l-1.225-1.387c2.557-1.206,5.024-3.277,6.23-4.987h-4.051c-.486,0-1.026.018-1.476.054v-1.746c.414.071.99.09,1.44.09h4.789c0-.433-.018-.811-.036-1.116,0-.379-.054-.883-.126-1.297h1.854c-.072.396-.072.864-.072,1.297l.018,1.116h1.999l.002-.002Z" style="fill: #fff;"/>
    <path d="M89.772,130.107c0,.612.036,2.124.036,2.269h-1.926c.018-.09.018-.504.036-.99h-9.165l.018.99h-1.909c.018-.162.054-1.566.054-2.287v-8.679c0-.45,0-1.062-.036-1.53.702.019,1.26.036,1.692.036h9.597c.432,0,1.062,0,1.638-.018-.036.468-.036,1.026-.036,1.512v8.697h0ZM78.753,121.681v7.958h9.165v-7.958s-9.165,0-9.165,0Z" style="fill: #fff;"/>
    <path d="M90.15,140.166c-.09.198-.234.774-.288.973-.324,1.998-.702,4.519-2.017,6.59-1.44,2.286-3.853,4.069-6.698,5.023l-1.548-1.566c2.503-.648,5.132-2.161,6.554-4.394.954-1.513,1.458-3.637,1.638-5.653h-9.183v3.276c0,.271,0,.792.036,1.278h-2.035c.054-.468.09-.864.09-1.278v-3.745c0-.432-.036-.882-.09-1.314.522.036,1.224.055,2.017.055h8.805c.468,0,.972-.036,1.35-.108l1.369.864h0Z" style="fill: #fff;"/>
    <path d="M81.922,171.958c.126-.936.126-2.088.126-2.755,0-.99.018-7.922.018-9.236,0-.559,0-1.53-.126-2.196h2.269c-.126.666-.126,1.638-.126,2.178v9.255c0,.54,0,1.819.126,2.755h-2.287,0Z" style="fill: #fff;"/>
    <path d="M59.751,9.938h-1.692v3.565h-1.944v-3.565h-5.726v-1.386L55.664.252h2.395v8.084h1.692v1.603h0ZM56.114,8.336v-3.475c0-.72.072-1.837.108-2.557h-.072c-.324.666-.685,1.351-1.062,2.034l-2.611,3.997h3.637,0Z" style="fill: #fff;"/>
    <path d="M61.134,6.824c0-4.592,1.674-6.824,4.285-6.824,2.593,0,4.286,2.251,4.286,6.824,0,4.609-1.693,6.914-4.286,6.914-2.611,0-4.285-2.305-4.285-6.914ZM67.724,6.824c0-3.8-.954-5.186-2.305-5.186s-2.305,1.386-2.305,5.186c0,3.835.955,5.275,2.305,5.275s2.305-1.44,2.305-5.275Z" style="fill: #fff;"/>
    <path d="M58.76,19.332c-.036,1.099-.072,2.215-.18,3.331h7.995s0,.54-.018.774c-.306,5.653-.612,7.814-1.314,8.589-.45.521-.936.666-1.692.738-.684.071-1.909.054-3.133-.019-.036-.486-.271-1.17-.576-1.639,1.278.108,2.557.108,3.043.108.414.018.63-.018.846-.216.522-.45.792-2.341,1.026-6.716h-6.392c-.522,3.457-1.818,6.68-5.275,8.66-.234-.45-.774-1.008-1.207-1.351,4.807-2.593,5.005-7.778,5.149-12.262h-4.555v-1.639h15.646v1.639h-9.363v.003Z" style="fill: #fff;"/>
    <path d="M61.01,36.684c-.018.252-.018.558-.054.882.162,2.395,1.098,10.479,7.832,13.576-.522.396-1.008.954-1.278,1.404-4.357-2.106-6.355-6.229-7.292-9.705-.864,3.439-2.755,7.328-6.932,9.724-.306-.433-.846-.955-1.386-1.314,7.202-3.835,7.094-12.19,7.22-14.566h1.89Z" style="fill: #fff;"/>
    <path d="M57.157,69.951c1.044.396,2.359.504,3.998.504,1.08.019,6.266.019,7.598-.036-.27.396-.576,1.152-.684,1.657h-6.896c-3.601,0-5.762-.522-7.112-2.773-.18,1.261-.486,2.341-.937,3.224-.27-.198-.972-.595-1.35-.757.99-1.782,1.134-4.609,1.17-7.724l1.495.107c-.018.864-.054,1.692-.09,2.503.324,1.026.738,1.801,1.314,2.341v-6.068h-3.403v-1.494h3.133v-1.963h-2.773v-1.458h2.773v-2.017h1.53v2.017h2.701v1.458h-2.701v1.963h3.043v.63c1.404-.846,2.161-2.106,2.449-3.925h-2.251v-1.423h7.851s0,.415-.018.612c-.144,3.133-.324,4.394-.72,4.861-.306.343-.63.469-1.116.522-.414.036-1.152.054-1.945.019-.036-.433-.198-1.026-.432-1.423.684.072,1.333.072,1.584.072s.414-.036.54-.181c.216-.252.342-1.044.45-3.061h-2.358c-.378,2.484-1.422,4.087-3.205,5.186-.18-.18-.522-.468-.828-.702v.306h-2.809v2.287h2.611v1.458h-2.611v3.277h0ZM60.705,63.596h6.914v5.563h-6.914s0-5.563,0-5.563ZM62.271,67.79h3.691v-2.826h-3.691s0,2.826,0,2.826Z" style="fill: #fff;"/>
    <path d="M63.423,82.802c-.702.63-2.521,2.305-3.061,2.881.162-.018.486.019.648.09.612.108.973.54,1.207,1.225.18.486.378,1.278.558,1.782.18.612.576.883,1.369.883,1.224,0,2.521-.126,3.349-.324l-.108,1.837c-.72.126-2.431.252-3.331.252-1.494,0-2.395-.343-2.809-1.495-.162-.504-.396-1.44-.54-1.926-.216-.595-.576-.883-1.008-.864-.415,0-.792.252-1.207.647-.648.631-2.269,2.359-3.367,3.728l-1.656-1.152c.27-.216.63-.522,1.008-.9.792-.792,5.042-5.023,6.698-6.716-1.296.054-3.871.288-4.915.378-.576.036-1.062.108-1.44.18l-.145-1.926c.396.035.973.054,1.549.054.936-.019,4.934-.252,6.32-.45.306-.036.72-.108.882-.18l1.044,1.17c-.396.271-.774.612-1.044.828v-.002ZM64,77.635l-.234,1.62c-1.782-.145-4.915-.522-7.022-.9l.288-1.603c1.909.378,5.24.774,6.968.883Z" style="fill: #fff;"/>
    <path d="M60.02,109.479c.612-.054,1.117-.162,1.549-.233,2.232-.522,4.231-2.144,4.231-4.952,0-2.538-1.53-4.537-4.213-4.861-.216,1.566-.54,3.259-1.044,4.897-1.044,3.547-2.485,5.546-4.231,5.546-1.71,0-3.295-1.963-3.295-4.861,0-3.89,3.421-7.257,7.814-7.257,4.177,0,6.824,2.936,6.824,6.591s-2.34,6.176-6.59,6.77l-1.044-1.639h-.001ZM58.778,103.952c.432-1.368.756-2.953.954-4.483-3.133.504-4.951,3.223-4.951,5.384,0,1.998.882,2.917,1.584,2.917.756,0,1.603-1.116,2.413-3.817h0Z" style="fill: #fff;"/>
    <path d="M56.509,123.14c.54.576,2.269,2.772,2.646,3.313l-1.062,1.313c-.306-.647-.99-1.782-1.584-2.736v6.878h-1.566v-6.896c-.612,1.8-1.44,3.637-2.287,4.771-.144-.486-.54-1.225-.81-1.675.972-1.188,1.999-3.331,2.593-5.168h-2.287v-1.566h2.791v-5.888h1.566v5.888h2.809v1.566h-2.809v.2ZM53.124,120.871c-.072-1.08-.468-2.772-.9-4.052l1.188-.306c.486,1.261.864,2.935.99,4.016l-1.278.342ZM59.462,116.766c-.468,1.404-1.008,3.079-1.476,4.105l-1.062-.324c.378-1.099.864-2.881,1.08-4.105l1.458.324ZM66.43,126.957v4.97h-1.566v-4.682l-5.33.972-.27-1.548,5.6-1.009v-10.245h1.566v9.957l1.999-.342.234,1.53-2.232.396h0ZM62.559,124.346c-.612-.647-1.891-1.584-2.953-2.16l.792-1.206c1.044.558,2.358,1.404,3.007,2.034,0,0-.846,1.332-.846,1.332ZM63.279,120.007c-.558-.702-1.783-1.675-2.809-2.322l.846-1.135c1.008.612,2.251,1.513,2.845,2.179,0,0-.882,1.278-.882,1.278Z" style="fill: #fff;"/>
    <path d="M58.003,148.053c-1.962.685-4.051,1.387-5.671,1.909l-.396-1.711c.648-.18,1.44-.396,2.305-.666v-4.573h-1.945v-1.549h1.945v-3.583h-2.125v-1.549h5.726v1.549h-1.999v3.583h1.71v1.549h-1.71v4.069c.612-.198,1.261-.396,1.873-.612l.288,1.584h0ZM68.645,149.619v1.531h-11.506v-1.531h5.222v-2.143h-3.907v-1.512h3.907v-1.854h-3.745v-8.103h9.219v8.103h-3.763v1.854h3.998v1.512h-3.998v2.143h4.574,0ZM60.146,139.374h2.359v-1.944h-2.359v1.944ZM60.146,142.688h2.359v-1.98h-2.359v1.98ZM66.232,137.43h-2.305v1.944h2.305v-1.944ZM66.232,140.707h-2.305v1.98h2.305v-1.98Z" style="fill: #fff;"/>
    <path d="M67.69,162.505c-1.044.828-2.376,1.711-3.511,2.341,1.062,1.747,2.503,3.115,4.339,3.871-.396.343-.918.99-1.17,1.459-3.312-1.603-5.257-4.97-6.338-9.183h-.036c-.486.414-1.062.81-1.657,1.152,3.403,2.971,3.331,7.49,1.584,8.75-.63.504-1.152.666-2.017.666-.45,0-.99-.018-1.548-.054-.036-.45-.18-1.116-.468-1.603.648.072,1.243.09,1.675.09.468,0,.846-.035,1.188-.359.541-.396.811-1.477.594-2.755-1.962,1.53-4.79,3.024-7.166,3.816-.216-.396-.558-1.026-.882-1.386,2.647-.685,5.816-2.269,7.598-3.871-.144-.307-.306-.612-.486-.919-1.531,1.062-3.835,2.215-5.636,2.863-.18-.396-.54-.954-.846-1.297,1.854-.485,4.339-1.566,5.708-2.574-.198-.216-.414-.433-.666-.63-1.387.666-2.917,1.206-4.339,1.602-.162-.306-.612-1.008-.882-1.296,2.053-.468,4.267-1.225,5.906-2.196h-3.313v-1.44h9.849v1.44h-2.647c.252.9.576,1.782.954,2.593,1.026-.667,2.161-1.513,2.899-2.197l1.314,1.116h0ZM54.511,160.255h-1.657v-3.745h6.554v-1.513h1.729v1.513h6.662v3.745h-1.692v-2.215h-11.595v2.215h0Z" style="fill: #fff;"/>
  </g>
  <g>
    <path d="M22.575,91.181c6.966-3.139,9.718-7.653,9.718-11.695,0-4.859-3.999-9.417-11.782-9.417-1.72,0-3.354.258-4.945.73-.086,2.15-.086,4.344-.086,6.364,1.892-1.849,3.87-3.87,5.934-6.062l1.548,1.849c-2.494,2.623-4.945,5.117-7.396,7.31.043,1.29.172,2.451.301,3.483l-2.322.215c-.086-.559-.129-1.118-.172-1.763-3.784,3.268-7.396,5.934-10.75,7.825-.989-1.806-1.419-3.654-1.419-5.504,0-6.32,5.16-12.47,12.126-15.093.129-2.579.258-5.073.387-7.267-.989.129-1.935.215-2.838.215-3.01,0-5.332-.859-7.009-2.924l.903-.773c1.333,1.074,3.053,1.548,5.246,1.548,1.161,0,2.451-.129,3.87-.388.215-2.881.43-4.772.43-4.772h2.322s-.172,1.634-.387,4.214c2.58-.645,5.547-1.591,8.944-2.838l.086,2.752c-3.44,1.118-6.493,2.021-9.202,2.58-.129,2.063-.301,4.472-.43,6.923,1.591-.387,3.268-.603,4.945-.603,6.622,0,14.232,3.312,14.232,11.224,0,4.729-3.182,9.933-10.578,12.899l-1.677-1.032h0ZM13.159,76.519c0-1.592.043-3.226.086-4.859-5.547,2.451-9.675,7.353-9.675,12.126,0,.946.172,1.892.516,2.795,2.236-1.247,5.418-3.827,9.116-7.267-.043-.903-.043-1.85-.043-2.795Z" style="fill: #fff;"/>
    <path d="M20.468,134.998l-11.051-22.532c-2.795,1.462-5.461,2.968-7.912,4.042l-1.505-2.021c2.451-.903,5.332-2.365,8.514-3.87l-3.569-7.31,2.15-.731,3.526,7.052c5.633-2.623,11.868-5.116,17.415-5.116,2.537,0,4.945.516,7.095,1.849-.774,7.481-5.16,9.89-10.062,9.89-3.182,0-6.579-1.032-9.288-2.322l.387-1.16c2.236.902,5.117,1.677,7.826,1.677,4.042,0,7.697-1.677,8.471-7.095-1.72-.603-3.44-.903-5.246-.903-5.203,0-10.621,2.365-15.738,4.945l11.266,22.574-2.279,1.032h0ZM25.5,100.985c-.559-.043-1.075-.086-1.591-.086-5.16,0-9.545,2.236-11.652,5.031l-1.032-.517c1.505-3.225,5.934-7.052,13.545-7.052.344,0,.688.043,1.075.043l-.344,2.58h-.001Z" style="fill: #fff;"/>
    <path d="M10.321,159.507c-3.096-3.354-9.675-6.191-9.675-6.191l.946-1.161s7.138,1.849,10.879,4.773l-2.15,2.579ZM35.948,152.584c-3.01,6.407-18.404,22.145-30.745,23.693l-1.935-2.451c12.771-1.161,28.466-16.812,31.476-22.402l1.204,1.16h0ZM16.513,151.939c-2.709-3.569-8.987-6.966-8.987-6.966l1.075-1.075s6.966,2.537,10.277,5.762l-2.365,2.279Z" style="fill: #fff;"/>
    <path d="M9.289,213.171l-.86-1.892h12.212v-16.812h-9.245l-.817-1.936h21.715l-.516,1.936h-8.729v16.812h11.954l-.516,1.892H9.289Z" style="fill: #fff;"/>
    <path d="M4.043,261.633c6.148-1.935,22.359-15.093,24.638-28.509H3.355l-.817-1.978h29.541l-.172,1.462c-2.408,16.082-20.683,28.681-26.917,30.229l-.946-1.204h0Z" style="fill: #fff;"/>
  </g>
</svg>