<?xml version="1.0" encoding="UTF-8"?>
<svg id="_レイヤー_1" data-name="レイヤー_1" xmlns="http://www.w3.org/2000/svg" xmlns:xlink="http://www.w3.org/1999/xlink" viewBox="0 0 252.498 68.182">
  <defs>
    <linearGradient id="_名称未設定グラデーション_94" data-name="名称未設定グラデーション 94" x1="0" y1="34.091" x2="252.498" y2="34.091" gradientUnits="userSpaceOnUse">
      <stop offset="0" stop-color="#baaf8d"/>
      <stop offset=".513" stop-color="#9f9678"/>
      <stop offset="1" stop-color="#8e474f"/>
    </linearGradient>
  </defs>
  <path d="M14.217,21.551c-.384,1.347-.961,3.084-1.73,5.211-.772,2.128-1.612,4.429-2.522,6.903-.912,2.474-1.854,5.019-2.827,7.633-.974,2.616-1.841,5.08-2.599,7.392-.76,2.314-1.347,4.353-1.76,6.114-.412,1.763-.531,3.033-.353,3.809.179.778.716,1.063,1.612.857,1.435-.329,3.038-1.089,4.809-2.283,1.771-1.192,3.531-2.571,5.281-4.138,1.748-1.565,3.425-3.176,5.025-4.834,1.603-1.656,2.958-3.085,4.067-4.284.35-.394.734-.64,1.152-.736.359-.082.566-.003.621.235.068.3-.08.617-.442.951-1.11,1.198-2.528,2.703-4.251,4.515-1.724,1.811-3.533,3.595-5.427,5.351-1.895,1.756-3.755,3.316-5.581,4.678-1.827,1.363-3.398,2.196-4.713,2.497-2.331.535-3.771-.393-4.319-2.785-.357-1.554-.348-3.365.027-5.434s.932-4.303,1.67-6.707c.738-2.402,1.59-4.863,2.555-7.382.963-2.518,1.92-5.002,2.867-7.454.948-2.45,1.809-4.804,2.581-7.058.772-2.254,1.303-4.263,1.591-6.028.147-.725.46-1.144.939-1.254.358-.082.713.025,1.065.322.351.297.602.775.752,1.432.165.717.134,1.543-.092,2.475ZM29.777,38.772c-.327.771-.757,1.504-1.29,2.195-.534.692-1.08,1.325-1.642,1.896-1.122,1.144-1.51,2.468-1.165,3.971.263,1.143.855,2.021,1.783,2.63.926.61,2.047.765,3.362.463,1.375-.315,2.825-.915,4.354-1.801,1.527-.884,3.03-1.875,4.51-2.97,1.479-1.094,2.871-2.23,4.174-3.411,1.301-1.179,2.409-2.252,3.32-3.216.409-.408.766-.709,1.067-.906.301-.194.541-.313.72-.354.239-.055.373-.022.4.097.082.359-.31.984-1.174,1.874-.912.964-2.035,2.104-3.37,3.416-1.336,1.314-2.767,2.616-4.295,3.906-1.53,1.292-3.11,2.424-4.742,3.4-1.633.976-3.227,1.643-4.78,1.999-2.331.535-4.143.322-5.433-.641-1.29-.962-2.128-2.28-2.512-3.954-.411-1.793-.321-3.733.27-5.82.591-2.085,1.546-3.815,2.868-5.189.607-.642,1.3-1.053,2.077-1.231,1.016-.233,1.635.132,1.855,1.093.165.723.045,1.573-.358,2.553ZM26.05,41.867c.092-.146.372-.572.84-1.278.467-.705.878-1.381,1.233-2.029.354-.648.498-1.12.43-1.42-.027-.119-.102-.166-.221-.138-.24.055-.483.3-.729.734-.247.434-.479.929-.698,1.482-.22.555-.412,1.086-.578,1.596-.166.51-.26.862-.277,1.055ZM50.522,42.389c-.562-.249-1.071-.556-1.533-.923-.461-.366-.76-.848-.897-1.446-.15-.657-.142-1.367.03-2.131.17-.762.461-1.489.868-2.181.408-.691.914-1.295,1.52-1.812.604-.516,1.235-.85,1.894-1.001.479-.11.759.015.842.373.123.538-.033,1.093-.468,1.665-.436.572-.946,1.161-1.53,1.767-.585.606-1.094,1.195-1.529,1.767-.436.572-.598,1.098-.488,1.575.11.479.438.876.981,1.191.544.316,1.17.645,1.877.985.501.263.871.367,1.11.312.299-.068.656-.434,1.07-1.095,1.271-1.864,2.615-3.682,4.034-5.456,1.418-1.772,2.619-3.117,3.604-4.036.953-.785,1.624-1.284,2.016-1.501.391-.215.734-.357,1.034-.426.479-.11.76.015.842.373.123.538-.032,1.093-.468,1.665-.435.572-.946,1.161-1.529,1.767-.585.606-1.095,1.195-1.53,1.767-.436.572-.598,1.098-.488,1.575.192.838.799,1.422,1.818,1.754,1.021.332,2.015.828,2.984,1.486,1.113-1.45,2.438-2.95,3.971-4.498,1.532-1.546,3.031-2.834,4.494-3.863.979-.664,1.797-1.073,2.456-1.224.358-.082.552-.063.579.056.069.3-.364.744-1.298,1.336-.77.492-1.577,1.086-2.423,1.783-.847.699-1.681,1.457-2.499,2.272-.819.818-1.621,1.646-2.403,2.486-.783.84-1.464,1.642-2.044,2.404.29.438.488.895.599,1.373.164.718.124,1.435-.12,2.151-.245.717-.786,1.171-1.622,1.363-.957.22-1.531-.088-1.724-.926-.068-.298-.054-.648.044-1.048.207-.739.732-1.74,1.575-3.004-.396-.349-.885-.63-1.468-.843-.584-.211-1.156-.443-1.716-.692-.562-.249-1.058-.56-1.488-.933-.433-.373-.709-.828-.833-1.366-.191-.836-.19-1.655.004-2.455-1.948,2.209-3.817,4.621-5.608,7.233-.521.75-.728,1.426-.62,2.03.106.605.07,1.338-.109,2.196-.149.728-.436,1.468-.858,2.226-.425.758-.965,1.213-1.622,1.363-.538.124-.876-.113-1.014-.712-.109-.478.058-1.396.501-2.758.424-1.167.574-2.02.451-2.558-.123-.538-.547-1.007-1.268-1.408ZM66.907,42.216c-.014-.059-.271.189-.772.744-.503.557-.678,1.163-.527,1.82.041.179.182.242.421.187.478-.11.761-.52.85-1.233.088-.712.099-1.217.029-1.517ZM98.243,29.458c.599-.954,1.255-1.939,1.966-2.952.712-1.013,1.396-1.939,2.052-2.783.656-.842,1.279-1.552,1.871-2.128.591-.575,1.097-.912,1.515-1.008.657-.151,1.13.056,1.417.619.286.564.526,1.264.718,2.101.179.778.363,1.521.56,2.232.193.711.476,1.323.846,1.835.368.514.868.902,1.494,1.167.628.266,1.433.348,2.417.248.896-.206,1.871-.618,2.926-1.237,1.053-.619,2.104-1.316,3.153-2.092,1.05-.774,2.058-1.588,3.027-2.44.969-.851,1.84-1.649,2.613-2.393.515-.496.981-.792,1.401-.888.298-.068.469-.013.51.166.068.3-.179.734-.74,1.302-.819.818-1.71,1.667-2.672,2.548-.963.881-1.982,1.714-3.061,2.495-1.08.783-2.18,1.477-3.299,2.079-1.122.604-2.25,1.035-3.385,1.295-1.614.37-2.913.196-3.896-.522-.983-.718-1.776-1.574-2.383-2.568-.604-.994-1.026-1.935-1.261-2.826-.237-.889-.385-1.328-.443-1.314-.359.082-.85.62-1.471,1.612-.622.992-1.323,2.191-2.102,3.597-.779,1.406-1.593,2.867-2.439,4.382-.849,1.516-1.685,2.81-2.508,3.879-.231.369-.611.834-1.144,1.395-.531.563-1.037.899-1.515,1.008-.599.137-1.006-.272-1.226-1.229-.151-.657-.054-1.466.292-2.427.347-.96.76-1.968,1.242-3.022.48-1.054.899-2.109,1.256-3.167.354-1.056.496-2.016.424-2.882-.178-.776-.67-1.135-1.475-1.078-.805.059-1.476.15-2.014.273-2.57.59-5.004,1.369-7.299,2.335-2.295.967-4.504,2.04-6.624,3.219.028.12.268.207.721.259.452.054.945.146,1.479.274.533.13,1.05.326,1.551.588.501.263.82.694.957,1.291.164.718.129,1.591-.106,2.62-.236,1.03-.62,2.03-1.152,3.001-.532.972-1.151,1.838-1.858,2.597-.707.761-1.449,1.229-2.226,1.407-.836.192-1.487.027-1.954-.496-.465-.521-.802-1.232-1.008-2.129-.205-.897-.278-1.902-.22-3.017.06-1.114.247-2.211.566-3.292-.042-.179-.007-.376.101-.589.108-.214.142-.41.101-.59-.055-.238-.358-.326-.91-.263-.91.147-1.393.1-1.447-.14-.042-.179.15-.443.573-.792.425-.348.854-.668,1.291-.957.827-.504,1.957-1.063,3.391-1.674,1.432-.612,2.946-1.21,4.543-1.797,1.596-.586,3.156-1.116,4.685-1.594,1.526-.476,2.738-.817,3.635-1.023.539-.123,1.143-.23,1.814-.322.671-.09,1.314-.096,1.931-.018.615.08,1.151.287,1.606.623.454.337.764.863.929,1.58.151.658.219,1.304.208,1.934-.013.633-.063,1.305-.151,2.017l.207-.331ZM78.466,39.942c.418-.096.901-.457,1.449-1.088.548-.629,1.045-1.34,1.493-2.136.445-.794.822-1.557,1.126-2.288.305-.731.423-1.244.354-1.544-.041-.179-.297-.404-.768-.673-.472-.269-.952-.379-1.444-.329-.479.11-.91.492-1.294,1.147-.386.655-.689,1.385-.913,2.191-.226.807-.371,1.612-.438,2.413-.067.803-.054,1.413.043,1.831.082.358.212.517.392.476ZM86.355,66.391c.145-.299.333-.583.565-.85.231-.266.308-.577.227-.932-.07-.304-.352-.6-.844-.887-.493-.287-1.026-.577-1.601-.873-.575-.295-1.107-.639-1.598-1.034-.491-.394-.8-.869-.928-1.428-.128-.557-.12-1.159.025-1.806.145-.646.391-1.262.736-1.85.346-.585.774-1.098,1.288-1.536.513-.438,1.048-.721,1.605-.849.405-.093.644.013.713.317.105.456-.027.927-.396,1.411s-.802.984-1.297,1.498c-.496.514-.928,1.013-1.297,1.498-.369.485-.507.93-.414,1.335.128.559.54.957,1.235,1.198.695.24,1.405.545,2.13.912.3.145.538.251.713.317.175.068.339.082.491.047.201-.046.517-.305.942-.776.604-.619,1.336-1.267,2.194-1.944.857-.677,1.755-1.363,2.689-2.057.934-.694,1.828-1.326,2.686-1.896.856-.569,1.565-1.026,2.127-1.368.471-.268.86-.438,1.164-.507.354-.081.55-.046.584.106.047.203-.326.555-1.117,1.057-.523.28-1.38.85-2.568,1.709-1.19.861-2.392,1.789-3.603,2.787-1.212.998-2.259,1.959-3.141,2.881-.882.923-1.271,1.612-1.166,2.068.163.71.067,1.399-.286,2.066-.354.669-.733,1.049-1.139,1.142-.507.116-.812-.054-.917-.51-.069-.304-.005-.719.194-1.245ZM104.35,47.859c.912-.209,1.774.007,2.589.646.813.641,1.319,1.392,1.518,2.253.088.62.07,1.064-.055,1.333-.126.269-.314.432-.567.49-.304.07-.554-.086-.748-.469-.195-.382-.385-.804-.571-1.269-.187-.464-.39-.883-.609-1.261-.221-.376-.533-.518-.938-.425-.456.105-.944.537-1.463,1.296-.521.76-.989,1.681-1.407,2.764-.419,1.084-.728,2.235-.928,3.454-.201,1.22-.185,2.337.048,3.35.209.912.661,1.609,1.359,2.089.696.481,1.703.57,3.022.267,1.418-.325,2.993-1.019,4.724-2.084,1.729-1.063,3.469-2.262,5.217-3.597,1.747-1.334,3.386-2.683,4.913-4.048,1.527-1.363,2.772-2.503,3.737-3.418.347-.346.648-.601.903-.768.256-.165.46-.266.612-.3.201-.046.321.006.356.159.069.304-.198.766-.803,1.384-1.632,1.495-3.264,2.99-4.894,4.484-1.632,1.494-3.238,2.863-4.82,4.106-1.583,1.244-3.112,2.302-4.593,3.175-1.48.873-2.855,1.455-4.121,1.746-2.281.523-4.052.303-5.313-.662-1.262-.963-2.072-2.232-2.434-3.803-.267-1.165-.326-2.352-.176-3.561.148-1.207.468-2.321.954-3.34.486-1.019,1.114-1.883,1.886-2.594.77-.709,1.637-1.176,2.601-1.396ZM151.026,43.072c.448-.369.8-.583,1.054-.642.253-.058.403.015.449.217.059.254-.086.554-.433.9-.734.756-1.622,1.6-2.661,2.531-1.04.932-2.124,1.848-3.251,2.746-1.128.899-2.279,1.697-3.452,2.393-1.175.697-2.269,1.161-3.282,1.393-.812.186-1.522.163-2.137-.07-.613-.232-1.149-.589-1.606-1.072-.458-.481-.831-1.062-1.12-1.744-.289-.68-.516-1.375-.679-2.085-.069-.304-.137-.595-.2-.874-.063-.278-.1-.55-.107-.816-1.158,1.226-2.257,2.666-3.29,4.316-1.036,1.652-1.997,3.393-2.884,5.223-.888,1.832-1.686,3.641-2.396,5.431-.709,1.791-1.299,3.407-1.769,4.847-.07.39-.258.62-.562.689-.253.058-.534-.01-.847-.206-.312-.195-.533-.464-.666-.808.213-3.73.819-7.417,1.823-11.062,1.005-3.644,2.16-7.27,3.467-10.878,1.306-3.607,2.603-7.199,3.89-10.776,1.286-3.576,2.313-7.185,3.077-10.829.071-.389.259-.619.562-.689.253-.058.544.049.874.32.329.272.558.686.686,1.243.174.76.124,1.706-.15,2.835-.705,2.51-1.521,5.058-2.447,7.644-.927,2.587-1.892,5.183-2.896,7.786-1.003,2.605-1.968,5.201-2.896,7.787-.927,2.587-1.716,5.129-2.371,7.627,1.039-2.212,2.244-4.343,3.615-6.391,1.371-2.048,2.885-3.875,4.544-5.484.448-.369.774-.578.977-.624.405-.093.696.241.87,1.001.128.559.228,1.162.296,1.813.069.652.18,1.307.331,1.965.209.912.562,1.699,1.061,2.358.498.66,1.353.958,2.565.892.811-.186,1.766-.617,2.863-1.297,1.098-.678,2.197-1.464,3.301-2.358,1.102-.893,2.156-1.815,3.166-2.767,1.009-.952,1.886-1.779,2.631-2.484ZM156.584,38.697c-.278.654-.643,1.275-1.095,1.861-.452.587-.916,1.123-1.392,1.607-.951.97-1.28,2.092-.988,3.366.223.969.727,1.713,1.513,2.23.785.518,1.735.649,2.851.393,1.165-.267,2.396-.776,3.691-1.527,1.295-.75,2.568-1.59,3.823-2.518,1.254-.928,2.434-1.891,3.538-2.892,1.104-1,2.043-1.909,2.815-2.727.348-.346.648-.601.904-.767.255-.165.459-.266.611-.3.202-.046.315-.019.339.082.07.304-.263.834-.996,1.589-.772.818-1.725,1.784-2.856,2.896-1.133,1.114-2.346,2.218-3.642,3.311-1.296,1.095-2.637,2.056-4.021,2.883-1.384.828-2.735,1.393-4.053,1.695-1.976.453-3.512.273-4.605-.544-1.094-.816-1.804-1.933-2.13-3.353-.349-1.52-.271-3.165.229-4.934.501-1.768,1.312-3.234,2.432-4.399.516-.545,1.103-.893,1.762-1.044.86-.198,1.386.112,1.572.927.141.613.039,1.334-.303,2.164ZM153.424,41.321c.078-.124.315-.485.712-1.083.396-.597.744-1.171,1.046-1.72.3-.549.422-.95.364-1.204-.023-.101-.086-.14-.188-.117-.203.047-.409.254-.617.622-.209.368-.407.787-.592,1.256-.186.47-.35.92-.49,1.353-.141.433-.22.731-.235.894ZM198.92,32.084c.324-.447.663-.712,1.019-.794.253-.058.403.015.449.217.059.254-.126.617-.55,1.087-.891,1.004-1.895,2.035-3.013,3.092s-2.323,2.027-3.613,2.909c-1.292.884-2.645,1.675-4.058,2.372-1.414.698-2.806,1.204-4.174,1.518-1.064.244-1.997.365-2.798.362-.801-.002-1.455-.066-1.964-.189-.509-.124-.9-.26-1.175-.411-.274-.15-.438-.22-.487-.208-.103.023-.208.088-.316.193-.109.105-.203.22-.281.345-.312.5-.674,1.075-1.084,1.729s-.866,1.279-1.37,1.875c-.504.596-1.06,1.137-1.669,1.623-.607.487-1.241.805-1.9.956-.709.163-1.339.094-1.889-.207-.548-.301-.916-.856-1.103-1.668-.221-.962-.219-2.003.004-3.122.224-1.118.595-2.177,1.112-3.176.519-1,1.153-1.892,1.906-2.678.753-.785,1.574-1.334,2.463-1.646-.349-1.521-.469-3.266-.361-5.239.108-1.972.423-4.031.943-6.179.521-2.146,1.225-4.255,2.109-6.326.887-2.07,1.927-3.989,3.121-5.758,1.195-1.767,2.545-3.265,4.052-4.491,1.506-1.226,3.12-2.036,4.844-2.432,1.014-.232,1.914-.145,2.701.261.786.408,1.36,1.396,1.721,2.966.209.912.161,2.098-.145,3.554-.307,1.458-.802,3.079-1.486,4.862-.685,1.785-1.516,3.683-2.495,5.694-.979,2.012-2.024,4.026-3.135,6.041-1.112,2.016-2.271,4.002-3.476,5.959-1.205,1.957-2.365,3.758-3.482,5.401-.172.413-.252.645-.24.695.035.152.253.29.654.41.627.176,1.307.288,2.037.333.73.046,1.603-.047,2.616-.28,1.267-.291,2.573-.763,3.917-1.418,1.343-.654,2.657-1.436,3.942-2.345,1.285-.907,2.494-1.865,3.623-2.872,1.13-1.006,2.14-2.011,3.029-3.016ZM176.049,41.573c.323-.447.457-.798.399-1.052-.023-.101-.122-.292-.292-.573-.284-.307-.572-.749-.864-1.322-.132-.342-.249-.503-.35-.48-.103.024-.25.191-.444.502-.363.511-.729,1.127-1.097,1.852-.367.725-.697,1.44-.988,2.147-.29.707-.527,1.362-.709,1.964-.183.602-.27,1.036-.262,1.301.046.203.146.287.298.252.304-.07.652-.296,1.044-.68.393-.383.801-.81,1.227-1.282.425-.47.81-.946,1.153-1.425.343-.479.639-.879.885-1.203ZM177.818,39.166c1.698-2.363,3.465-5.009,5.302-7.939,1.835-2.928,3.482-5.801,4.944-8.617,1.461-2.816,2.601-5.411,3.416-7.786.815-2.374,1.072-4.22.77-5.538-.244-1.064-.691-1.735-1.342-2.013-.651-.277-1.406-.317-2.268-.12-1.572.361-3.037,1.125-4.397,2.289-1.36,1.166-2.593,2.596-3.697,4.29-1.105,1.694-2.056,3.54-2.852,5.536-.795,1.997-1.428,4.009-1.896,6.037-.469,2.028-.757,3.975-.861,5.839-.106,1.865-.021,3.514.254,4.944.58-.026,1.133.114,1.656.42.523.307.856.764.996,1.372.093.406.061.734-.096.982-.156.25-.361.403-.614.461-.203.047-.35-.012-.441-.179-.091-.165-.143-.274-.154-.325-.108-.241-.238-.518-.39-.831-.152-.311-.342-.494-.567-.55.194.383.371.743.528,1.079.157.338.347.64.568.91.233.32.426.462.578.427.102-.023.289-.252.562-.689ZM215.047,43.429c-.006-1.651.158-3.437.492-5.354.333-1.917.739-3.811,1.218-5.681.478-1.87.991-3.641,1.541-5.315.549-1.673,1.019-3.061,1.406-4.164l.141-.432c.587-1.628,1.131-3.207,1.634-4.737.503-1.528.983-3.039,1.441-4.532-.971,2.517-2.045,5.098-3.226,7.742-1.182,2.646-2.383,5.082-3.604,7.309-1.224,2.229-2.449,4.097-3.676,5.605-1.229,1.51-2.374,2.385-3.438,2.63-.71.163-1.304.073-1.782-.271-.479-.343-.864-.802-1.156-1.375s-.488-.848-.589-.825c-.103.024-.328.315-.68.876-.72,1.285-1.518,2.576-2.394,3.87-.877,1.295-1.771,2.047-2.684,2.256-.608.14-1.113.029-1.516-.332-.403-.36-.669-.82-.797-1.378-.14-.608-.171-1.267-.094-1.979.076-.71.221-1.424.429-2.139.21-.715.458-1.438.742-2.171.286-.732.548-1.392.787-1.981.265-.701.626-1.104,1.083-1.209.608-.14,1.017.247,1.226,1.159.187.811.087,1.661-.295,2.548-.345.827-.657,1.671-.939,2.536-.281.865-.381,1.475-.3,1.829.034.152.103.216.204.193.202-.046.514-.318.934-.814.419-.496.859-1.077,1.32-1.744.46-.666.905-1.34,1.335-2.027.431-.685.781-1.246,1.056-1.682.155-.248.386-.409.689-.479.507-.116.872.308,1.093,1.27.151.659.403,1.295.758,1.907.353.613.884.837,1.595.674.861-.198,1.822-1.005,2.885-2.423,1.062-1.416,2.165-3.178,3.311-5.281,1.145-2.103,2.277-4.43,3.399-6.982,1.122-2.551,2.176-5.047,3.164-7.488.987-2.44,1.856-4.694,2.61-6.761.752-2.066,1.342-3.681,1.769-4.847.332-.877.65-1.35.955-1.419.253-.058.474.091.663.448.188.357.347.814.475,1.372.14.608.227,1.282.264,2.02.036.74-.002,1.334-.111,1.786-.263,1.181-.648,2.577-1.16,4.188-.51,1.611-1.056,3.243-1.637,4.897-.581,1.654-1.162,3.255-1.74,4.8-.578,1.547-1.042,2.84-1.39,3.88-.282.865-.736,2.317-1.362,4.354-.627,2.038-1.256,4.237-1.888,6.595-.634,2.36-1.186,4.661-1.658,6.903-.473,2.243-.671,3.995-.594,5.258.065.519-.028.807-.282.865-.203.047-.458-.135-.766-.545-.307-.41-.541-.968-.704-1.679-.116-.506-.169-1.082-.156-1.725ZM235.876,20.506c-.278.654-.642,1.275-1.094,1.861-.453.587-.916,1.123-1.392,1.607-.951.97-1.28,2.092-.988,3.366.223.969.726,1.713,1.512,2.23.785.518,1.735.649,2.852.393,1.165-.267,2.395-.776,3.69-1.527,1.295-.75,2.569-1.59,3.824-2.518,1.254-.928,2.433-1.891,3.538-2.892,1.103-1,2.043-1.909,2.815-2.727.347-.346.648-.601.904-.767.254-.165.459-.266.611-.3.201-.046.315-.019.339.082.069.304-.263.834-.996,1.589-.772.818-1.725,1.784-2.856,2.896-1.133,1.114-2.347,2.217-3.642,3.311-1.297,1.095-2.637,2.056-4.021,2.883-1.385.828-2.735,1.393-4.053,1.695-1.977.453-3.513.273-4.606-.543-1.093-.816-1.804-1.933-2.129-3.353-.349-1.52-.272-3.165.228-4.934.501-1.768,1.312-3.234,2.433-4.399.515-.545,1.102-.893,1.761-1.044.861-.198,1.386.112,1.573.927.141.613.038,1.334-.304,2.164ZM232.717,23.13c.078-.124.314-.485.712-1.084.396-.597.744-1.171,1.046-1.72.3-.549.422-.95.363-1.204-.023-.101-.086-.14-.187-.117-.203.047-.409.254-.617.622-.209.368-.408.787-.593,1.256-.186.47-.349.92-.489,1.353-.142.432-.221.731-.235.894Z" style="fill: url(#_名称未設定グラデーション_94);"/>
</svg>