<?xml version="1.0" encoding="UTF-8"?>
<svg id="_レイヤー_1" data-name="レイヤー 1" xmlns="http://www.w3.org/2000/svg" xmlns:xlink="http://www.w3.org/1999/xlink" viewBox="0 0 123 122.93">
  <defs>
    <linearGradient id="_名称未設定グラデーション_87" data-name="名称未設定グラデーション 87" x1="0" y1="61.465" x2="123" y2="61.465" gradientUnits="userSpaceOnUse">
      <stop offset="0" stop-color="#baaf8d"/>
      <stop offset=".5" stop-color="#9f9678"/>
      <stop offset="1" stop-color="#4f4b3c"/>
    </linearGradient>
  </defs>
  <ellipse cx="61.5" cy="61.465" rx="59.5" ry="59.465" style="fill: none; stroke: url(#_名称未設定グラデーション_87); stroke-miterlimit: 10; stroke-width: 4px;"/>
  <g>
    <path d="M34.366,83.8c-.007.222-.009.441-.009.657,0,.228.015.486.045.774.029.288.045.558.045.81h-.216c-.036-.346-.133-.686-.288-1.019-.156-.334-.357-.635-.604-.904-.246-.268-.534-.483-.864-.644-.33-.161-.692-.242-1.089-.242-.312,0-.603.06-.873.18-.27.12-.501.278-.692.476-.192.197-.342.433-.45.708-.108.275-.162.562-.162.861,0,.443.114.811.342,1.104.229.293.516.541.864.744.348.204.726.386,1.134.548.408.161.792.332,1.152.511.372.191.723.395,1.053.611.33.216.615.462.855.738.239.276.432.597.575.963.145.366.217.801.217,1.305s-.103.966-.307,1.386c-.204.42-.485.78-.846,1.08-.36.3-.786.534-1.278.702s-1.032.252-1.62.252c-.6,0-1.137-.099-1.61-.297-.475-.198-.945-.453-1.413-.765l-.414.702h-.18c0-.372.006-.666.018-.882.012-.216.018-.443.018-.684,0-.252-.006-.525-.018-.819-.012-.294-.018-.633-.018-1.017h.216c.023.456.117.891.278,1.305.162.414.385.777.666,1.089.282.312.621.564,1.018.756.396.192.846.288,1.35.288.372,0,.723-.06,1.054-.18.329-.12.617-.291.863-.513.246-.222.438-.483.576-.783s.207-.63.207-.99c0-.372-.09-.702-.27-.99-.181-.288-.411-.543-.693-.765-.282-.222-.597-.42-.945-.594-.348-.174-.684-.339-1.008-.495-.384-.18-.762-.378-1.134-.594-.372-.216-.705-.468-.999-.756s-.531-.621-.711-.999-.271-.825-.271-1.341c0-.432.093-.839.279-1.224.186-.384.435-.72.747-1.008.312-.288.672-.516,1.08-.685.407-.167.834-.252,1.278-.252.455,0,.894.081,1.313.243s.816.394,1.188.693l.378-.685h.18c0,.205-.003.417-.009.639Z" style="fill: #7d765f;"/>
    <path d="M36.75,91.459c0-.6.108-1.161.324-1.683s.516-.972.9-1.35c.384-.378.834-.675,1.35-.891.516-.216,1.08-.324,1.692-.324.144,0,.342.015.594.045.252.03.495.087.729.171.234.084.438.207.612.369s.261.375.261.639c0,.168-.048.321-.144.459-.097.138-.258.207-.486.207-.168,0-.312-.066-.432-.198-.12-.132-.18-.306-.18-.522,0-.096.009-.189.026-.279.019-.09.027-.141.027-.153,0-.072-.033-.138-.1-.198-.065-.06-.149-.111-.252-.153-.102-.042-.21-.072-.323-.09-.114-.018-.226-.027-.333-.027-.48,0-.886.115-1.215.344-.331.229-.598.531-.802.904-.204.374-.351.79-.44,1.248s-.136.916-.136,1.375c0,1.133.237,2.023.712,2.668.474.645,1.106.967,1.898.967.288,0,.552-.034.792-.103.24-.068.453-.158.639-.27.187-.112.352-.229.495-.354.145-.124.264-.242.36-.354l.126.126c-.384.468-.828.813-1.332,1.035s-1.026.333-1.566.333c-.527,0-1.02-.087-1.476-.261s-.858-.429-1.206-.765-.621-.747-.819-1.233c-.197-.486-.297-1.047-.297-1.683Z" style="fill: #7d765f;"/>
    <path d="M46.974,94.536c.061.132.145.234.252.307.108.072.234.117.378.135.145.018.307.027.486.027v.181c-.288,0-.521-.003-.702-.009-.18-.006-.336-.012-.468-.018-.132-.006-.258-.012-.378-.018s-.258-.009-.414-.009c-.168,0-.309.003-.423.009s-.237.012-.369.018c-.132.006-.288.012-.468.018-.181.006-.414.009-.702.009v-.18c.18,0,.342-.009.486-.027.144-.018.27-.063.378-.135.107-.072.191-.174.252-.306.06-.132.09-.318.09-.558v-9.306c0-.228-.03-.411-.09-.549-.061-.138-.145-.243-.252-.315-.108-.072-.234-.117-.378-.135-.145-.018-.307-.027-.486-.027v-.18c.443-.036.894-.111,1.35-.225.456-.114.906-.249,1.351-.405v5.778c.3-.432.675-.776,1.125-1.035s1.017-.387,1.701-.387c.647,0,1.146.123,1.493.369.349.246.604.543.766.891.162.349.258.706.288,1.071.029.366.045.663.045.891v3.564c0,.24.029.426.09.558.06.132.144.234.252.306.108.072.234.117.378.135.145.018.306.027.486.027v.18c-.288,0-.522-.003-.702-.009-.18-.006-.336-.012-.468-.018-.133-.006-.259-.012-.378-.018-.12-.006-.259-.009-.414-.009-.169,0-.31.003-.424.009-.113.006-.236.012-.368.018-.133.006-.288.012-.469.018-.18.006-.414.009-.701.009v-.181c.18,0,.342-.009.485-.027.145-.018.271-.063.378-.135.108-.072.192-.175.252-.307.061-.132.091-.319.091-.56v-3.735c0-.145-.01-.364-.027-.659-.019-.294-.075-.586-.171-.875-.097-.288-.246-.544-.45-.767s-.498-.334-.882-.334c-.312,0-.609.058-.892.171-.281.114-.53.277-.747.487-.216.21-.39.463-.521.758-.132.294-.198.623-.198.983v3.97c0,.241.03.427.09.56Z" style="fill: #7d765f;"/>
    <path d="M61.68,93.961c-.132.156-.291.318-.478.486-.186.168-.404.324-.656.468s-.534.261-.847.351c-.312.09-.66.135-1.044.135-.504,0-.993-.087-1.467-.261s-.894-.429-1.26-.765-.663-.753-.892-1.251c-.228-.498-.342-1.065-.342-1.701,0-.576.103-1.116.307-1.62.203-.504.488-.948.854-1.332.366-.384.795-.687,1.287-.909.492-.222,1.026-.333,1.602-.333.42,0,.825.069,1.216.207.39.138.731.333,1.025.585s.537.552.729.9c.191.348.3.726.324,1.134,0,.072-.004.138-.01.198s-.039.09-.099.09h-5.454c-.024.169-.042.346-.054.533-.013.187-.019.364-.019.533,0,1.157.252,2.042.756,2.656.505.614,1.158.921,1.963.921.323,0,.611-.039.863-.119.252-.079.478-.177.675-.292.198-.116.369-.241.514-.375.144-.134.27-.256.378-.366l.126.126ZM60.204,90.073c.192,0,.288-.096.288-.288,0-.228-.026-.477-.081-.747-.054-.27-.146-.519-.278-.747-.133-.228-.312-.417-.54-.567-.229-.15-.522-.225-.882-.225-.408,0-.744.087-1.009.261-.264.174-.477.393-.639.657s-.282.543-.36.837c-.078.294-.141.567-.188.819h3.689Z" style="fill: #7d765f;"/>
    <path d="M69.402,84.691c0-.228-.03-.411-.09-.549-.061-.138-.145-.243-.253-.315-.107-.072-.233-.117-.378-.135-.144-.018-.306-.027-.485-.027v-.18c.443-.036.896-.111,1.358-.225.462-.114.915-.249,1.359-.405v10.224c0,.588.11.984.333,1.188.222.204.537.306.945.306v.18c-.312.06-.676.147-1.089.261-.414.114-.802.225-1.161.333-.061-.156-.117-.348-.171-.576-.055-.228-.105-.474-.153-.738-.276.349-.612.664-1.008.945-.396.282-.906.423-1.53.423-.601,0-1.128-.114-1.584-.342-.456-.228-.837-.534-1.143-.918-.307-.384-.538-.831-.693-1.341-.156-.51-.234-1.046-.234-1.611,0-.516.084-1.014.252-1.494.168-.479.414-.9.738-1.26.324-.36.717-.648,1.179-.864.462-.216.987-.324,1.575-.324.528,0,.972.114,1.332.342s.66.474.9.738v-3.636ZM65.135,91.307c0,.29.024.649.072,1.079s.146.843.297,1.242.369.74.657,1.024.678.426,1.17.426c.576,0,1.064-.217,1.467-.652s.604-1.105.604-2.013v-2.756c0-.241-.049-.486-.145-.734-.096-.248-.233-.471-.414-.671-.18-.199-.404-.363-.675-.49-.27-.127-.579-.19-.927-.19-.396,0-.727.109-.99.327s-.48.501-.647.852c-.169.351-.288.75-.36,1.196-.072.447-.108.901-.108,1.36Z" style="fill: #7d765f;"/>
    <path d="M79.23,88.05c-.061-.139-.145-.244-.252-.316-.108-.072-.234-.117-.379-.135-.144-.018-.306-.027-.485-.027v-.181c.252,0,.459.003.621.009.162.006.3.012.414.018.113.006.219.012.314.018s.21.009.342.009c.108,0,.195-.003.262-.009.065-.006.135-.012.207-.018.071-.006.149-.012.233-.018.084-.006.192-.009.324-.009v5.652c0,.588.108.984.324,1.188s.533.306.954.306v.18c-.156.036-.34.075-.549.117-.211.042-.427.09-.648.144-.223.054-.441.111-.657.171s-.414.114-.594.162c-.12-.324-.223-.726-.306-1.206-.288.444-.69.771-1.206.981-.517.21-1.062.315-1.639.315-.744,0-1.358-.207-1.845-.621s-.729-1.077-.729-1.989v-4.194c0-.228-.03-.411-.091-.549-.06-.138-.144-.243-.252-.315-.107-.072-.233-.117-.378-.135-.144-.018-.306-.027-.485-.027v-.18c.252,0,.452.003.603.009.15.006.285.012.405.018.12.006.233.012.342.018s.246.009.414.009c.084,0,.156-.003.216-.009.061-.006.123-.012.189-.018.065-.006.141-.012.225-.018.084-.006.192-.009.324-.009v5.232c0,.156.009.367.027.631.018.265.077.526.18.785.102.259.255.481.459.668s.498.279.882.279c.288,0,.573-.051.855-.153.281-.102.53-.247.746-.433.217-.186.391-.406.522-.658s.198-.536.198-.848v-4.294c0-.228-.03-.412-.09-.55Z" style="fill: #7d765f;"/>
    <path d="M84.035,84.196c-.061-.138-.145-.243-.252-.315-.108-.072-.234-.117-.378-.135-.145-.018-.307-.027-.486-.027v-.18c.443-.036.896-.108,1.359-.216.461-.108.914-.246,1.358-.414v11.07c0,.24.03.426.09.558.061.132.145.234.252.306.108.072.234.117.378.135.145.018.307.027.486.027v.18c-.288,0-.521-.003-.702-.009-.18-.006-.336-.012-.468-.018-.132-.006-.258-.012-.378-.018s-.258-.009-.414-.009c-.168,0-.309.003-.423.009s-.237.012-.369.018c-.132.006-.288.012-.468.018-.181.006-.414.009-.702.009v-.18c.18,0,.342-.009.486-.027.144-.018.27-.063.378-.135.107-.072.191-.174.252-.306.06-.132.09-.318.09-.558v-9.234c0-.228-.03-.411-.09-.549Z" style="fill: #7d765f;"/>
    <path d="M94.907,93.961c-.132.156-.291.318-.478.486-.186.168-.404.324-.656.468s-.534.261-.847.351c-.312.09-.66.135-1.044.135-.504,0-.993-.087-1.467-.261s-.894-.429-1.26-.765-.663-.753-.892-1.251c-.228-.498-.342-1.065-.342-1.701,0-.576.103-1.116.307-1.62.203-.504.488-.948.854-1.332.366-.384.795-.687,1.287-.909.492-.222,1.026-.333,1.602-.333.42,0,.825.069,1.216.207.39.138.731.333,1.025.585s.537.552.729.9c.191.348.3.726.324,1.134,0,.072-.004.138-.01.198s-.039.09-.099.09h-5.454c-.024.169-.042.346-.054.533-.013.187-.019.364-.019.533,0,1.157.252,2.042.756,2.656.505.614,1.158.921,1.963.921.323,0,.611-.039.863-.119.252-.079.478-.177.675-.292.198-.116.369-.241.514-.375.144-.134.27-.256.378-.366l.126.126ZM93.43,90.073c.192,0,.288-.096.288-.288,0-.228-.026-.477-.081-.747-.054-.27-.146-.519-.278-.747-.133-.228-.312-.417-.54-.567-.229-.15-.522-.225-.882-.225-.408,0-.744.087-1.009.261-.264.174-.477.393-.639.657s-.282.543-.36.837c-.078.294-.141.567-.188.819h3.689Z" style="fill: #7d765f;"/>
  </g>
  <line x1="23" y1="75.324" x2="100" y2="75.324" style="fill: none; opacity: .6; stroke: #7d765f; stroke-miterlimit: 10;"/>
  <g>
    <path d="M81.951,44.436c0,.377-.494.638-1.017.841-.493.203-.521.232-.521,3.365,0,3.307.115,8.934.145,11.834.029,1.538.116,1.944.116,2.843,0,2.988-2.612,4.032-3.686,4.032-.146,0-.232-.058-.378-.203-.406-.493-4.005-1.943-4.005-2.146q0-.029.059-.029c.058,0,.174,0,.319.029,1.422.29,2.611.436,3.54.436,1.684,0,2.525-.551,2.525-1.943,0-2.263.028-4.583.028-6.788h-10.012c-.697,4.38-2.409,8.325-6.705,10.472-.551.261-1.016.406-1.247.406-.088,0-.146,0-.146-.058,0-.116.261-.377.871-.754,5.165-3.277,6.152-10.007,6.152-15.896v-.261c0-.319,0-5.424-.696-8.035-.029-.087-.029-.146-.029-.203,0-.029,0-.058.058-.058.232,0,2.235.899,2.786,1.247l.203.145h8.04c.174,0,.231-.145.348-.29.059-.087.609-.783.958-.783.232,0,2.293,1.16,2.293,1.799ZM79.077,50.556h-9.605v.464c-.029,1.625-.088,3.278-.291,4.873h9.896v-5.337ZM78.99,44.899c0-.174-.145-.406-.348-.406h-8.649c-.058.029-.115.087-.174.146-.29.203-.406.203-.406,1.015,0,.203.029.493.029.842.058,1.189.058,2.233.058,3.22h9.577c0-2.234-.087-4.612-.087-4.815Z" style="fill: #7d765f;"/>
    <path d="M49.96,65.979c-7.15,0-10.779-6.4-10.779-13.013,0-19.358,19.316-28.051,20.33-28.051.427,0,.747.374.747.747,0,.32-.213.693-.641.854-9.551,3.893-16.381,15.839-16.381,26.451,0,8.053,3.842,11.786,6.777,11.786,5.656,0,7.043-6.613,7.043-9.866,0-5.173-2.348-8.266-5.389-8.266-1.548,0-3.309.8-5.069,2.56-.16.16-.374.213-.534.213-.48,0-.854-.374-.854-.8,0-.8,3.095-4.266,7.417-4.266,4.375,0,8.377,3.626,8.377,10.399,0,5.439-3.842,11.252-11.045,11.252Z" style="fill: #7d765f;"/>
  </g>
</svg>