<?xml version="1.0" encoding="UTF-8"?>
<svg id="_レイヤー_1" xmlns="http://www.w3.org/2000/svg" viewBox="0 0 1024 99.999">
  <g style="opacity: .3;">
    <path d="M36.856.52c4.955,0,9.635.851,14.04,2.55,4.404,1.701,8.293,4.128,11.666,7.284,3.371,3.158,6.04,6.972,8.001,11.447,1.962,4.474,2.943,9.452,2.943,14.932,0,5.619-.981,10.649-2.943,15.089-1.961,4.44-4.612,8.22-7.949,11.342-3.339,3.122-7.226,5.515-11.666,7.181-4.439,1.665-9.136,2.497-14.092,2.497-5.301,0-10.187-.851-14.66-2.55-4.475-1.699-8.362-4.126-11.666-7.284-3.304-3.156-5.885-6.972-7.743-11.446-1.858-4.475-2.787-9.486-2.787-15.037,0-5.271.929-10.109,2.787-14.516,1.858-4.404,4.421-8.203,7.691-11.394,3.268-3.19,7.157-5.671,11.666-7.44,4.507-1.77,9.411-2.654,14.711-2.654h0ZM36.856,2.393c-4.062,0-7.658.953-10.788,2.858-3.133,1.906-5.748,4.451-7.846,7.637-2.101,3.187-3.683,6.857-4.749,11.013-1.068,4.156-1.6,8.452-1.6,12.883,0,4.711.532,9.144,1.6,13.3,1.066,4.156,2.649,7.776,4.749,10.858,2.098,3.083,4.713,5.524,7.846,7.325,3.131,1.802,6.727,2.701,10.788,2.701,3.854,0,7.312-.884,10.375-2.649,3.062-1.765,5.66-4.173,7.795-7.222,2.133-3.047,3.768-6.666,4.904-10.858,1.135-4.19,1.703-8.675,1.703-13.455,0-4.71-.568-9.16-1.703-13.352-1.135-4.19-2.771-7.844-4.904-10.96-2.134-3.117-4.733-5.575-7.795-7.377-3.063-1.802-6.522-2.702-10.375-2.702h0Z" style="fill: #fff;"/>
    <path d="M87.854,32.414c-.345-.797-.826-1.405-1.445-1.821s-1.342-.677-2.168-.78c-.826-.104-1.755-.157-2.787-.157v-1.04c2.409-.276,4.731-.745,6.969-1.405,2.236-.659,4.455-1.473,6.659-2.446.343,1.735.636,3.522.877,5.359.241,1.839.395,3.348.465,4.526,1.582-2.913,3.836-5.219,6.762-6.92,2.924-1.699,6.246-2.549,9.962-2.549,3.371,0,6.022.624,7.949,1.873,1.926,1.249,3.371,2.775,4.336,4.578.963,1.805,1.549,3.694,1.755,5.672.207,1.976.31,3.73.31,5.255v21.852c0,1.389.171,2.464.516,3.226.343.764.826,1.353,1.445,1.769.619.417,1.342.677,2.168.78.826.104,1.755.157,2.787.157v1.04c-1.652,0-2.994-.016-4.026-.052-1.033-.034-1.928-.069-2.684-.104-.758-.034-1.481-.069-2.168-.104-.689-.034-1.481-.052-2.374-.052-.965,0-1.773.017-2.426.052-.655.035-1.36.07-2.116.104-.758.035-1.652.07-2.684.104-1.033.035-2.374.052-4.026.052v-1.04c1.033,0,1.962-.053,2.787-.157.826-.103,1.549-.363,2.168-.782.619-.416,1.1-1.008,1.445-1.774.344-.764.516-1.842.516-3.234v-22.322c0-.834-.052-2.05-.155-3.651-.103-1.599-.431-3.216-.981-4.851-.552-1.635-1.411-3.043-2.581-4.224-1.171-1.182-2.823-1.774-4.955-1.774-1.584,0-3.166.366-4.749,1.095-1.584.73-2.994,1.721-4.233,2.973-1.239,1.251-2.237,2.677-2.994,4.277-.758,1.6-1.135,3.268-1.135,5.006v23.47c0,1.392.171,2.47.516,3.234.343.766.826,1.358,1.445,1.774.619.419,1.342.679,2.168.782.826.104,1.755.157,2.787.157v1.04c-1.652,0-2.994-.016-4.026-.052-1.033-.034-1.928-.069-2.684-.104-.758-.034-1.481-.069-2.168-.104-.689-.034-1.481-.052-2.374-.052-.965,0-1.773.017-2.426.052-.655.035-1.36.07-2.117.104-.758.035-1.652.07-2.684.104-1.032.035-2.374.052-4.026.052v-1.04c1.033,0,1.962-.053,2.787-.157.826-.103,1.549-.363,2.168-.78.619-.416,1.1-1.005,1.445-1.769.344-.762.516-1.837.516-3.226v-28.824c0-1.317-.173-2.376-.516-3.174v.002Z" style="fill: #fff;"/>
    <path d="M145.976,7.857c-.345-.797-.826-1.405-1.445-1.821-.619-.417-1.342-.677-2.168-.781s-1.755-.156-2.787-.156v-1.04c2.545-.208,5.144-.624,7.795-1.249,2.649-.624,5.247-1.421,7.794-2.393v63.995c0,1.389.171,2.464.516,3.226.343.764.826,1.353,1.445,1.769.619.417,1.342.677,2.168.78.826.104,1.755.157,2.787.157v1.04c-1.652,0-2.994-.016-4.026-.052-1.033-.034-1.928-.069-2.684-.104-.758-.034-1.481-.069-2.168-.104-.689-.034-1.481-.052-2.375-.052-.965,0-1.773.017-2.426.052-.655.035-1.36.07-2.116.104-.758.035-1.652.07-2.684.104-1.033.035-2.374.052-4.026.052v-1.04c1.033,0,1.962-.053,2.787-.157.826-.103,1.549-.363,2.168-.78.619-.416,1.1-1.005,1.445-1.769.343-.762.516-1.837.516-3.226V11.03c0-1.317-.173-2.375-.516-3.173h0Z" style="fill: #fff;"/>
    <path d="M175.192,35.692c0-1.318-.173-2.376-.516-3.174-.345-.797-.826-1.405-1.445-1.821-.619-.417-1.342-.677-2.168-.781-.826-.103-1.755-.156-2.787-.156v-1.04c2.545-.208,5.144-.624,7.795-1.249,2.649-.624,5.247-1.421,7.794-2.393v39.333c0,1.389.171,2.464.516,3.226.343.764.826,1.353,1.445,1.769.619.417,1.342.677,2.168.78.826.104,1.755.157,2.787.157v1.04c-1.652,0-2.994-.016-4.026-.052-1.033-.034-1.928-.069-2.684-.104-.758-.034-1.481-.069-2.168-.104-.689-.034-1.481-.052-2.375-.052-.965,0-1.773.017-2.426.052-.655.035-1.36.07-2.116.104-.758.035-1.652.07-2.684.104-1.033.035-2.374.052-4.026.052v-1.04c1.033,0,1.962-.053,2.787-.157.826-.103,1.549-.363,2.168-.78.619-.416,1.1-1.005,1.445-1.769.343-.762.516-1.837.516-3.226v-28.719h0ZM178.187,3.642c1.582,0,2.925.556,4.026,1.666,1.1,1.11,1.652,2.463,1.652,4.058s-.552,2.95-1.652,4.059c-1.102,1.11-2.444,1.665-4.026,1.665s-2.926-.555-4.026-1.665c-1.102-1.109-1.652-2.462-1.652-4.059s.55-2.948,1.652-4.058c1.1-1.109,2.442-1.666,4.026-1.666Z" style="fill: #fff;"/>
    <path d="M203.273,32.414c-.345-.797-.826-1.405-1.445-1.821s-1.342-.677-2.168-.78c-.826-.104-1.755-.157-2.787-.157v-1.04c2.409-.276,4.731-.745,6.969-1.405,2.236-.659,4.455-1.473,6.659-2.446.343,1.735.636,3.522.877,5.359.241,1.839.395,3.348.465,4.526,1.582-2.913,3.836-5.219,6.762-6.92,2.924-1.699,6.246-2.549,9.962-2.549,3.371,0,6.022.624,7.949,1.873,1.926,1.249,3.371,2.775,4.336,4.578.963,1.805,1.549,3.694,1.755,5.672.207,1.976.31,3.73.31,5.255v21.852c0,1.389.171,2.464.516,3.226.343.764.826,1.353,1.445,1.769.619.417,1.342.677,2.168.78.826.104,1.755.157,2.787.157v1.04c-1.652,0-2.994-.016-4.026-.052-1.033-.034-1.928-.069-2.684-.104-.758-.034-1.481-.069-2.168-.104-.689-.034-1.481-.052-2.374-.052-.965,0-1.773.017-2.426.052-.655.035-1.36.07-2.116.104-.758.035-1.652.07-2.684.104-1.033.035-2.374.052-4.026.052v-1.04c1.033,0,1.962-.053,2.787-.157.826-.103,1.549-.363,2.168-.782.619-.416,1.1-1.008,1.445-1.774.344-.764.516-1.842.516-3.234v-22.322c0-.834-.052-2.05-.155-3.651-.103-1.599-.431-3.216-.981-4.851-.552-1.635-1.411-3.043-2.581-4.224-1.171-1.182-2.823-1.774-4.955-1.774-1.584,0-3.166.366-4.749,1.095-1.584.73-2.994,1.721-4.233,2.973-1.239,1.251-2.237,2.677-2.994,4.277-.758,1.6-1.135,3.268-1.135,5.006v23.47c0,1.392.171,2.47.516,3.234.343.766.826,1.358,1.445,1.774.619.419,1.342.679,2.168.782.826.104,1.755.157,2.787.157v1.04c-1.652,0-2.994-.016-4.026-.052-1.033-.034-1.928-.069-2.684-.104-.758-.034-1.481-.069-2.168-.104-.689-.034-1.481-.052-2.374-.052-.965,0-1.773.017-2.426.052-.655.035-1.36.07-2.117.104-.758.035-1.652.07-2.684.104-1.032.035-2.374.052-4.026.052v-1.04c1.033,0,1.962-.053,2.787-.157.826-.103,1.549-.363,2.168-.78.619-.416,1.1-1.005,1.445-1.769.344-.762.516-1.837.516-3.226v-28.824c0-1.317-.173-2.376-.516-3.174v.002Z" style="fill: #fff;"/>
    <path d="M296.083,64.308c-.758.903-1.669,1.839-2.736,2.81-1.068.972-2.323,1.873-3.768,2.706-1.445.832-3.063,1.509-4.852,2.029-1.79.52-3.786.78-5.988.78-2.891,0-5.696-.504-8.414-1.509-2.72-1.005-5.128-2.479-7.226-4.422-2.101-1.942-3.804-4.353-5.111-7.232-1.308-2.878-1.961-6.156-1.961-9.834,0-3.33.584-6.451,1.755-9.365,1.169-2.913,2.804-5.479,4.904-7.7,2.098-2.219,4.559-3.971,7.382-5.255,2.821-1.283,5.885-1.926,9.188-1.926,2.409,0,4.731.4,6.968,1.197,2.236.798,4.197,1.925,5.885,3.382,1.686,1.457,3.08,3.192,4.181,5.202,1.1,2.013,1.719,4.198,1.858,6.556,0,.416-.018.798-.051,1.145-.035.348-.224.52-.568.52h-31.281c-.138.976-.242,2.001-.31,3.081-.069,1.08-.103,2.107-.103,3.083,0,6.685,1.445,11.805,4.336,15.357,2.89,3.551,6.641,5.326,11.253,5.326,1.858,0,3.51-.227,4.955-.686,1.445-.458,2.736-1.022,3.871-1.692s2.116-1.392,2.943-2.168c.826-.774,1.549-1.48,2.168-2.113l.722.728h0ZM287.617,41.832c1.1,0,1.652-.555,1.652-1.666,0-1.317-.155-2.757-.464-4.318-.31-1.561-.844-2.999-1.6-4.319-.758-1.317-1.79-2.41-3.097-3.278-1.308-.866-2.994-1.3-5.058-1.3-2.341,0-4.269.504-5.782,1.509-1.514,1.006-2.736,2.273-3.665,3.798-.929,1.527-1.618,3.14-2.065,4.839-.449,1.701-.81,3.278-1.084,4.735h21.164,0Z" style="fill: #fff;"/>
    <path d="M390.026,3.226c0,1.665-.018,3.261-.052,4.786-.035,1.527-.052,3.054-.052,4.579,0,1.665.052,3.4.155,5.203.103,1.804.155,3.642.155,5.515h-1.239c-.413-6.351-2.547-11.424-6.401-15.22-3.855-3.796-9.224-5.696-16.105-5.696-2.753,0-5.559.763-8.414,2.286-2.857,1.525-5.438,3.775-7.743,6.754-2.307,2.978-4.181,6.648-5.627,11.012s-2.168,9.387-2.168,15.065c0,3.395.413,7.031,1.239,10.91.826,3.88,2.184,7.48,4.078,10.805,1.892,3.325,4.37,6.078,7.433,8.26,3.062,2.182,6.83,3.273,11.305,3.273,3.371,0,6.469-.537,9.292-1.613,2.821-1.075,5.247-2.635,7.278-4.682s3.629-4.491,4.8-7.336c1.17-2.844,1.823-6.035,1.962-9.574h1.239c0,2.013-.052,4.147-.155,6.4-.103,2.255-.155,4.042-.155,5.358v1.977c0,.624.016,1.318.052,2.081.034.764.067,1.665.103,2.706.034,1.04.086,2.324.155,3.849h-1.033l-2.478-4.266c-.619.487-1.514,1.111-2.684,1.873-1.171.765-2.632,1.527-4.388,2.29-1.755.764-3.803,1.423-6.143,1.976-2.341.555-4.991.833-7.949.833-5.162,0-9.929-.78-14.298-2.342-4.372-1.56-8.156-3.85-11.356-6.868-3.201-3.018-5.696-6.78-7.485-11.29-1.79-4.508-2.684-9.746-2.684-15.713,0-4.924.911-9.555,2.736-13.892,1.823-4.334,4.352-8.132,7.588-11.394,3.234-3.26,7.036-5.843,11.408-7.752,4.37-1.907,9.136-2.862,14.299-2.862,3.853,0,7.485.573,10.891,1.717s6.59,2.724,9.55,4.735l1.858-3.746h1.033v.003Z" style="fill: #fff;"/>
    <path d="M448.356,48.803c0,3.47-.604,6.66-1.807,9.574-1.205,2.913-2.857,5.429-4.955,7.544-2.101,2.117-4.612,3.782-7.537,4.995-2.926,1.213-6.075,1.821-9.446,1.821-3.442,0-6.625-.608-9.55-1.821-2.926-1.213-5.472-2.878-7.64-4.995-2.168-2.115-3.872-4.631-5.11-7.544-1.239-2.913-1.858-6.07-1.858-9.47,0-3.606.619-6.868,1.858-9.781,1.238-2.913,2.942-5.411,5.11-7.492,2.168-2.081,4.731-3.676,7.691-4.786,2.958-1.109,6.125-1.665,9.498-1.665,3.234,0,6.28.555,9.136,1.665,2.855,1.11,5.369,2.706,7.537,4.786,2.168,2.081,3.887,4.579,5.162,7.492,1.273,2.913,1.91,6.139,1.91,9.677h.001ZM424.611,26.743c-2.478,0-4.612.606-6.401,1.818-1.791,1.211-3.27,2.821-4.439,4.827-1.171,2.007-2.048,4.359-2.632,7.058-.586,2.699-.877,5.502-.877,8.409s.274,5.71.826,8.409c.55,2.699,1.428,5.069,2.632,7.112,1.203,2.042,2.7,3.686,4.491,4.931,1.789,1.245,3.923,1.868,6.401,1.868s4.61-.623,6.401-1.868c1.789-1.245,3.234-2.907,4.336-4.984,1.1-2.076,1.91-4.464,2.426-7.163s.775-5.502.775-8.409-.276-5.691-.826-8.355c-.552-2.665-1.394-5.002-2.529-7.008-1.135-2.006-2.581-3.616-4.336-4.827-1.755-1.212-3.838-1.818-6.246-1.818h-.002Z" style="fill: #fff;"/>
    <path d="M504.517,48.803c0,3.47-.604,6.66-1.807,9.574-1.205,2.913-2.857,5.429-4.955,7.544-2.101,2.117-4.612,3.782-7.537,4.995-2.926,1.213-6.075,1.821-9.446,1.821-3.442,0-6.625-.608-9.55-1.821-2.926-1.213-5.472-2.878-7.64-4.995-2.168-2.115-3.872-4.631-5.11-7.544-1.239-2.913-1.858-6.07-1.858-9.47,0-3.606.619-6.868,1.858-9.781,1.238-2.913,2.942-5.411,5.11-7.492,2.168-2.081,4.731-3.676,7.691-4.786,2.958-1.109,6.125-1.665,9.498-1.665,3.234,0,6.28.555,9.136,1.665,2.855,1.11,5.369,2.706,7.537,4.786,2.168,2.081,3.887,4.579,5.162,7.492,1.273,2.913,1.91,6.139,1.91,9.677h.001ZM480.772,26.743c-2.478,0-4.612.606-6.401,1.818-1.791,1.211-3.27,2.821-4.439,4.827-1.171,2.007-2.048,4.359-2.632,7.058-.586,2.699-.877,5.502-.877,8.409s.274,5.71.826,8.409c.55,2.699,1.428,5.069,2.632,7.112,1.203,2.042,2.7,3.686,4.491,4.931,1.789,1.245,3.923,1.868,6.401,1.868s4.61-.623,6.401-1.868c1.789-1.245,3.234-2.907,4.336-4.984,1.1-2.076,1.91-4.464,2.426-7.163s.775-5.502.775-8.409-.276-5.691-.826-8.355c-.552-2.665-1.394-5.002-2.529-7.008-1.135-2.006-2.581-3.616-4.336-4.827-1.755-1.212-3.838-1.818-6.246-1.818h-.002Z" style="fill: #fff;"/>
    <path d="M518.349,7.336c-.345-.797-.826-1.405-1.445-1.821s-1.342-.676-2.168-.78-1.755-.156-2.787-.156v-.937c2.546-.208,5.144-.641,7.795-1.3,2.649-.659,5.247-1.439,7.795-2.342v48.491c.687-.624,1.668-1.543,2.942-2.757,1.273-1.213,2.615-2.549,4.026-4.006,1.41-1.457,2.804-2.93,4.181-4.422,1.376-1.492,2.511-2.826,3.407-4.007.757-1.04,1.135-2.045,1.135-3.018,0-1.317-.534-2.133-1.6-2.445-1.068-.313-2.22-.503-3.459-.573v-.936c1.17,0,2.116.018,2.839.052.722.036,1.358.053,1.91.053s1.066.017,1.549.052c.481.036,1.033.052,1.652.052s1.152-.016,1.6-.052c.447-.034.929-.052,1.445-.052s1.118-.016,1.807-.053c.687-.034,1.549-.052,2.581-.052v.936c-.758,0-1.36.053-1.807.156-.449.104-.913.261-1.394.468-1.652.765-3.649,2.567-5.988,5.411-2.341,2.845-5.678,6.452-10.014,10.822l10.84,11.863c1.926,2.081,3.785,4.094,5.575,6.035,1.789,1.943,3.681,3.886,5.678,5.828,1.1,1.04,2.065,1.716,2.891,2.029.826.312,1.686.468,2.581.468v1.04c-1.171,0-2.101-.016-2.787-.052-.689-.034-1.291-.053-1.807-.053s-1.016-.016-1.497-.052c-.482-.034-1.102-.053-1.858-.053-.482,0-.913.018-1.29.053-.379.035-.775.052-1.187.052s-.913.018-1.497.053c-.585.035-1.326.052-2.219.052l-18.893-21.852-1.342,1.353v13.527c0,1.389.171,2.464.516,3.226.343.764.826,1.353,1.445,1.769.619.417,1.342.677,2.168.78.826.104,1.755.157,2.787.157v1.04c-1.652,0-2.994-.016-4.026-.052-1.033-.034-1.928-.069-2.684-.104-.758-.034-1.481-.069-2.168-.104-.689-.034-1.481-.052-2.374-.052-.965,0-1.773.017-2.426.052-.655.035-1.36.07-2.117.104-.758.035-1.652.07-2.684.104-1.032.035-2.374.052-4.026.052v-1.04c1.033,0,1.962-.053,2.787-.157.826-.103,1.549-.363,2.168-.78.619-.416,1.1-1.005,1.445-1.769.344-.762.516-1.837.516-3.226V10.51c0-1.317-.173-2.375-.516-3.173h0Z" style="fill: #fff;"/>
    <path d="M571.412,35.692c0-1.318-.173-2.376-.516-3.174-.345-.797-.826-1.405-1.445-1.821-.619-.417-1.342-.677-2.168-.781-.826-.103-1.755-.156-2.787-.156v-1.04c2.545-.208,5.144-.624,7.795-1.249,2.649-.624,5.247-1.421,7.794-2.393v39.333c0,1.389.171,2.464.516,3.226.343.764.826,1.353,1.445,1.769.619.417,1.342.677,2.168.78.826.104,1.755.157,2.787.157v1.04c-1.652,0-2.994-.016-4.026-.052-1.033-.034-1.928-.069-2.684-.104-.758-.034-1.481-.069-2.168-.104-.689-.034-1.481-.052-2.375-.052-.965,0-1.773.017-2.426.052-.655.035-1.36.07-2.116.104-.758.035-1.652.07-2.684.104-1.033.035-2.374.052-4.026.052v-1.04c1.033,0,1.962-.053,2.787-.157.826-.103,1.549-.363,2.168-.78.619-.416,1.1-1.005,1.445-1.769.343-.762.516-1.837.516-3.226v-28.719h0ZM574.407,3.642c1.582,0,2.925.556,4.026,1.666,1.1,1.11,1.652,2.463,1.652,4.058s-.552,2.95-1.652,4.059c-1.102,1.11-2.444,1.665-4.026,1.665s-2.926-.555-4.026-1.665c-1.102-1.109-1.652-2.462-1.652-4.059s.55-2.948,1.652-4.058c1.1-1.109,2.442-1.666,4.026-1.666Z" style="fill: #fff;"/>
    <path d="M599.492,32.414c-.345-.797-.826-1.405-1.445-1.821s-1.342-.677-2.168-.78c-.826-.104-1.755-.157-2.787-.157v-1.04c2.409-.276,4.731-.745,6.969-1.405,2.236-.659,4.455-1.473,6.659-2.446.343,1.735.636,3.522.877,5.359.241,1.839.395,3.348.465,4.526,1.582-2.913,3.836-5.219,6.762-6.92,2.924-1.699,6.246-2.549,9.962-2.549,3.371,0,6.022.624,7.949,1.873,1.926,1.249,3.371,2.775,4.336,4.578.963,1.805,1.549,3.694,1.755,5.672.207,1.976.31,3.73.31,5.255v21.852c0,1.389.171,2.464.516,3.226.343.764.826,1.353,1.445,1.769.619.417,1.342.677,2.168.78.826.104,1.755.157,2.787.157v1.04c-1.652,0-2.994-.016-4.026-.052-1.033-.034-1.928-.069-2.684-.104-.758-.034-1.481-.069-2.168-.104-.689-.034-1.481-.052-2.374-.052-.965,0-1.773.017-2.426.052-.655.035-1.36.07-2.116.104-.758.035-1.652.07-2.684.104-1.033.035-2.374.052-4.026.052v-1.04c1.033,0,1.962-.053,2.787-.157.826-.103,1.549-.363,2.168-.782.619-.416,1.1-1.008,1.445-1.774.344-.764.516-1.842.516-3.234v-22.322c0-.834-.052-2.05-.155-3.651-.103-1.599-.431-3.216-.981-4.851-.552-1.635-1.411-3.043-2.581-4.224-1.171-1.182-2.823-1.774-4.955-1.774-1.584,0-3.166.366-4.749,1.095-1.584.73-2.994,1.721-4.233,2.973-1.239,1.251-2.237,2.677-2.994,4.277-.758,1.6-1.135,3.268-1.135,5.006v23.47c0,1.392.171,2.47.516,3.234.343.766.826,1.358,1.445,1.774.619.419,1.342.679,2.168.782.826.104,1.755.157,2.787.157v1.04c-1.652,0-2.994-.016-4.026-.052-1.033-.034-1.928-.069-2.684-.104-.758-.034-1.481-.069-2.168-.104-.689-.034-1.481-.052-2.374-.052-.965,0-1.773.017-2.426.052-.655.035-1.36.07-2.117.104-.758.035-1.652.07-2.684.104-1.032.035-2.374.052-4.026.052v-1.04c1.033,0,1.962-.053,2.787-.157.826-.103,1.549-.363,2.168-.78.619-.416,1.1-1.005,1.445-1.769.344-.762.516-1.837.516-3.226v-28.824c0-1.317-.173-2.376-.516-3.174v.002Z" style="fill: #fff;"/>
    <path d="M686.108,31.842c1.307,1.527,2.288,3.157,2.943,4.891.653,1.734.981,3.47.981,5.203,0,1.665-.224,3.417-.671,5.255-.449,1.839-1.326,3.538-2.633,5.098-1.308,1.561-3.133,2.88-5.472,3.955-2.341,1.076-5.368,1.752-9.085,2.029-.758.07-1.858.104-3.304.104s-2.874.122-4.284.364c-1.411.244-2.632.66-3.665,1.249-1.032.59-1.549,1.509-1.549,2.757,0,1.181.55,2.047,1.652,2.602,1.1.555,2.478.936,4.13,1.145,1.652.208,3.474.33,5.472.364,1.995.035,3.923.088,5.781.156,2.615.14,5.11.434,7.485.884,2.374.452,4.473,1.249,6.297,2.393,1.823,1.145,3.286,2.67,4.388,4.579,1.1,1.907,1.652,4.318,1.652,7.232,0,2.635-.568,5.047-1.703,7.232-1.135,2.185-2.72,4.058-4.749,5.618-2.031,1.561-4.457,2.792-7.278,3.694-2.823.901-5.885,1.353-9.188,1.353-4.542,0-8.243-.504-11.098-1.509-2.857-1.007-5.094-2.237-6.71-3.694-1.618-1.456-2.702-3.036-3.252-4.735-.552-1.701-.826-3.243-.826-4.631,0-1.11.207-2.168.619-3.173.413-1.007.981-1.873,1.704-2.602.722-.729,1.549-1.318,2.478-1.769.929-.452,1.91-.676,2.942-.676,1.17,0,2.081.208,2.736.624.653.416,1.152.832,1.497,1.249-1.79.554-3.133,1.491-4.026,2.809-.895,1.317-1.342,2.878-1.342,4.682,0,.971.155,2.134.464,3.486.31,1.353.997,2.654,2.065,3.903,1.066,1.249,2.614,2.305,4.645,3.173,2.03.866,4.765,1.3,8.208,1.3,2.89,0,5.368-.364,7.433-1.092,2.065-.729,3.785-1.683,5.162-2.862,1.376-1.181,2.391-2.481,3.045-3.902.653-1.423.981-2.862.981-4.319,0-2.567-.534-4.563-1.6-5.983-1.068-1.423-2.529-2.481-4.388-3.173-1.858-.694-4.01-1.111-6.452-1.249-2.444-.14-5.007-.244-7.691-.313-1.445-.07-3.063-.192-4.852-.364-1.79-.174-3.459-.555-5.007-1.145-1.549-.59-2.839-1.474-3.871-2.653-1.033-1.179-1.549-2.809-1.549-4.891,0-2.428.929-4.509,2.787-6.244,1.858-1.734,4.233-2.774,7.124-3.122-3.373-1.179-6.161-3.104-8.362-5.775-2.203-2.67-3.304-5.81-3.304-9.417,0-2.29.446-4.439,1.342-6.452.894-2.011,2.151-3.762,3.768-5.255,1.616-1.491,3.578-2.67,5.885-3.538,2.305-.867,4.904-1.301,7.794-1.301,1.926,0,3.647.208,5.162.624,1.513.417,2.803.903,3.871,1.457,1.066.556,1.944,1.128,2.632,1.717.687.59,1.239,1.092,1.652,1.509.619-.485,1.307-1.023,2.065-1.613.757-.589,1.565-1.127,2.426-1.613.86-.485,1.755-.901,2.685-1.249.929-.346,1.874-.52,2.839-.52.687,0,1.394.104,2.117.312.722.208,1.376.505,1.961.884.584.382,1.066.869,1.445,1.457.378.59.568,1.267.568,2.029,0,2.221-1.033,3.33-3.097,3.33-.965,0-1.721-.229-2.271-.69-.552-.46-1.016-.974-1.394-1.542-.379-.566-.655-1.097-.826-1.593-.173-.494-.293-.779-.361-.85-.346-.283-.792-.425-1.342-.425-.965,0-1.962.359-2.994,1.076-1.033.717-1.928,1.434-2.685,2.15l-.002.006ZM661.744,42.039c0,2.845.326,5.221.98,7.128.654,1.909,1.462,3.418,2.426,4.527.963,1.11,2.013,1.89,3.148,2.341,1.136.452,2.184.677,3.149.677,1.033,0,2.133-.225,3.304-.677,1.17-.45,2.22-1.231,3.149-2.341.929-1.109,1.704-2.618,2.323-4.527.619-1.907.929-4.283.929-7.128,0-3.122-.327-5.671-.98-7.648-.655-1.977-1.463-3.52-2.426-4.631-.965-1.108-1.997-1.855-3.097-2.237-1.102-.38-2.134-.572-3.097-.572s-2.031.192-3.201.572c-1.171.382-2.237,1.129-3.2,2.237-.965,1.111-1.773,2.653-2.426,4.631-.655,1.977-.98,4.526-.98,7.648h-.001Z" style="fill: #fff;"/>
    <path d="M767.458,71.592c-4.749,0-8.947-.088-12.595-.26-3.649-.173-6.71-.26-9.188-.26-1.171,0-2.168.017-2.994.052s-1.704.07-2.632.104c-.93.035-2.031.07-3.304.104-1.275.035-2.943.052-5.007.052v-1.04c1.1,0,2.15-.086,3.148-.26.997-.173,1.875-.503,2.632-.989.757-.485,1.358-1.161,1.807-2.03.447-.866.671-2.029.671-3.485V9.574c0-1.457-.224-2.618-.671-3.486-.449-.866-1.05-1.543-1.807-2.029-.758-.485-1.635-.815-2.632-.989-.999-.172-2.049-.26-3.148-.26v-1.041c2.064,0,3.716.018,4.955.053s2.305.088,3.201.156c.894.07,1.72.122,2.478.156.757.036,1.72.053,2.891.053,1.1,0,2.046-.016,2.838-.053.791-.034,1.634-.086,2.53-.156.894-.068,1.962-.121,3.201-.156,1.239-.034,2.89-.053,4.955-.053v1.039c-1.102,0-2.152.088-3.149.26-.999.174-1.876.502-2.632.987-.758.485-1.36,1.161-1.807,2.025-.448.867-.671,2.028-.671,3.482v51.014c0,2.149.378,3.828,1.135,5.039.757,1.213,1.823,2.131,3.201,2.753,1.376.624,2.994,1.005,4.852,1.143,1.858.14,3.887.208,6.091.208,2.478,0,4.732-.189,6.763-.568,2.029-.379,3.802-1.067,5.316-2.065,1.513-.998,2.752-2.373,3.717-4.13.964-1.756,1.617-3.975,1.962-6.661h1.033l-1.033,15.089c-2.616.068-5.301.121-8.053.156-2.754.034-5.437.053-8.053.053h0Z" style="fill: #fff;"/>
    <path d="M830.329,64.308c-.758.903-1.669,1.839-2.736,2.81-1.068.972-2.322,1.873-3.768,2.706-1.446.832-3.063,1.509-4.852,2.029-1.791.52-3.786.78-5.988.78-2.891,0-5.696-.504-8.414-1.509-2.72-1.005-5.128-2.479-7.226-4.422-2.101-1.942-3.804-4.353-5.111-7.232-1.308-2.878-1.961-6.156-1.961-9.834,0-3.33.584-6.451,1.755-9.365,1.169-2.913,2.803-5.479,4.903-7.7,2.098-2.219,4.559-3.971,7.382-5.255,2.821-1.283,5.884-1.926,9.188-1.926,2.409,0,4.731.4,6.968,1.197,2.236.798,4.197,1.925,5.884,3.382,1.686,1.457,3.08,3.192,4.181,5.202,1.1,2.013,1.72,4.198,1.858,6.556,0,.416-.018.798-.051,1.145-.036.348-.225.52-.568.52h-31.281c-.138.976-.242,2.001-.31,3.081-.069,1.08-.103,2.107-.103,3.083,0,6.685,1.445,11.805,4.336,15.357,2.89,3.551,6.64,5.326,11.252,5.326,1.858,0,3.51-.227,4.955-.686,1.446-.458,2.736-1.022,3.871-1.692s2.116-1.392,2.943-2.168c.826-.774,1.549-1.48,2.168-2.113l.722.728h.003ZM821.864,41.832c1.1,0,1.652-.555,1.652-1.666,0-1.317-.155-2.757-.464-4.318-.31-1.561-.844-2.999-1.6-4.319-.759-1.317-1.791-2.41-3.097-3.278-1.308-.866-2.994-1.3-5.059-1.3-2.34,0-4.269.504-5.782,1.509-1.514,1.006-2.736,2.273-3.665,3.798-.93,1.527-1.618,3.14-2.065,4.839-.449,1.701-.809,3.278-1.083,4.735h21.163,0Z" style="fill: #fff;"/>
    <path d="M865.842,25.183c0,1.318-.018,2.393-.052,3.225-.035.833-.051,1.735-.051,2.706s.016,2.133.051,3.486c.034,1.353.052,2.723.052,4.11h-1.239c0-1.307-.225-2.665-.672-4.075-.449-1.409-1.101-2.699-1.962-3.868-.861-1.169-1.961-2.131-3.303-2.889-1.342-.756-2.908-1.135-4.697-1.135-2.203,0-3.993.657-5.368,1.968-1.378,1.31-2.065,2.863-2.065,4.655,0,1.657.465,3.071,1.394,4.244.93,1.174,2.081,2.207,3.459,3.105,1.376.897,2.89,1.707,4.543,2.43,1.652.725,3.165,1.501,4.542,2.329,3.097,1.805,5.506,3.712,7.227,5.723,1.719,2.013,2.58,4.614,2.58,7.804,0,2.359-.449,4.389-1.342,6.088-.895,1.701-2.064,3.105-3.51,4.214-1.445,1.111-3.063,1.944-4.852,2.497-1.791.555-3.546.833-5.265.833-1.998,0-4.027-.296-6.091-.884-2.065-.589-3.889-1.473-5.472-2.653l-1.652,2.601h-1.032c0-1.524.016-2.809.051-3.849.034-1.041.052-2.15.052-3.33s-.036-2.289-.103-3.33c-.069-1.04-.103-2.253-.103-3.642h1.239c0,1.735.292,3.418.877,5.047.584,1.63,1.428,3.069,2.529,4.318,1.1,1.249,2.426,2.255,3.975,3.018,1.549.765,3.286,1.145,5.214,1.145,1.032,0,2.064-.19,3.096-.573,1.033-.381,1.962-.937,2.788-1.665.826-.729,1.513-1.578,2.065-2.55.549-.971.825-2.081.825-3.329,0-1.457-.327-2.722-.981-3.799-.654-1.075-1.515-2.029-2.58-2.862-1.068-.832-2.238-1.577-3.511-2.237-1.274-.658-2.529-1.335-3.768-2.029-1.446-.832-2.875-1.647-4.285-2.445-1.411-.797-2.65-1.752-3.717-2.862-1.067-1.109-1.928-2.41-2.58-3.902-.655-1.492-.981-3.279-.981-5.359,0-1.873.343-3.572,1.032-5.099.687-1.525,1.617-2.826,2.787-3.902,1.17-1.075,2.494-1.889,3.976-2.446,1.479-.555,3.045-.832,4.697-.832,2.339,0,4.216.26,5.627.78,1.41.52,2.632,1.058,3.665,1.613l1.962-2.393h.93-.001Z" style="fill: #fff;"/>
    <path d="M903.523,25.183c0,1.318-.017,2.393-.051,3.225-.036.833-.051,1.735-.051,2.706s.015,2.133.051,3.486c.034,1.353.051,2.723.051,4.11h-1.239c0-1.307-.224-2.665-.672-4.075-.448-1.409-1.1-2.699-1.96-3.868-.863-1.169-1.962-2.131-3.305-2.889-1.342-.756-2.908-1.135-4.697-1.135-2.203,0-3.992.657-5.368,1.968-1.377,1.31-2.065,2.863-2.065,4.655,0,1.657.465,3.071,1.394,4.244.929,1.174,2.08,2.207,3.459,3.105,1.376.897,2.89,1.707,4.542,2.43,1.652.725,3.165,1.501,4.544,2.329,3.096,1.805,5.504,3.712,7.226,5.723,1.719,2.013,2.58,4.614,2.58,7.804,0,2.359-.448,4.389-1.341,6.088-.895,1.701-2.066,3.105-3.512,4.214-1.444,1.111-3.062,1.944-4.851,2.497-1.791.555-3.546.833-5.266.833-1.997,0-4.026-.296-6.091-.884-2.065-.589-3.889-1.473-5.472-2.653l-1.652,2.601h-1.033c0-1.524.016-2.809.052-3.849.033-1.041.051-2.15.051-3.33s-.035-2.289-.103-3.33c-.069-1.04-.103-2.253-.103-3.642h1.239c0,1.735.291,3.418.877,5.047.584,1.63,1.427,3.069,2.529,4.318,1.1,1.249,2.426,2.255,3.975,3.018,1.548.765,3.286,1.145,5.214,1.145,1.032,0,2.065-.19,3.097-.573,1.032-.381,1.962-.937,2.787-1.665.827-.729,1.514-1.578,2.066-2.55.55-.971.825-2.081.825-3.329,0-1.457-.328-2.722-.981-3.799-.654-1.075-1.514-2.029-2.58-2.862-1.069-.832-2.239-1.577-3.511-2.237-1.275-.658-2.53-1.335-3.769-2.029-1.445-.832-2.874-1.647-4.284-2.445-1.411-.797-2.65-1.752-3.717-2.862-1.068-1.109-1.928-2.41-2.581-3.902-.654-1.492-.981-3.279-.981-5.359,0-1.873.343-3.572,1.033-5.099.687-1.525,1.616-2.826,2.787-3.902,1.17-1.075,2.494-1.889,3.975-2.446,1.479-.555,3.046-.832,4.697-.832,2.338,0,4.215.26,5.627.78,1.41.52,2.632,1.058,3.664,1.613l1.962-2.393h.932Z" style="fill: #fff;"/>
    <path d="M963.606,48.803c0,3.47-.603,6.66-1.806,9.574-1.206,2.913-2.857,5.429-4.955,7.544-2.098,2.115-4.612,3.782-7.537,4.995-2.926,1.213-6.075,1.821-9.446,1.821-3.442,0-6.625-.608-9.55-1.821-2.926-1.213-5.472-2.878-7.64-4.995-2.168-2.115-3.871-4.631-5.11-7.544s-1.858-6.07-1.858-9.47c0-3.606.619-6.868,1.858-9.781s2.943-5.411,5.11-7.492c2.168-2.081,4.732-3.676,7.691-4.786,2.959-1.109,6.125-1.665,9.498-1.665,3.234,0,6.28.555,9.137,1.665,2.855,1.11,5.368,2.706,7.536,4.786,2.168,2.081,3.887,4.579,5.162,7.492,1.273,2.913,1.91,6.139,1.91,9.677h0ZM939.862,26.743c-2.478,0-4.612.606-6.401,1.818-1.79,1.211-3.27,2.821-4.439,4.827-1.171,2.007-2.049,4.359-2.633,7.058-.585,2.699-.877,5.502-.877,8.409s.274,5.71.826,8.409c.55,2.699,1.428,5.069,2.632,7.112,1.204,2.042,2.701,3.686,4.491,4.931,1.789,1.245,3.923,1.868,6.401,1.868s4.61-.623,6.401-1.868c1.788-1.245,3.234-2.907,4.335-4.984,1.1-2.076,1.91-4.464,2.426-7.163s.774-5.502.774-8.409-.276-5.691-.825-8.355c-.552-2.665-1.394-5.002-2.53-7.008-1.135-2.006-2.581-3.616-4.336-4.827-1.755-1.212-3.837-1.818-6.246-1.818h0Z" style="fill: #fff;"/>
    <path d="M977.44,32.414c-.345-.797-.825-1.405-1.445-1.821s-1.342-.677-2.168-.78c-.826-.104-1.755-.157-2.787-.157v-1.04c2.408-.276,4.731-.745,6.968-1.405,2.236-.659,4.455-1.473,6.658-2.446.344,1.735.636,3.522.878,5.359.24,1.839.395,3.348.464,4.526,1.582-2.913,3.836-5.219,6.763-6.92,2.925-1.699,6.246-2.549,9.962-2.549,3.371,0,6.022.624,7.949,1.873,1.926,1.249,3.371,2.775,4.336,4.578.963,1.805,1.549,3.694,1.755,5.672.207,1.976.31,3.73.31,5.255v21.852c0,1.389.171,2.464.516,3.226.343.764.826,1.353,1.446,1.769.619.417,1.341.677,2.168.78.826.104,1.755.157,2.787.157v1.04c-1.652,0-2.994-.016-4.026-.052-1.032-.034-1.928-.069-2.685-.104-.758-.034-1.481-.069-2.168-.104-.689-.034-1.481-.052-2.374-.052-.965,0-1.773.017-2.426.052-.654.035-1.359.07-2.116.104-.758.035-1.652.07-2.684.104-1.033.035-2.375.052-4.027.052v-1.04c1.032,0,1.962-.053,2.788-.157.825-.103,1.548-.363,2.168-.782.619-.416,1.1-1.008,1.446-1.774.343-.764.516-1.842.516-3.234v-22.322c0-.834-.052-2.05-.155-3.651-.103-1.599-.431-3.216-.981-4.851-.552-1.635-1.411-3.043-2.581-4.224-1.171-1.182-2.823-1.774-4.955-1.774-1.584,0-3.166.366-4.749,1.095-1.584.73-2.994,1.721-4.233,2.973-1.239,1.251-2.238,2.677-2.995,4.277-.758,1.6-1.135,3.268-1.135,5.006v23.47c0,1.392.171,2.47.516,3.234.344.766.826,1.358,1.446,1.774.619.419,1.342.679,2.168.782.825.104,1.755.157,2.787.157v1.04c-1.652,0-2.994-.016-4.026-.052-1.033-.034-1.928-.069-2.685-.104-.758-.034-1.481-.069-2.168-.104-.689-.034-1.481-.052-2.374-.052-.965,0-1.773.017-2.426.052-.655.035-1.36.07-2.116.104-.759.035-1.652.07-2.685.104-1.032.035-2.374.052-4.026.052v-1.04c1.032,0,1.961-.053,2.787-.157.826-.103,1.549-.363,2.168-.78.619-.416,1.1-1.005,1.445-1.769.343-.762.516-1.837.516-3.226v-28.824c0-1.317-.173-2.376-.516-3.174v.002Z" style="fill: #fff;"/>
  </g>
</svg>