<?xml version="1.0" encoding="UTF-8"?>
<svg id="_レイヤー_1" data-name=" レイヤー 1" xmlns="http://www.w3.org/2000/svg" xmlns:xlink="http://www.w3.org/1999/xlink" viewBox="0 0 532.47 255.71">
  <defs>
    <linearGradient id="_名称未設定グラデーション" data-name="名称未設定グラデーション" x1="389.52" y1="-1597.74" x2="532.32" y2="-1597.74" gradientTransform="translate(0 -1385.98) scale(1 -1)" gradientUnits="userSpaceOnUse">
      <stop offset="0" stop-color="#baaf8d"/>
      <stop offset=".5" stop-color="#e3e1d8"/>
      <stop offset="1" stop-color="#e1dcce"/>
    </linearGradient>
    <linearGradient id="_名称未設定グラデーション_2" data-name="名称未設定グラデーション 2" x1="7.78" y1="1706.26" x2="507.68" y2="1706.26" gradientTransform="translate(0 -1644)" gradientUnits="userSpaceOnUse">
      <stop offset="0" stop-color="#baaf8d"/>
      <stop offset=".5" stop-color="#e3e1d8"/>
      <stop offset="1" stop-color="#e1dcce"/>
    </linearGradient>
  </defs>
  <g>
    <path d="M29.58,139.31c-2.4,2.9-3.9,6.2-3.9,9.1,0,4.5,3.6,8.2,12.9,8.2s11.1-.7,12.9-1.8c3.9.7,5.5,2.1,5.5,3.9,0,2.9-7.2,3.1-17.8,3.1s-16.5-5.4-16.5-11.1,1.7-8,6.4-12l.6.6h-.1ZM42.18,129.11c-3.5.8-8.4,1.6-11.1,1.6s-6.3-3.1-6.3-5.3,0-.9.2-1.2h.3c.8,1.2,2.8,2,6.3,2,5.2,0,13.4-2.3,15-2.8,3.7.3,6.3,2.1,6.3,4.6s-1.7,1.9-3.3,2.1c-3.5.2-9.7,2.5-15,5.2l-.5-.7c1.7-1.4,6.3-3.9,8.2-5.2v-.3h-.2.1Z" style="fill: #fff;"/>
    <path d="M80.38,147.61c3.1-3.5,7.3-6.8,12.4-6.8s7.1,3.1,7.1,8-.2,4.3-.2,5.7c0,3.2,2,4.4,5.1,4.4,5.9,0,10-4.4,13-12.3l.9.2c-2.1,11-7.1,17.4-15.2,17.4s-9.2-3.2-9.2-8.2.2-4.8.2-6.2c0-5-.6-6.7-3.8-6.7s-8.3,4.4-10.8,9.7c-1.3,2.8-2.2,6-2.6,8.1-.5,2.4-1.7,3.2-3.2,3.2s-3.1-.9-3.1-3.1.6-3.5,1.2-5c1.3-2.6,3.2-7.2,5.7-12.3,3.2-6.7,7.8-15.6,8.5-18.3,0-.4.2-.8.2-1.1,0-2.7-3.7-2.3-3.8-2.3l-.2-.2c.6-1.2,2.2-2.2,3.9-2.3,3.4,0,7.1,1.7,7.1,4.6s-1.7,2.6-3,4.4c-3.3,4.9-8,13.2-10.4,19h.2v.1Z" style="fill: #fff;"/>
    <path d="M133.68,121.11c.4-1.6,2.2-2.6,4.2-2.6,3.1,0,6.3,1.4,6.3,2.8s-.9,1.7-1.4,3.7c-.2.9-.7,2.3-1,3.3,1.5-.4,4.4-1.5,5.5-2.2,1.2-.8,1.7-1.6,1.9-2.4,5.1,0,6.9,1,6.9,2.5s-1.4,2.2-4.8,3.4c-2.4.9-7.6,2.4-10.6,3-1.9,6-7,17.3-10,21.9-.6.8-1.5,1.6-2.2,1.6s-2.7-.4-2.7-3.2.2-2.3,1.2-3.2c3.4-3,7.8-10.6,9.2-16.3-.5.1-2.3.3-3.3.3-3.1,0-4.9-.7-6-2.4-.4-.5-.8-1.8-.8-2.7l.6-.5c1.1,1.7,2.6,2.1,4.8,2.1s4-.2,5.7-.5c.3-1.7.8-4.1.8-6s-.5-2.2-2.4-2.2-.9,0-1.5.3l-.2-.4h0l-.2-.3h0ZM149.48,136.11c3.8-2.8,8.3-4.1,12-4.1s8.6.9,8.6,4.6,0,1.7-2.1,1.7-.6,0-1-.1c-1-.2-3-.8-4.5-.8s-.5,0-.8,0c-4.9,1-5.4,3.6-5.4,6.9s0,2.7.8,6.1c.1.4.2,1,.3,1.4,2.9.9,6.3,2.4,8.5,4.1,2.2,1.6,2.7,3.2,2.7,4.6s-1.4,2.2-2.8,2.2-3.3-3.5-8-5.9v.9c0,4.9-2.2,7.4-9.8,7.4s-10.2-2.9-10.2-7.5,5.3-7.1,10.4-7.1,3.1.2,4.3.4c-.2-1.6-.4-4-.4-5.6,0-5,3.1-7.7,9.1-9.2v-.2c-1-.3-2.3-.4-3.7-.4-2.3,0-5,.4-7.7,1.5l-.3-1h0v.1ZM152.78,154.71c-1.7-.8-3.8-1.2-5.7-1.2-3.6,0-6.3,1.5-6.3,3.6s2.4,3.7,6.9,3.7,5.2-1.5,5.2-3.6,0-2.1-.1-2.5h0Z" style="fill: #fff;"/>
    <path d="M220.68,122.91l6.4,4.6c-.4.7-1.1,1-2.6,1h-23.1c-.1.6-.5.9-2.1,1.1-.2,3.2-.4,6.8-1,10.4h14.2l2.5-3.1,6,4.6c-.4.4-1.1.8-2.3,1-.6,12.6-1.8,20.7-4.6,22.8-1.9,1.5-3.8,2.1-7.5,2.1,0-3.3-.6-4.6-7.2-5.7v-.8c2.6.2,7,.3,8.5.3s1.5,0,1.9-.5c1.6-1.4,2.5-9,3.1-19.7h-15c-1.8,9.1-6.5,18.8-20.4,26.3l-.7-.8c15.4-12.3,16-26.7,16.1-38.1h-16.3l-.3-1.1h22.1v-10.9l8.2.8c0,.8-.6,1.1-2.3,1.4v8.6h12.7l3.4-4.5h0l.3.2h0Z" style="fill: #fff;"/>
    <path d="M246.78,142.41c-2.6,6.3-4.8,12.6-4.8,14.3s.6,2.2.6,3.6-.5,3.1-2.3,3.1c-2.8,0-5.9-4.8-5.9-13.5s1.7-14.4,2.8-19.7c.2-.8.2-1.5.2-2.2s0-1.5-.1-2.2c-.2-1.8-1.5-3.7-2.4-3.8v-.2c.2-.4.8-.5,1.4-.5,5.4,0,7.2,4.4,7.2,6.4s-.5,2.6-1.1,3.6c-1.5,3.3-3.4,8.8-3.7,14.1v1.9c0,2.4.3,4.3.6,5.1h.4c1.6-2.3,4.3-7.3,6.1-10.5l.9.5h.1ZM257.48,141.71c-2.6,2.9-3.8,5.8-3.8,8,0,3.8,3,5.5,9.6,5.5s7.3-.4,8.7-1c3.4.7,4.9,1.9,4.9,3.8s-3.3,2.5-11.6,2.5-14.8-2.8-14.8-9.1,2.3-7,6.1-10.3l.9.6h0ZM251.38,128.21c1.6.4,3.6.4,5.2.4,2.5,0,7.5-1,9.8-2,.9-.4,2.2-1.2,2.7-1.2,3.5,0,5.6,1.4,5.6,3.1s-1.9,2-4,2.5c-3.6.8-7.8,1.3-10.7,1.3s-6.2-.5-8.9-3.5l.3-.6h0Z" style="fill: #fff;"/>
    <path d="M316.48,131.61c6.1-.5,7.2-.6,8.8-2.5,4,.7,7.3,1.9,7.3,3.9s-1.7,1.6-2.8,1.6c-1.8-.1-4.1-.4-7.3-.4s-5.1.1-6.2.2c0,7.8.2,14.3.5,20.7.1,2.1.6,3.4.6,4.4,0,2.7-1.9,6-4.2,6s-2-1.4-2.2-2.2c-.2-.9-1-1.8-1.7-2.5-.9-.9-4.8-3.3-7.7-5.1l.4-.6c2.3.8,7.4,2.4,8.9,2.4s.6,0,.8-1c.1-1.2.1-2.8.2-4.2v-11.6c-6,7.7-15.1,13.4-25.3,17.4l-.6-.8c8.2-4.7,17.6-13.9,22.2-22.1-4.2.5-8.2,1-10.4,1.7-1.7.4-2.2,1-3.5,1-2.7,0-5.9-3.1-5.9-5.3s.3-1.9,1-2.6h.3c1.1,2.6,2.3,3.2,5.9,3.2s11.6-.7,15.9-1.1c0-10.1-.9-10.5-1.6-10.8-.8-.5-2.1-.6-3.1-.5,0-.8,1.8-2.4,3.6-2.4,3.1,0,7.2,1.9,7.2,4.2s-1.1,1.2-1.3,4.9v4.1h.2Z" style="fill: #fff;"/>
    <path d="M340.98,162.31c13.6-8.2,25.5-22.9,29.3-35v-.3c0-.2-.1-.3-.5-.3-1.1,0-8.4.9-13.5,2-1.4.3-1.8.5-2.4.9-.5.3-1,.8-1.8.8-2.2,0-5.5-3.3-5.5-6s1.2-2.6,1.6-2.6c.1,1.2,1,2.4,2.2,2.9s2.9.5,4.4.5,10.3-.5,14.8-1.1c1-.2,1.2-.4,1.8-.9.8-.8,1.2-1.2,1.9-1.2,1.3,0,6,3.6,6,4.6s-.8,1.1-1.7,1.4c-.8.3-1.1.8-1.4,1.4-1.7,3.6-5.6,10.3-9,14.6,5,2.1,10.8,5.5,13.8,8.4,2.2,2.2,4,4.6,4,6.8s-1.3,3.7-3.4,3.7-2.8-1.6-4.3-4.6c-1.6-2.9-6.4-9.7-11.4-12.9-5.3,6.5-14.3,13.9-24.5,17.8l-.6-.9h.2Z" style="fill: #fff;"/>
    <path d="M394.98,162.31c13.6-8.2,25.5-22.9,29.3-35v-.3c0-.2-.1-.3-.5-.3-1.1,0-8.4.9-13.5,2-1.4.3-1.8.5-2.4.9-.5.3-1,.8-1.8.8-2.2,0-5.5-3.3-5.5-6s1.2-2.6,1.6-2.6c.1,1.2,1,2.4,2.2,2.9s2.9.5,4.4.5,10.3-.5,14.8-1.1c1-.2,1.2-.4,1.8-.9.8-.8,1.2-1.2,1.9-1.2,1.3,0,6,3.6,6,4.6s-.8,1.1-1.7,1.4c-.8.3-1.1.8-1.4,1.4-1.7,3.6-5.6,10.3-9,14.6,5,2.1,10.8,5.5,13.8,8.4,2.2,2.2,4,4.6,4,6.8s-1.3,3.7-3.4,3.7-2.8-1.6-4.3-4.6c-1.6-2.9-6.4-9.7-11.4-12.9-5.3,6.5-14.3,13.9-24.5,17.8l-.6-.9h.2Z" style="fill: #fff;"/>
    <path d="M476.98,121.21c.6-1,1.8-1.7,3.2-1.7,4.1,0,8.6,3.5,8.6,5.7s-.8,1.2-1.5,1.7c-.6.5-1.1,1.1-1.8,2.5-1.7,3.6-3.9,7.9-5.9,11,4.5,3.3,8.4,7.2,8.4,9.9s-1.4,3.7-3.3,3.7-3.7-3.9-8.3-8.5c-5.8,7.9-13.6,15.1-24.9,19.8l-.8-1c9.3-6,17.8-15.2,21.8-22.2-4.3-3.6-9.6-6.5-14.9-8.6l.5-1.1c5.8,1.2,12.1,3.2,16.9,5.5,2.5-4.5,5.7-12.2,5.7-14s-2.9-2.4-3.8-2.4v-.2h-.1.2v-.1Z" style="fill: #fff;"/>
  </g>
  <path d="M405.18,255.41c-3,0-5.7-1-8.3-2.9-.5-.4-.9-.7-1.3-1.1-.4-.3-.7-.7-1.1-1.1-2.1-2.3-3.5-5.4-4.3-9.3-.1-.6-.2-1.2-.3-1.8-.5-3.5-.5-7.5.1-11.8,1.1-8.2,3.8-16.5,8-24.8.6-1.1,1.3-2.3,2-3.6.8-1.3,1.5-2.5,2.1-3.4,4.1-6,8.1-9.9,11.9-11.6.5-.2.8-.4,1.1-.5.3,0,.7-.2,1.2-.2s1-.1,1.3,0,.7.1,1.2.3c.8.2,1.5.5,1.9.9.4.3.9.9,1.3,1.7.2.5.4.9.6,1.4.1.4.2,1.1.4,2.1,0,.5.1.9.1,1.1v1.5c0,.9,0,1.8-.2,2.8-.1,1-.3,2.1-.6,3.4-.5,3-1.3,6-2.2,8.8-.7,2.1-1.4,3.8-2,5,0,0,0,.2-.1.3-.1.2-.2.5-.3.7s-.2.4-.3.6c-.2.4-.3.6-.5.8-.1.1-.3.2-.4.2h-.4c-.2,0-.4-.2-.6-.5-.6-.5-.9-.9-1-1.2h0c0-.3,0-.5.1-.8s.4-.8.8-1.4c1.2-2.1,2.3-4.6,3.3-7.4.4-1,.7-1.9.9-2.6.2-.7.4-1.6.6-2.5.6-2.4.9-4.6,1-6.5v-3.4c0-.6-.2-1.1-.4-1.5-.5-.8-1.5-1.1-2.9-.9h-.5c-2.5.7-5.4,2.8-8.7,6.2-1,1-2,2.3-3.2,3.9-1.2,1.6-2.2,3.1-3.2,4.7-1.2,1.9-2.3,3.9-3.3,6-3.5,7.3-5.7,14.5-6.8,21.6-.5,3.6-.6,7.1-.3,10.4,0,.5,0,1,.2,1.4.5,3.3,1.4,6.1,2.9,8.3,1.3,1.9,2.9,3.4,4.9,4.4s2.4.9,3.7,1c.4,0,.9,0,1.4-.1.5,0,.9-.1,1.2-.2.5,0,1-.1,1.3-.2,2.7-.7,5.6-2,8.8-4,1.1-.7,2.4-1.6,3.8-2.7,1.4-1,2.7-2.1,4-3.1.2-.2.5-.4.7-.6.2-.2.4-.4.6-.5.2-.2.7-.6,1.4-1.2.7-.6,1.4-1.2,2.1-1.9.7-.6,1.2-1.1,1.5-1.4.2-.1.4-.3.6-.6.2-.2.5-.4.6-.6.6-.6,1.5-1.4,2.5-2.5s1.9-2,2.5-2.6c.6-.7,1.1-1.2,1.5-1.6.4-.4.7-.7.9-1,.3-.3.5-.6.8-.9.3-.3.5-.6.7-.8.3-.3.5-.5.6-.6s.2-.3.4-.5c.2-.2.4-.4.5-.6.5-.7.9-1,1.1-1h0c0,.3-.4.9-1.1,1.8s-1.5,2-2.4,3.2-1.8,2.3-2.7,3.3c-3.5,4-7,7.6-10.8,10.9-6.4,5.8-11.9,9.4-16.5,10.8-.3.1-.6.2-.9.3-.3,0-.8.2-1.4.2l-2.4.3h0l.3-.3h0ZM442.98,236.41c-.2,0-.4-.1-.7-.3-.3-.2-.6-.4-.8-.5s-.4-.4-.5-.5c-.1-.2-.2-.5-.3-.8-.3-1.9.2-6.3,1.3-12.9,0-.4,0-.7.1-1,0-.3,0-.6.1-.8v-.3c0-.1-.1-.2-.4-.2h-.3c-.1,0-.2,0-.3-.1-.2,0-.3-.1-.6-.3-.2-.2-.4-.3-.6-.5s-.3-.3-.3-.5.1-.3.4-.3h.4c.5-.1,1-.4,1.7-.7.3-.2.4-.3.6-.5.1-.2.2-.4.3-.6,0-.4.2-1.1.4-1.9.2-.8.4-1.6.6-2.2,0-.3.2-.6.2-.9v-.4s.2-.3.3-.9c.2-.5.3-1.1.5-1.8s.3-1.2.5-1.7c0-.2,0-.3.1-.4.5-1.5,1-3.1,1.5-4.8.6-1.6,1.1-3,1.5-4.1v-.4c.2-.3.3-.5.4-.8s.2-.5.2-.7c.8-2,1.7-4.1,2.8-6.4,1.1-2.3,2.1-4.1,3-5.6,2.6-4.1,4.8-6.5,6.6-7.3.2,0,.4-.1.6-.2.4,0,.8,0,1.2.1.5.1.9.4,1.1.7.3.3.4.8.5,1.4v.3c.3,1.7-.2,4.4-1.3,8-1.7,5.1-4.1,10.4-7.4,16-2.1,3.5-4,6.6-6,9-1.9,2.6-3.7,4.6-5.2,6,0,.1-.2.2-.2.3-.2.2-.3.4-.3.5,0,.2-.2.7-.4,1.6-.2.9-.4,1.9-.5,3.1-.2,1.1-.3,2.2-.5,3.2-.2,1.2-.3,2.4-.4,3.6-.1,1.2-.2,2.1-.2,2.6v.2s0,.1.1.1c0,0,.2-.1.4-.4,0-.1.2-.3.4-.6.2-.3.3-.5.4-.8,2.9-5.3,5.5-8.9,7.8-10.8.7-.6,1.3-1,1.7-1.1.4-.2.8-.2,1.1-.3h1.3c.8,0,1.6.3,2.2.6s1.4.9,2.4,1.7c1.1,1,2.1,1.7,2.8,2.2.7.5,1.4.8,2.1,1,.5.2.9.3,1.3.3h1.4c.7,0,1.3-.3,1.9-.5s1.4-.6,2.4-1.2c.3-.2.8-.5,1.4-.9s1-.7,1.3-1c.4-.3.8-.7,1-1,.3-.3.7-.8,1.1-1.4l.5-.7c.3-.4.4-.6.5-.7.1-.1.2-.2.3-.2h.1s.1.1.1.3h0c0,.3-.2.5-.4.9-.2.4-.4.8-.7,1.3-.3.5-.5.9-.8,1.3-1.2,1.7-2.6,3.1-4.2,4.1-.7.5-1.3.8-1.8,1s-1,.3-1.6.4h-.4c-.6.1-1.2.2-1.8,0-.5,0-1.1-.2-1.8-.4-.9-.3-1.8-.7-2.7-1.2-.9-.6-1.9-1.4-3.1-2.4s-1.1-.9-1.5-1.1c-.3-.2-.7-.4-1-.5-.4-.1-.8-.2-1.2-.1-.4,0-.9.2-1.3.5-.3.1-.5.3-.7.4-.2.2-.5.4-.8.7-1.7,1.5-3.4,4-5.3,7.5,0,.2-.3.6-.6,1.3-.3.6-.7,1.3-1,2.1-.6,1.4-1.1,2.3-1.4,2.9-.3.5-.5.9-.7,1.2-.3.4-.7.6-1,.6h-.4l.5-.4h0ZM446.28,212.91c.2-.1.4-.4.8-.8.4-.4.8-.9,1.3-1.5.8-1,1.8-2.3,3.1-4.1s2.3-3.3,3.1-4.6c0,0,.2-.3.3-.6l.5-.8c2.6-4.2,4.7-8.4,6.3-12.5,0-.2.2-.4.3-.7,0-.2.1-.4.2-.5.2-.5.4-1.1.7-1.9.3-.8.5-1.5.6-2.2.4-1.3.6-2.4.7-3.4s.1-1.7,0-2.1c0-.2,0-.3-.1-.4-.1-.2-.3-.2-.5-.2s-.5.1-.8.3c-.7.4-1.4,1.1-2.3,2.1-4.1,4.9-8,12.7-11.7,23.4-.4,1.4-.9,2.8-1.4,4.4s-.9,2.9-1.2,4.2c-.3,1.2-.5,1.9-.4,2,0,0,0,.1.1.1,0,0,.2,0,.3-.2h.1ZM481.78,225.31c-.7,0-1.3-.2-1.9-.5-.5-.3-1-.7-1.6-1.2-.5-.5-.9-.9-1.1-1.4,0-.1-.1-.3-.2-.5,0-.2,0-.5-.2-.9,0-.4,0-.8-.1-.9s0-.4,0-.7h0c.3-2.3,1.1-4.4,2.4-6.2,1.2-1.6,2.3-2.4,3.4-2.6h.5c.9.1,1.5.4,1.8.9.1.2.2.5.3.8v1c0,.7-.3,1.5-.8,2.4-.4.9-1,1.7-1.6,2.3-.7.7-1.4,1.1-2,1.2-.5,0-1,0-1.4-.3h-.2c-.1,0-.2.2-.3.4-.1.6-.1,1.1-.1,1.5v.8c0,.5.2.9.3,1.2.1.2.3.4.5.5.2.2.4.3.6.4h1.5c.7-.2,1.3-.4,2-.7,1.8-.7,3.7-1.9,5.5-3.5.8-.7,1.7-1.5,2.5-2.3s1.5-1.5,2-2c.2-.3.4-.5.6-.6.1-.1.2-.2.3-.3,0,0,.1-.1.2-.1h.1c.1,0,.2,0,.2.1h0c0,.1,0,.3-.1.4,0,.2-.2.3-.3.5-.8,1.5-2,3.1-3.5,4.7-1.5,1.6-3,3-4.5,4-1.4.9-2.6,1.4-3.8,1.5h-1.1.1v.1ZM480.98,217.11c.8-.4,1.5-1.1,2.2-2.1.5-.7.8-1.4,1-2.1v-.7c0-.2,0-.3-.1-.4h-.3s-.3,0-.4.2c-.3.1-.6.4-1,.7-.5.4-.9.9-1.4,1.5-.4.6-.7,1.1-.9,1.6,0,.2,0,.3-.2.5,0,0,0,.2-.1.2-.1.3-.2.5-.2.7,0,0,0,.2.1.2s.2.1.4,0c.2,0,.4-.1.7-.2h.2v-.1ZM496.68,222.91c-.8,0-1.5-.4-2.1-1.1-.2-.3-.5-.6-.7-.9-.2-.3-.4-.6-.5-.8,0-.1,0-.4-.1-.6v-.4c-.1-.4-.1-.8-.1-1.2.1-1.4.5-2.9,1.2-4.5.6-1.6,1.4-3,2.3-4.2.9-1.1,1.6-1.6,2.3-1.7h.7c.1,0,.3.1.5.2.5.2.9.5,1.1.7s.4.6.4,1v.5h0c0,.2-.2.3-.3.3s-.3,0-.5-.1h-.4c-.1,0-.3.1-.7.3-.3.2-.6.5-.9.7-.3.3-.6.7-1,1.3s-.8,1-1,1.4c-1.1,2-1.8,3.8-2,5.6v.7c0,.2,0,.4.2.6,0,.1.1.3.3.3s.2.2.3.2h.9c.5,0,1.1-.3,1.9-.6,1.2-.5,2.3-1.2,3.4-2.1.2-.1.4-.3.7-.5l.5-.4c.7-.6,1.7-1.3,2.8-2.3,1.2-1,2.1-1.8,2.8-2.5.4-.4.7-.7.9-.9s.4-.3.4-.3h.3v.2c0,.1-.2.4-.6.9s-.9,1.1-1.4,1.7c-.6.7-1.1,1.3-1.7,1.9-.9,1-1.9,1.9-2.9,2.8-1,.9-1.9,1.6-2.7,2.2-1.3.9-2.4,1.4-3.4,1.5h-1,.1v.1ZM510.58,226.31c-.2,0-.5-.1-.8-.4-.3-.2-.5-.4-.7-.7-.2-.4-.4-1-.5-1.7-.1-.9-.2-2.1-.1-3.6,0-.6.1-1.3.3-2.4.1-1,.3-1.9.4-2.6,0-.3,0-.5.1-.8s0-.4,0-.5,0-.3.1-.7c0-.4.1-.8.2-1.2,0-.4.1-.8.2-1.1v-.7s-.2-.2-.3-.2c-.3-.2-.5-.4-.5-.6h0c0-.3.2-.5.6-.7s.3-.2.4-.3.2-.2.3-.3c0,0,0-.1.1-.3,0-.2.1-.3.2-.5v-.6c.2-.3.2-.5.2-.6.4-1.8.8-3.4,1.2-4.8.4-1.5.8-3,1.4-4.7,1.4-4.6,3-8.9,4.9-12.9,1.4-3.2,3-6,4.6-8.5,2.4-3.8,4.6-6.1,6.5-6.9.2,0,.4-.1.6-.2h.2c.2,0,.5,0,.8.2.3,0,.6.2.7.3.2.1.4.3.5.5,0,.1,0,.3.2.4s0,.3,0,.6v2.3c-.6,3.7-2.8,9.2-6.5,16.4-1.5,3-3.1,5.8-4.7,8.3-.2.4-.4.7-.5,1-.2.3-.3.5-.3.5-.3.5-.7,1.1-1.3,1.9-.5.8-1,1.5-1.6,2.2-1.5,2-2.9,3.7-4.3,5.1-.4.4-.7.7-.7.9s0,.4-.2.9c0,.4-.2.9-.3,1.4s-.2,1-.2,1.4v1h.2s.2-.1.4-.3.4-.4.7-.7c0,0,.2-.2.3-.3,1.5-1.3,3-2.9,4.7-4.7.4-.5.7-.8,1-1.1.2-.2.4-.4.5-.5,0,0,.2-.1.3-.2.4,0,.6,0,.8.2s.3.4.3.5v.3c0,.4-.7,1.2-1.8,2.3-.9.9-1.9,1.9-3.1,2.9-1.2,1.1-2.2,1.8-3,2.4-.3.2-.5.4-.5.5v.2s0,.2.2.3c.3.3.7.7,1.3,1s1.1.6,1.6.7c.4,0,.7.1,1,.1h1.5c1.3-.2,2.6-.6,4.1-1.2.3-.1.5-.2.7-.2s.4-.1.4-.1l.2.1.2.1c0,.2-.5.7-1.5,1.3-.3.2-.6.4-.8.5s-.5.2-.8.3c-.8.3-1.5.5-2.1.6h-.2c-1.4.1-2.8-.2-4.2-.8-.3-.1-.7-.4-1.2-.7s-.9-.7-1.3-1c-.1-.1-.2-.2-.3-.2h-.1c-.1.4-.2,1-.3,1.9s-.2,2-.2,3.1v3.8c0,.2,0,.3.1.3h.3c.4,0,.6.1.6.4s0,.3-.1.5c0,.2-.2.4-.3.6-.1.2-.2.3-.3.3h-.6.1ZM513.58,204.81c.2-.2.6-.6,1.1-1.2.5-.6,1.1-1.4,1.7-2.2,2.2-3,4.3-6.2,6.2-9.6.2-.3.3-.6.5-.9v-.2c.2-.2.4-.5.7-1.1s.6-1.2,1-1.8c.3-.7.6-1.3.9-1.8l.2-.4c.6-1.2,1.2-2.4,1.7-3.6.5-1.2.9-2.1,1.1-2.7v-.2c0-.3.2-.6.4-.9.2-.6.5-1.4.8-2.3.3-.9.5-1.6.7-2.1.2-.8.3-1.5.4-2.2v-2.1h0q0-.1-.2-.1h-.2l-.3.1c-.9.5-2.1,1.5-3.4,3.2-1.3,1.6-2.7,3.6-4,5.9-3.5,6.1-6.4,13.2-8.7,21.4-.8,3-1.2,4.6-1.2,4.9h0l.2-.2h.4v.1Z" style="fill: url(#_名称未設定グラデーション);"/>
  <path d="M495.78,26.01H20.18c-6.8,0-12.4,5.6-12.4,12.4v37.2c0,6.8,5.6,12.4,12.4,12.4h232l7,10.5,7-10.5h229.1c6.8,0,12.4-5.6,12.4-12.4v-37.6c0-6.6-5.4-12-12-12h.1Z" style="fill: url(#_名称未設定グラデーション_2);"/>
  <g id="clip">
    <path d="M49.48,15.01c-.3-.3-.8-.5-1.2-.4l-17.4,5.2-1.4-4.7c1.5-2.4,1.9-5.3,1.1-8.1C29.18,2.61,24.98-.19,20.48.01h-.4c-.7,0-1.3.2-2,.4-5.3,1.6-8.3,7.2-6.7,12.5.1.4.2.7.4,1.1.1.3.2.5.4.8,1.1,2,2.8,3.6,4.8,4.5l1.4,4.5L.88,29.01c-.4.1-.8.6-.8,1-.4,3.5.7,7.1,3.2,9.7l1,1.5s.3.2.4,0l47.2-14.3c.2,0,.3-.2.3-.3v-1.8c.6-3.5-.4-7.1-2.7-9.9h0v.1ZM19.98,6.91c1.7-.5,3.5.4,4,2.1s-.5,3.5-2.1,4-3.5-.4-4-2.1.4-3.5,2.1-4h0Z" style="fill: #727272;"/>
  </g>
  <g>
    <polygon points="255.78 216.01 242.18 198.61 269.28 198.61 255.78 216.01" style="fill: #5e5e5e;"/>
    <polygon points="203.68 216.01 190.08 198.61 217.18 198.61 203.68 216.01" style="fill: #5e5e5e;"/>
    <polygon points="307.88 216.01 294.28 198.61 321.38 198.61 307.88 216.01" style="fill: #5e5e5e;"/>
  </g>
  <g>
    <g>
      <path d="M114.98,69.51c.5,0,.9,0,1.4-.1.4,0,.8-.2,1.1-.4.3-.2.6-.5.8-.9.2-.4.3-.9.3-1.5v-23.2c0-.6,0-1.1-.3-1.5-.2-.4-.5-.7-.8-.9s-.7-.3-1.1-.4c-.4,0-.9-.1-1.4-.1v-.4h5.8c.7,0,1.6,0,2.6-.1,1,0,2-.1,2.9-.1,3.6,0,6.3.6,8.2,1.9,1.8,1.3,2.8,3.1,2.8,5.6s-1,5.2-2.9,6.6c-1.9,1.4-4.6,2.1-8,2.1s-1.1,0-1.7,0-1.1,0-1.6-.1v10.7c0,.6,0,1.1.3,1.5.2.4.5.7.8.9.3.2.7.4,1.1.4s.9.1,1.4.1v.4h-11.7v-.5ZM123.08,55.11c.4,0,.8.1,1.2.1h1.1c2.2,0,3.9-.6,5-1.8,1.2-1.2,1.7-3.1,1.7-5.8s-.6-3.9-1.7-5.1c-1.1-1.2-2.7-1.8-4.8-1.8s-.6,0-.9,0-.6.1-.8.2c-.3.1-.5.3-.6.5-.2.2-.2.5-.2.9v12.8Z" style="fill: #7d765f;"/>
      <path d="M142.38,42.71c-.1-.3-.4-.6-.6-.8-.3-.2-.6-.3-.9-.3h-1.2v-.4c1.1,0,2.2-.3,3.4-.5,1.1-.3,2.3-.6,3.4-1v27.5c0,.6,0,1.1.2,1.4.1.3.4.6.6.8.3.2.6.3.9.3h1.2v.4h-9.6v-.4h1.2c.4,0,.7-.2.9-.3.3-.2.5-.4.6-.8.1-.3.2-.8.2-1.4v-22.9c0-.6,0-1-.2-1.4l-.1-.2Z" style="fill: #7d765f;"/>
      <path d="M160.38,50.81h-1.2c-.5,0-1,.2-1.5.3s-.9.3-1.3.5-.5.5-.5.8,0,.2.2.5c.1.3.2.6.2,1.1s-.1.7-.4,1-.7.5-1.2.5-.7-.1-1.1-.4c-.4-.3-.5-.8-.5-1.5s.3-1.3.8-1.7c.6-.5,1.3-.8,2.1-1.1.8-.3,1.6-.5,2.5-.6s1.6-.2,2.3-.2c1,0,2,0,2.9.3.9.2,1.7.5,2.4,1,.7.5,1.2,1.1,1.6,1.9.4.8.6,1.8.6,3v10.6c0,.3,0,.6.2.8,0,.3.2.5.4.7.2.2.5.3.8.3s.7-.1.9-.4c.2-.3.4-.5.6-.7l.4.2c0,.1-.2.4-.4.6-.2.3-.4.6-.8.8-.3.3-.7.5-1.1.8-.4.2-.9.3-1.5.3-.9,0-1.6-.3-2.2-.8-.6-.6-1-1.3-1.1-2.1-1,.9-2.1,1.6-3.3,2.1-1.1.5-2.4.8-3.8.8s-1.3,0-1.9-.3-1.1-.5-1.5-.8c-.4-.4-.8-.8-1.1-1.4-.3-.6-.4-1.2-.4-2s.3-1.8.8-2.4c.5-.6,1.1-1.1,1.7-1.5.9-.6,1.9-1.1,3-1.6s2.3-.9,3.4-1.5c.3-.1.7-.3,1-.5.4-.2.7-.3,1-.5.3-.1.5-.3.7-.4.2-.1.3-.3.3-.4v-3.1c0-.5-.2-1-.4-1.5-.2-.5-.6-.9-1.2-1.3-.6-.4-1.3-.5-2.3-.5l-.1.3ZM164.38,58.41c-.9.4-1.8.9-2.8,1.3-1,.4-1.9.9-2.6,1.4-.9.6-1.5,1.3-1.9,2s-.6,1.5-.6,2.3,0,.9.2,1.3c.1.4.3.8.5,1.1.2.3.5.6.9.8.4.2.8.3,1.3.3,1,0,2-.2,2.9-.7s1.6-1,2.1-1.5v-8.4.1Z" style="fill: #7d765f;"/>
      <path d="M176.28,54.61c0-.6,0-1-.2-1.4-.1-.3-.4-.6-.6-.8-.3-.2-.6-.3-.9-.3h-1.2v-.4c1.1,0,2.2-.3,3.4-.5,1.1-.3,2.3-.6,3.4-1v16.9c0,.6,0,1.1.2,1.4.1.3.4.6.6.8.3.2.6.3.9.3h1.2v.4h-9.6v-.4h1.2c.4,0,.7-.2.9-.3.3-.2.5-.4.6-.8.1-.3.2-.8.2-1.4v-12.3l-.1-.2ZM177.58,40.91c.7,0,1.3.2,1.7.7.5.5.7,1.1.7,1.7s-.2,1.3-.7,1.7-1.1.7-1.7.7-1.3-.2-1.7-.7c-.5-.5-.7-1.1-.7-1.7s.2-1.3.7-1.7c.5-.5,1.1-.7,1.7-.7Z" style="fill: #7d765f;"/>
      <path d="M197.08,50.11v5.9h-.5c0-.6,0-1.1-.3-1.7-.2-.6-.5-1.2-.8-1.7-.4-.5-.8-.9-1.4-1.2-.6-.3-1.3-.5-2-.5s-1.7.3-2.3.8c-.6.6-.9,1.2-.9,2s.2,1.3.6,1.8c.4.5.9.9,1.5,1.3.6.4,1.3.7,2,1s1.4.6,2,1c1.3.8,2.4,1.6,3.1,2.5.7.9,1.1,2,1.1,3.4s-.2,1.9-.6,2.6c-.4.7-.9,1.3-1.5,1.8s-1.3.8-2.1,1.1c-.8.2-1.5.4-2.3.4s-1.7-.1-2.6-.4c-.9-.3-1.7-.6-2.4-1.1l-.7,1.1h-.4v-6.1h.5c0,.7.1,1.5.4,2.2.3.7.6,1.3,1.1,1.9.5.5,1,1,1.7,1.3s1.4.5,2.3.5.9,0,1.3-.2c.4-.2.8-.4,1.2-.7.4-.3.7-.7.9-1.1s.4-.9.4-1.4-.1-1.2-.4-1.6c-.3-.5-.7-.9-1.1-1.2-.5-.4-1-.7-1.5-1-.6-.3-1.1-.6-1.6-.9-.6-.4-1.2-.7-1.9-1-.6-.3-1.1-.8-1.6-1.2-.5-.5-.8-1-1.1-1.7-.3-.6-.4-1.4-.4-2.3s.1-1.5.4-2.2c.3-.7.7-1.2,1.2-1.7s1.1-.8,1.7-1c.6-.2,1.3-.4,2-.4,1,0,1.8.1,2.4.3.6.2,1.1.5,1.6.7l.8-1h.4l-.2-.3Z" style="fill: #7d765f;"/>
      <path d="M204.88,54.61c0-.6,0-1-.2-1.4-.1-.3-.4-.6-.6-.8-.3-.2-.6-.3-.9-.3h-1.2v-.4c1.1,0,2.2-.3,3.4-.5,1.1-.3,2.3-.6,3.4-1v16.9c0,.6,0,1.1.2,1.4.1.3.4.6.6.8.3.2.6.3.9.3h1.2v.4h-9.6v-.4h1.2c.4,0,.7-.2.9-.3.3-.2.5-.4.6-.8.1-.3.2-.8.2-1.4v-12.3l-.1-.2ZM206.18,40.91c.7,0,1.3.2,1.7.7.5.5.7,1.1.7,1.7s-.2,1.3-.7,1.7-1.1.7-1.7.7-1.3-.2-1.7-.7c-.5-.5-.7-1.1-.7-1.7s.2-1.3.7-1.7c.5-.5,1.1-.7,1.7-.7Z" style="fill: #7d765f;"/>
      <path d="M221.18,68.41c.1.3.4.6.6.8.3.2.6.3.9.3h1.2v.4h-9.7v-.4h1.2c.4,0,.7-.2.9-.3.3-.2.5-.4.6-.8.1-.3.2-.8.2-1.4v-12.2c0-1.2-.3-1.9-.8-2.2-.6-.3-1.3-.5-2.1-.5v-.4c1-.1,2-.3,3-.6s1.9-.6,2.9-1c.2.7.3,1.4.4,2.3.1.9.2,1.7.2,2.5.7-1.5,1.5-2.6,2.6-3.5s2.3-1.3,3.6-1.3.6,0,1,.1c.4,0,.7.2,1,.4s.6.4.8.7.3.7.3,1.1-.1.8-.4,1c-.2.3-.6.4-1.1.4s-.8-.1-1-.4c-.3-.2-.4-.5-.6-.8-.1-.3-.2-.6-.3-.8,0-.3-.1-.4-.2-.5-.2-.2-.5-.3-.9-.3-.6,0-1.2.2-1.8.6-.6.4-1.1.9-1.5,1.6-.4.6-.8,1.3-1,2.1-.3.7-.4,1.4-.4,2.1v9.6c0,.6,0,1.1.2,1.4h.2Z" style="fill: #7d765f;"/>
    </g>
    <g>
      <path d="M249.33,59.1c-1.81,3-3.68,5.21-5.61,6.62-.02,0-.04.01-.07.01-.13,0-.19-.06-.19-.19,0-.03,0-.05.03-.07,2.39-3.22,4.21-7.02,5.46-11.38h-2.71c-.48,0-1.08.06-1.8.18l-.32-1.11c.72.16,1.39.23,2.01.23h3.06v-6.3c0-1.78-.04-3.13-.12-4.06,1.76.25,2.8.43,3.13.54.3.09.45.24.45.45s-.31.48-.92.78v8.58h1.44c.74-1.02,1.25-1.52,1.51-1.52.19,0,.7.36,1.55,1.07.44.38.66.66.66.85,0,.21-.13.31-.38.31h-4.78v2.23c2.92.73,4.38,1.89,4.38,3.47,0,.4-.15.75-.45,1.05-.25.25-.53.38-.83.38-.4,0-.7-.09-.89-.28-.22-.21-.42-.58-.57-1.13-.27-1-.82-1.91-1.63-2.75v.09l.09,12.26c0,.8-.56,1.2-1.67,1.2-.78,0-1.17-.32-1.17-.97,0-.2.06-1.69.18-4.48.1-2.45.16-4.47.18-6.06ZM248.35,50.23c0,.54-.13.98-.4,1.32-.23.3-.52.45-.86.45-.41,0-.69-.15-.83-.44-.14-.27-.25-.82-.35-1.63-.16-1.71-.54-3.14-1.14-4.29,0-.02-.01-.04-.01-.06,0-.12.06-.18.18-.18.03,0,.05,0,.07.03,2.24,1.65,3.35,3.25,3.35,4.79ZM257.34,46.94c0,.34-.38.55-1.14.63-.96,1.62-2.1,3.13-3.44,4.53-.02.03-.05.04-.1.04-.14,0-.21-.05-.21-.16,0,0,0-.02.01-.04.48-1.25.91-2.67,1.3-4.26.21-.95.36-1.74.42-2.37,2.1.81,3.15,1.36,3.15,1.64ZM267.76,60.22l.28-.06c.68-1.36,1.14-2.04,1.38-2.04.21,0,.81.31,1.8.94.48.29.72.54.72.75,0,.18-.11.29-.34.35l-3.84.72c0,.92.04,2.8.09,5.64.02,1.36.03,2.27.03,2.74,0,.86-.58,1.29-1.74,1.29-.86,0-1.29-.35-1.29-1.05l.04-8.07-7.32,1.39c-.62.11-1.32.32-2.11.63l-.56-1.08c.81,0,1.61-.07,2.39-.22l7.6-1.41c.02-2.04.03-5.95.03-11.73,0-2.29-.05-4.17-.16-5.64,1.66.17,2.74.32,3.25.47.46.14.69.32.69.56,0,.21-.33.48-1,.81v4.8c0,3.14.02,6.55.06,10.22ZM262.47,56.84c0,.54-.15.97-.45,1.29-.26.28-.59.42-.98.42-.35,0-.62-.08-.81-.25-.17-.16-.32-.42-.45-.81-.28-.77-.62-1.41-1.03-1.9-.34-.44-.85-.94-1.52-1.49-.04-.02-.06-.05-.06-.1,0-.11.06-.16.18-.16,3.42.32,5.13,1.32,5.13,3ZM263.5,49.82c0,.5-.16.9-.48,1.2-.28.27-.63.41-1.04.41-.36,0-.62-.11-.79-.34-.14-.19-.39-.69-.76-1.52-.47-1.04-1.19-1.9-2.17-2.58-.04-.03-.06-.07-.06-.12,0-.1.05-.15.15-.15,3.44.3,5.16,1.33,5.16,3.09Z" style="fill: #7d765f;"/>
      <path d="M283.05,61.28c1.57-.55,2.92-1.05,4.03-1.51,0,0,.02-.01.04-.01.13,0,.19.08.19.23,0,.05-.01.08-.04.1-2.18,1.95-4.96,3.72-8.33,5.3-.02.86-.23,1.29-.63,1.29-.23,0-.5-.27-.79-.81-.24-.47-.66-1.4-1.25-2.8.62-.08,1.5-.27,2.67-.57.74-.2,1.22-.33,1.42-.4v-7.71h-1.33c-.44,0-.99.06-1.64.18l-.34-1.1c.69.16,1.33.23,1.92.23h1.39v-7.1h-1.68c-.44,0-.99.06-1.66.18l-.32-1.1c.66.16,1.29.23,1.89.23h4.22c.82-1.08,1.36-1.63,1.63-1.63.2,0,.77.38,1.73,1.14.49.39.73.68.73.88s-.13.29-.4.29h-3.44v7.1h.23c.66-.98,1.13-1.46,1.41-1.46.2,0,.7.35,1.51,1.04.4.37.6.64.6.82,0,.2-.13.29-.4.29h-3.35v6.87ZM296.34,56.99v4.95h2.07c1.18-1.32,1.89-1.98,2.12-1.98.21,0,.86.46,1.98,1.38.57.48.85.81.85,1,0,.2-.13.29-.4.29h-6.62v5.55h3.24c1.29-1.36,2.05-2.04,2.29-2.04.21,0,.88.48,2.04,1.44.58.47.86.8.86,1s-.13.29-.4.29h-17.9c-.53,0-1.18.06-1.95.18l-.34-1.1c.77.16,1.5.23,2.18.23h7.28v-5.55h-4.39c-.51,0-1.14.06-1.89.18l-.32-1.1c.74.16,1.45.23,2.12.23h4.48v-4.95h-3.46v.75c0,.7-.57,1.05-1.71,1.05-.8,0-1.2-.35-1.2-1.05.12-2.49.18-5.36.18-8.6,0-1.48-.06-3.33-.18-5.52,1.25.57,2.29,1.08,3.12,1.55h9.48c.76-.88,1.25-1.32,1.48-1.32s.81.38,1.76,1.14c.49.4.73.7.73.89,0,.27-.36.62-1.08,1.05v1.74l.13,8.79c0,.74-.58,1.11-1.73,1.11-.73,0-1.1-.32-1.1-.97v-.63h-3.72ZM290.18,50.63h3.46v-4.78h-3.46v4.78ZM290.18,56.3h3.46v-4.98h-3.46v4.98ZM296.34,50.63h3.72v-4.78h-3.72v4.78ZM296.34,56.3h3.72v-4.98h-3.72v4.98Z" style="fill: #7d765f;"/>
      <path d="M320.87,52.28h.78c.66-.9,1.13-1.35,1.39-1.35.19,0,.66.32,1.44.95.38.35.57.62.57.79,0,.2-.13.29-.4.29h-4.35c-.9,1.07-1.88,2.1-2.96,3.09h2.36c.74-.76,1.22-1.14,1.42-1.14.22,0,.73.36,1.52,1.08.4.34.6.62.6.83s-.09.35-.26.42c-.15.07-.47.15-.97.23-1.14,1.01-2.22,1.76-3.24,2.26.54.12.81.3.81.54,0,.26-.28.48-.83.66v.66c1.75-.28,3.43-.61,5.04-.97.1-.02.15.04.15.18,0,.08-.03.13-.09.15-1.91.89-3.61,1.58-5.1,2.08v.86l.06,3.84c0,.63-.11,1.13-.32,1.49-.19.31-.49.6-.91.85-.56.34-1.16.51-1.8.51-.24,0-.41-.04-.48-.13-.06-.08-.11-.25-.15-.53-.1-.57-.34-.97-.72-1.22-.37-.23-1.12-.51-2.26-.82-.08-.02-.12-.09-.12-.22,0-.14.04-.21.12-.21,1.43.1,2.61.15,3.54.15.26,0,.4-.15.4-.44v-3.37c-1.7.42-3.08.75-4.15,1-.13.63-.34.95-.63.95-.39,0-.79-1.12-1.2-3.35h1.01c.61,0,1.2-.02,1.79-.07,1.03-.1,2.08-.21,3.18-.35v-.53c0-.62-.05-1.34-.15-2.14.82.09,1.5.18,2.04.28.51-.67.91-1.26,1.2-1.77.08-.16.24-.52.5-1.08h-3.16c-2.19,1.84-4.45,3.26-6.78,4.28,0,0-.02.01-.04.01-.16,0-.23-.09-.23-.26,0-.04,0-.06.03-.07,1.69-.94,3.37-2.26,5.04-3.96h-1.83c-.49,0-1,.08-1.52.23l-.34-1.16c.69.16,1.33.23,1.92.23h2.43c.98-1.04,1.85-2.07,2.61-3.09h-6.2c-.46,0-1.03.06-1.71.18l-.34-1.1c.69.16,1.33.23,1.92.23h3.52v-3.81h-2.07c-.53,0-1.18.06-1.95.18l-.34-1.1c.8.16,1.54.23,2.23.23h2.12v-1.6c0-1.15-.04-2.1-.12-2.84,2.41.21,3.62.5,3.62.86,0,.28-.31.54-.92.78v2.8h.48c.64-1.01,1.1-1.51,1.38-1.51.21,0,.64.35,1.32,1.05l.31.34c.62-1.38,1.06-2.61,1.35-3.69,1.52.61,2.5,1.03,2.92,1.27.35.21.53.4.53.59,0,.33-.42.51-1.26.54-.97,2.06-2.21,4.03-3.72,5.9ZM318.29,52.28c1-1.41,1.78-2.68,2.34-3.81h-3.06v3.81h.72ZM326.28,54.64c-.82,1.29-1.76,2.49-2.83,3.6-.03.02-.06.03-.09.03-.2,0-.29-.07-.29-.22,0-.02,0-.04.01-.06,1.84-2.99,3.13-6.85,3.88-11.57.1-.76.15-1.55.15-2.36,0-.21,0-.43.01-.67,1.88.43,3.02.72,3.4.86.35.14.53.31.53.51,0,.37-.4.61-1.2.72-.32,1.59-.76,3.15-1.32,4.69h4.73c.99-1.24,1.61-1.86,1.86-1.86.19,0,.8.43,1.83,1.29.52.46.78.78.78.97,0,.2-.13.29-.38.29h-2.37c-.44,4.61-1.72,8.5-3.84,11.67,1.86,1.97,4.17,3.47,6.93,4.5.06.02.09.06.09.12,0,.08-.05.14-.15.18-.42.18-.71.42-.88.72-.15.25-.31.74-.5,1.45-.08.39-.15.63-.22.72-.06.08-.17.12-.32.12-.21,0-.63-.23-1.26-.69-2-1.38-3.69-3.12-5.07-5.24-2.24,2.55-5.33,4.56-9.29,6.04-.02,0-.03.01-.04.01-.11,0-.16-.07-.16-.21,0-.05.01-.08.04-.1,3.69-2.45,6.44-5.08,8.25-7.88-.94-1.88-1.7-4.42-2.29-7.62ZM326.7,53.95c.62,2.52,1.57,4.71,2.86,6.56,1.32-2.54,2.19-5.76,2.61-9.65h-3.94c-.55,1.29-1.05,2.32-1.52,3.09Z" style="fill: #7d765f;"/>
      <path d="M347.09,47.28c.04,1.25-.19,2.23-.69,2.94-.43.63-1,.95-1.71.95-.48,0-.86-.17-1.14-.5-.25-.29-.38-.65-.38-1.08,0-.64.32-1.13.97-1.45.83-.42,1.38-.86,1.66-1.33.25-.43.43-1.09.53-1.98.02-.09.08-.13.19-.13.08,0,.13.03.15.1.21.73.33,1.33.38,1.79h7.84v-1.86c0-.62-.04-1.22-.12-1.8,2.58.24,3.87.58,3.87,1,0,.26-.32.51-.97.75v1.92h8.19c.86-1.1,1.4-1.66,1.63-1.66s.92.52,2.05,1.55c.58.53.86.9.86,1.11,0,.36-.4.54-1.2.54-.35,0-.72.14-1.1.41-.64.48-1.41.92-2.29,1.32-.02,0-.04.01-.06.01-.13,0-.19-.07-.19-.21,0-.03,0-.05.01-.07.35-.85.61-1.63.76-2.33h-19.23ZM357.68,63.2v5.46h7.24c1.12-1.4,1.81-2.09,2.07-2.09.2,0,.91.49,2.15,1.46.62.51.94.85.94,1.03,0,.2-.13.29-.4.29h-23.96c-.53,0-1.2.06-2.01.18l-.32-1.1c.9.16,1.76.23,2.58.23h8.94v-5.46h-6.33c-.6,0-1.33.06-2.2.18l-.32-1.1c1.02.16,1.97.23,2.87.23h5.98v-1.74c-.05-1.04-.11-1.75-.18-2.15,2.57.23,3.85.55,3.85.95,0,.26-.3.52-.89.78v2.17h4.86c1.04-1.18,1.67-1.77,1.92-1.77.19,0,.83.42,1.92,1.26.54.43.81.73.81.91,0,.2-.13.29-.38.29h-9.13ZM352.29,56.06c4.1-.08,7.42-.22,9.96-.42-.66-.99-1.67-1.9-3.03-2.74-.04-.03-.06-.07-.06-.13,0-.13.05-.18.16-.16,4.73,1.02,7.09,2.49,7.09,4.41,0,.58-.16,1.04-.48,1.38-.27.3-.61.45-1.01.45s-.74-.15-1.01-.44c-.24-.26-.55-.76-.91-1.48l-.28-.51c-3.71.8-8.72,1.53-15.03,2.2-.2.62-.42.92-.66.92-.21,0-.38-.23-.53-.69-.14-.41-.38-1.4-.73-2.97,1.26.15,2.66.22,4.2.22h1.23c.49-1.45.93-3.05,1.32-4.8h-3.09c-.57,0-1.28.06-2.15.18l-.34-1.1c1.02.16,1.97.23,2.86.23h12.03c1.02-1.14,1.65-1.71,1.89-1.71.2,0,.84.4,1.95,1.2.56.42.83.72.83.91,0,.2-.13.29-.38.29h-9.99c-1.23,1.93-2.51,3.53-3.84,4.78Z" style="fill: #7d765f;"/>
      <path d="M383.34,57.82s-.04.23-.12.54c-.87,2.9-1.39,4.88-1.55,5.95-.04.28-.06.57-.06.86v.42c0,.13.01.29.04.5.02.21.03.36.04.44.08.42.12.8.12,1.13,0,.28-.11.52-.33.73-.22.2-.49.3-.81.3-.67,0-1.21-.45-1.61-1.35-.66-1.54-1-3.68-1-6.4,0-3.06.46-6.47,1.38-10.25.32-1.38.48-2.28.48-2.71,0-.7-.23-1.4-.7-2.09-.16-.24-.23-.41-.23-.48,0-.12.16-.18.48-.18.5,0,1.03.28,1.6.83,1.18,1.19,1.77,2.29,1.77,3.28,0,.37-.15.69-.45.97-.3.25-.64.94-1.01,2.07-1.03,2.84-1.54,5.42-1.54,7.75,0,1.01.07,1.82.21,2.43.05.18.14.26.28.26.1,0,.18-.06.23-.18.78-1.58,1.5-3.15,2.15-4.72.12-.28.25-.42.4-.4.16.03.23.13.23.29ZM395.62,62.66c2.05.82,3.48,1.66,4.29,2.5.38.41.57.86.57,1.35,0,.41-.15.75-.45,1.01-.22.21-.49.31-.81.31-.36,0-.72-.18-1.08-.54-1.09-1.09-1.96-1.84-2.61-2.23-.02,1.05-.51,1.9-1.46,2.55-.85.57-1.91.85-3.18.85s-2.36-.23-3.21-.69c-.51-.27-.92-.66-1.23-1.17-.28-.47-.42-.95-.42-1.45,0-.59.19-1.14.56-1.66.27-.37.6-.67.97-.89.82-.48,1.91-.72,3.28-.72.72,0,1.57.1,2.53.31l-.12-7.9c-1.34.18-2.69.26-4.04.26-.78,0-1.46-.15-2.04-.45-.59-.3-1.1-.75-1.54-1.35-.14-.21-.21-.37-.21-.48,0-.16.06-.23.18-.23.07,0,.26.08.57.23.67.36,1.53.54,2.58.54s2.59-.17,4.53-.5c-.03-2.72-.07-4.31-.12-4.75-.06-.6-.38-.93-.95-1-.17-.02-.38-.03-.63-.03l-.37-.03c-.16,0-.23-.08-.23-.23,0-.2.25-.44.75-.75.4-.26.81-.4,1.23-.4.73,0,1.43.18,2.09.54.92.49,1.38.98,1.38,1.46,0,.28-.09.51-.26.69-.25.28-.42.66-.48,1.14-.16,1.02-.24,1.96-.26,2.83.23-.05.6-.15,1.1-.31.21-.07.42-.2.63-.38.29-.22.68-.34,1.17-.34.67,0,1.18.14,1.52.41.24.21.37.45.37.73,0,.53-.3.91-.89,1.14-.78.3-2.11.63-3.98,1,0,2.66.1,5.52.29,8.6ZM393.24,64c-1.09-.5-2.12-.75-3.08-.75s-1.7.11-2.14.34c-.63.32-.95.77-.95,1.35s.26,1,.78,1.32c.43.26,1.18.4,2.26.4.99,0,1.73-.19,2.24-.57.43-.37.7-.79.81-1.26.06-.27.09-.55.09-.82Z" style="fill: #7d765f;"/>
    </g>
  </g>
</svg>