<?xml version="1.0" encoding="UTF-8"?>
<svg xmlns="http://www.w3.org/2000/svg" version="1.1" xmlns:xlink="http://www.w3.org/1999/xlink" viewBox="0 0 200 200">
  <defs>
    <style>
      .cls-1 {
        fill: url(#_名称未設定グラデーション);
      }

      .cls-2 {
        opacity: .3;
      }

      .cls-3 {
        stroke: #7d765f;
        stroke-miterlimit: 10;
      }

      .cls-3, .cls-4 {
        fill: none;
      }

      .cls-5 {
        fill: #7d765f;
      }

      .cls-4 {
        isolation: isolate;
        opacity: .4;
      }
    </style>
    <linearGradient id="_名称未設定グラデーション" data-name="名称未設定グラデーション" x1="0" y1="102" x2="200" y2="102" gradientTransform="translate(0 202) scale(1 -1)" gradientUnits="userSpaceOnUse">
      <stop offset="0" stop-color="#ac803d"/>
      <stop offset=".1" stop-color="#ba9351"/>
      <stop offset=".4" stop-color="#dcc585"/>
      <stop offset=".6" stop-color="#f8ecae"/>
      <stop offset=".6" stop-color="#f4e7a9"/>
      <stop offset=".7" stop-color="#e7d79a"/>
      <stop offset=".8" stop-color="#d3bd82"/>
      <stop offset=".9" stop-color="#b7995f"/>
      <stop offset="1" stop-color="#936b34"/>
      <stop offset="1" stop-color="#916932"/>
    </linearGradient>
  </defs>
  <!-- Generator: Adobe Illustrator 28.7.1, SVG Export Plug-In . SVG Version: 1.2.0 Build 142)  -->
  <g>
    <g id="_レイヤー_1">
      <path class="cls-4" d="M100,31.2c-37.9,0-68.8,30.9-68.8,68.8s30.9,68.8,68.8,68.8,68.8-30.9,68.8-68.8S137.9,31.2,100,31.2Z"/>
      <path class="cls-1" d="M100,169.7c-38.4,0-69.7-31.3-69.7-69.7S61.6,30.3,100,30.3s69.7,31.3,69.7,69.7-31.3,69.7-69.7,69.7h0ZM100,31.2c-37.9,0-68.8,30.9-68.8,68.8s30.9,68.8,68.8,68.8,68.8-30.9,68.8-68.8S137.9,31.2,100,31.2ZM99.2,20.7c-.6-8.4-3.3-14.4-10.3-15.8-2.4,3.3,0,5.1,2.5,7,5.1,3.6,7.8,8.8,7.8,8.8h0ZM97.4,25.8c-1.2-2.2-3.7-5.3-6.9-5.8-5.4-.7-6.5,6.4-4.3,5,5.3-3.4,11.2.8,11.2.8ZM83.7,12.6c-3.3-.2-4.8,5.7.8,6.5-2.3-.8-.9-6.7,2.5-5.5l-1.6-.9s-1.6,0-1.6,0ZM90.2,14.4c-5.2-3.9-16.4-4.5-16-7.2-1.8,1.3-1.6,5,2,4.8,3.6-.1,4.3-.8,6.7,0s4.4,1.2,4.4,1.2l1.5.7,1.3.5h0ZM81.9,23c0-2.2-1.3-6.1-5.2-6.3-4.8-.3-7,5.8-1.5,7.1-2-1.3-.8-5.5,2.3-4.9,1.3.3,3,1.6,3,1.6l.6,1.9.7.7h0ZM100,23.1c-8-11.2-19.3-12.4-23.8-11.3-5.5,1.3-9.1,5.6-8.6,10.5.2,2.1,1.2,4,2.8,5.3,1.4,1.2,3.1,1.8,5,1.8s.5,0,.8,0c3.5-.3,6.1-3.5,5.7-7-.3-2.9-2.8-5-5.7-4.7v1.1c2.4-.2,4.4,1.4,4.6,3.7.3,2.9-1.8,5.5-4.7,5.8-1.8.2-3.5-.4-4.9-1.5-1.4-1.1-2.3-2.8-2.4-4.5-.5-5.1,3.5-8.4,7.7-9.4,4.3-1,13.2-1,23.1,10.9l-.8,1,1.3,1.7,1.3-1.7-1.3-1.7h0ZM98.5,7.2c-.4-1.8.8-2.2,1.5-.6V0c-.5.2-1.7,3-1.5,3.9-.5-.7-2.4-.5-3.7,0,0,0,3,2.6,4.2,7.7,0,0,0-2.6-.5-4.4ZM108.6,11.9c2.6-1.8,4.8-3.7,2.5-7-7,1.5-9.7,7.4-10.3,15.8,0,0,2.7-5.2,7.8-8.8h0ZM113.8,25.1c2.2,1.4,1.1-5.7-4.3-5-3.2.4-5.7,3.5-6.9,5.8,0,0,6-4.1,11.2-.8ZM114.7,12.7l-1.6.9c3.4-1.2,4.7,4.7,2.5,5.5,5.6-.8,4.1-6.7.8-6.5h-1.6ZM111.1,13.9l1.5-.7s2-.6,4.4-1.2c2.4-.7,3.1,0,6.7,0,3.6.1,3.8-3.6,2-4.8.5,2.7-10.7,3.3-16,7.2l1.3-.5h0ZM118.8,22.3l.6-1.9s1.7-1.3,3-1.6c3.1-.6,4.3,3.6,2.3,4.9,5.5-1.2,3.3-7.4-1.5-7.1-3.9.3-5.2,4.1-5.2,6.3l.7-.7h0ZM98.7,24.7l1.3,1.7,1.3-1.7-.8-1c9.9-11.9,18.8-11.9,23.1-10.9,4.2,1,8.2,4.3,7.7,9.4-.2,1.8-1,3.4-2.4,4.5-1.4,1.1-3.1,1.7-4.9,1.5-2.9-.3-5-2.9-4.7-5.8.2-2.3,2.2-3.9,4.5-3.7v-1.1c-2.7-.3-5.3,1.8-5.6,4.7-.3,3.5,2.2,6.6,5.7,7,.3,0,.5,0,.8,0,1.8,0,3.5-.6,5-1.8,1.6-1.3,2.6-3.2,2.8-5.3.5-4.9-3.1-9.2-8.6-10.5-4.5-1.1-15.8.1-23.8,11.3l-1.3,1.7h0ZM101,11.6c1.2-5.1,4.2-7.7,4.2-7.7-1.3-.5-3.2-.7-3.7,0C101.7,3,100.5.2,100,0v6.5c.7-1.5,1.9-1.1,1.5.6s-.5,4.4-.5,4.4h0ZM43.4,44.5c-6.4-5.5-12.5-7.8-18.5-3.9.6,4,3.6,3.7,6.7,3.2,6.2-1,11.8.7,11.8.7ZM45.7,49.4c-2.4-.7-6.4-1.2-9,.8-4.3,3.3,0,9.2.5,6.6,1.3-6.1,8.5-7.4,8.5-7.4ZM26.7,49.8c-2.5,2.2.6,7.4,5.1,4-2.1,1-5.4-4.1-2.2-5.6l-1.8.5-1.2,1.1ZM32.6,46.4c-6.4,1-14.8,8.4-16.3,6.2-.4,2.2,2.4,4.6,4.8,2,2.5-2.6,2.5-3.6,4.7-4.8s4-2.2,4-2.2l1.5-.6,1.3-.6h0ZM32.8,58.4c-1.6-1.6-5.2-3.4-8.1-.8-3.6,3.2-.8,9,4,6-2.3.5-4.5-3.3-1.8-5.1,1.1-.7,3.2-1,3.2-1l1.8,1s1,0,1,0ZM45.6,45.6c-13.6-2.2-22.4,4.9-24.8,8.8-3,4.8-2.4,10.4,1.4,13.5,1.6,1.3,3.7,1.9,5.7,1.7,1.8-.2,3.5-1,4.8-2.2s.4-.4.5-.6c2.2-2.7,1.8-6.7-.9-9-2.2-1.8-5.5-1.5-7.3.7l.8.7c1.4-1.8,4-2,5.8-.6,2.2,1.8,2.6,5.2.7,7.4-1.1,1.4-2.8,2.3-4.5,2.4s-3.5-.4-4.9-1.5c-4-3.2-3.4-8.4-1.1-12.1,2.3-3.7,8.6-10,24-8.6l.2,1.2,2.1.3-.3-2.1-2.1-.3h0ZM33.3,35.4c-1.5-1-1-2.1.6-1.5l-4.6-4.6c-.2.5.9,3.4,1.7,3.8-.9-.1-2.1,1.4-2.6,2.6,0,0,4-.3,8.4,2.4,0,0-1.9-1.8-3.4-2.8ZM43.8,31.6c.5-3.1.8-6-3.2-6.7-3.9,6-1.6,12.1,3.9,18.5,0,0-1.8-5.6-.7-11.8ZM56.8,37.2c2.6-.6-3.2-4.8-6.6-.5-2,2.6-1.6,6.5-.8,9,0,0,1.3-7.1,7.4-8.5ZM48.6,27.9l-.5,1.8c1.5-3.2,6.7,0,5.6,2.2,3.4-4.5-1.8-7.7-4-5.1l-1.1,1.2ZM47,31.3l.6-1.5s1-1.9,2.2-4,2.2-2.2,4.8-4.7c2.6-2.5.2-5.2-2-4.8,2.2,1.6-5.2,9.9-6.2,16.3l.6-1.3h0ZM58.4,31.8l-1-1.8s.3-2.2,1-3.2c1.8-2.6,5.6-.5,5.1,1.8,3-4.7-2.9-7.6-6-4-2.6,2.9-.8,6.5.8,8.1,0,0,0-1,0-1ZM45.9,47.7l2.1.3-.3-2.1-1.2-.2c-1.4-15.4,4.9-21.7,8.6-24,3.7-2.3,8.8-2.8,12.1,1.1,1.1,1.4,1.7,3.1,1.5,4.9-.2,1.8-1,3.4-2.4,4.5-2.2,1.8-5.6,1.5-7.4-.7-1.4-1.8-1.2-4.3.6-5.8l-.7-.8c-2.2,1.8-2.5,5.1-.7,7.3,2.2,2.7,6.3,3.1,9,.9.2-.2.4-.3.6-.5,1.3-1.3,2.1-2.9,2.2-4.8.2-2.1-.4-4.1-1.7-5.7-3.1-3.8-8.7-4.4-13.5-1.4-3.9,2.5-11.1,11.3-8.8,24.8l.3,2.1h0ZM38.2,36.8c-2.8-4.5-2.4-8.4-2.4-8.4-1.3.6-2.8,1.8-2.6,2.6-.4-.7-3.3-1.9-3.8-1.7l4.6,4.6c-.6-1.6.5-2.1,1.5-.6s2.8,3.4,2.8,3.4ZM20.7,100.8c-8.4.6-14.4,3.3-15.8,10.3,3.3,2.4,5.1,0,7-2.5,3.6-5.1,8.8-7.8,8.8-7.8h0ZM25.8,102.6c-2.2,1.2-5.3,3.7-5.8,6.9-.7,5.4,6.4,6.5,5,4.3-3.4-5.3.8-11.2.8-11.2ZM12.6,116.3c-.2,3.3,5.7,4.8,6.5-.8-.8,2.3-6.7.9-5.5-2.5l-.9,1.6s0,1.6,0,1.6ZM14.4,109.8c-3.9,5.2-4.5,16.4-7.2,16,1.3,1.8,5,1.6,4.8-2-.1-3.6-.8-4.3,0-6.7s1.2-4.4,1.2-4.4l.7-1.5.5-1.3h0ZM23,118.1c-2.2,0-6.1,1.3-6.3,5.2-.3,4.8,5.8,7,7.1,1.5-1.3,2-5.5.8-4.9-2.3.3-1.3,1.6-3,1.6-3l1.9-.6s.7-.7.7-.7ZM23.1,100c-11.2,8-12.4,19.3-11.3,23.8,1.3,5.5,5.6,9.1,10.5,8.6,2.1-.2,4-1.2,5.3-2.8,1.2-1.4,1.8-3.1,1.8-5s0-.5,0-.8c-.3-3.5-3.5-6.1-7-5.7-2.9.3-5,2.8-4.7,5.7h1.1c-.2-2.4,1.4-4.4,3.7-4.6,2.9-.3,5.5,1.8,5.8,4.7.2,1.8-.4,3.5-1.5,4.9-1.1,1.4-2.8,2.3-4.5,2.4-5.1.5-8.4-3.5-9.4-7.7-1-4.3-1-13.2,10.9-23.1l1,.8,1.7-1.3-1.7-1.3-1.7,1.3h0ZM7.2,101.5c-1.8.4-2.2-.8-.6-1.5H0c.2.5,3,1.7,3.9,1.5-.7.5-.5,2.4,0,3.7,0,0,2.6-3,7.7-4.2,0,0-2.6,0-4.4.5ZM11.9,91.4c-1.8-2.6-3.7-4.8-7-2.5,1.5,7,7.4,9.7,15.8,10.3,0,0-5.2-2.7-8.8-7.8h0ZM25.1,86.2c1.4-2.2-5.7-1.1-5,4.3.4,3.2,3.5,5.7,5.8,6.9,0,0-4.1-6-.8-11.2ZM12.7,85.3l.9,1.6c-1.2-3.4,4.7-4.7,5.5-2.5-.8-5.6-6.7-4.1-6.5-.8v1.6ZM13.9,88.9l-.7-1.5s-.6-2-1.2-4.4c-.7-2.4,0-3.1,0-6.7.1-3.6-3.6-3.8-4.8-2,2.7-.5,3.3,10.7,7.2,16l-.5-1.3h0ZM22.3,81.2l-1.9-.6s-1.3-1.7-1.6-3c-.6-3.1,3.6-4.3,4.9-2.3-1.2-5.5-7.4-3.3-7.1,1.5.3,3.9,4.1,5.2,6.3,5.2l-.7-.7h0ZM24.7,101.3l1.7-1.3-1.7-1.3-1,.8c-11.9-9.9-11.9-18.8-10.9-23.1,1-4.2,4.3-8.2,9.4-7.7,1.8.2,3.4,1,4.5,2.4,1.1,1.4,1.7,3.1,1.5,4.9-.3,2.9-2.9,5-5.8,4.7-2.3-.2-3.9-2.2-3.7-4.5h-1.1c-.3,2.7,1.8,5.3,4.7,5.6,3.5.3,6.6-2.2,7-5.7,0-.3,0-.5,0-.8,0-1.8-.6-3.5-1.8-5-1.3-1.6-3.2-2.6-5.3-2.8-4.9-.5-9.2,3.1-10.5,8.6-1.1,4.5.1,15.8,11.3,23.8l1.7,1.3h0ZM11.6,99c-5.1-1.2-7.7-4.2-7.7-4.2-.5,1.3-.7,3.2,0,3.7C3,98.3.2,99.5,0,100h6.5c-1.5-.7-1.1-1.9.6-1.5s4.4.5,4.4.5h0ZM44.5,156.6c-5.5,6.4-7.8,12.5-3.9,18.5,4-.6,3.7-3.6,3.2-6.7-1-6.2.7-11.8.7-11.8ZM49.4,154.3c-.7,2.4-1.2,6.4.8,9,3.3,4.3,9.2,0,6.6-.5-6.1-1.3-7.4-8.5-7.4-8.5ZM49.8,173.3c2.2,2.5,7.4-.6,4-5.1,1,2.1-4.1,5.4-5.6,2.2l.5,1.8,1.1,1.2ZM46.4,167.4c1,6.4,8.4,14.8,6.2,16.3,2.2.4,4.6-2.4,2-4.8-2.6-2.5-3.6-2.5-4.8-4.7s-2.2-4-2.2-4l-.6-1.5-.6-1.3h0ZM58.4,167.2c-1.6,1.6-3.4,5.2-.8,8.1,3.2,3.6,9,.8,6-4,.5,2.3-3.3,4.5-5.1,1.8-.7-1.1-1-3.2-1-3.2l1-1.8v-1s0,0,0,0ZM45.6,154.4c-2.2,13.6,4.9,22.4,8.8,24.8,4.8,3,10.4,2.4,13.5-1.4,1.3-1.6,1.9-3.7,1.7-5.7-.2-1.8-1-3.5-2.2-4.8s-.4-.4-.6-.5c-2.7-2.2-6.7-1.8-9,.9-1.8,2.2-1.5,5.5.7,7.3l.7-.8c-1.8-1.4-2-4-.6-5.8,1.8-2.2,5.2-2.6,7.4-.7,1.4,1.1,2.3,2.8,2.4,4.5.2,1.8-.4,3.5-1.5,4.9-3.2,4-8.4,3.4-12.1,1.1-3.7-2.3-10-8.6-8.6-24l1.2-.2.3-2.1-2.1.3-.3,2.1h0ZM35.4,166.7c-1,1.5-2.1,1-1.5-.6l-4.6,4.6c.5.2,3.4-.9,3.8-1.7-.1.9,1.4,2.1,2.6,2.6,0,0-.3-4,2.4-8.4,0,0-1.8,1.9-2.8,3.4ZM31.6,156.2c-3.1-.5-6-.8-6.7,3.2,6,3.9,12.1,1.6,18.5-3.9,0,0-5.6,1.8-11.8.7ZM37.2,143.2c-.6-2.6-4.8,3.2-.5,6.6,2.6,2,6.5,1.6,9,.8,0,0-7.1-1.3-8.5-7.4ZM27.9,151.4l1.8.5c-3.2-1.5,0-6.7,2.2-5.6-4.5-3.4-7.7,1.8-5.1,4l1.2,1.1ZM31.3,153l-1.5-.6s-1.9-1-4-2.2-2.2-2.2-4.7-4.8c-2.5-2.6-5.2-.2-4.8,2,1.6-2.2,9.9,5.2,16.3,6.2l-1.3-.6h0ZM31.8,141.6l-1.8,1s-2.2-.3-3.2-1c-2.6-1.8-.5-5.6,1.8-5.1-4.7-3-7.6,2.9-4,6,2.9,2.6,6.5.8,8.1-.8h-1ZM47.7,154.1l.3-2.1-2.1.3-.2,1.2c-15.4,1.4-21.7-4.9-24-8.6-2.3-3.7-2.8-8.8,1.1-12.1,1.4-1.1,3.1-1.7,4.9-1.5,1.8.2,3.4,1,4.5,2.4,1.8,2.2,1.5,5.6-.7,7.4-1.8,1.4-4.3,1.2-5.8-.6l-.8.7c1.8,2.2,5.1,2.5,7.3.7,2.7-2.2,3.1-6.3.9-9-.2-.2-.3-.4-.5-.6-1.3-1.3-2.9-2.1-4.8-2.2-2.1-.2-4.1.4-5.7,1.7-3.8,3.1-4.4,8.7-1.4,13.5,2.5,3.9,11.3,11.1,24.8,8.8l2.1-.3h0ZM36.8,161.8c-4.5,2.8-8.4,2.4-8.4,2.4.6,1.3,1.8,2.8,2.6,2.6-.7.4-1.9,3.3-1.7,3.8l4.6-4.6c-1.6.6-2.1-.5-.6-1.5s3.4-2.8,3.4-2.8ZM100.8,179.3c.6,8.4,3.3,14.4,10.3,15.8,2.4-3.3,0-5.1-2.5-7-5.1-3.6-7.8-8.8-7.8-8.8h0ZM102.6,174.2c1.2,2.2,3.7,5.3,6.9,5.8,5.4.7,6.5-6.4,4.3-5-5.3,3.4-11.2-.8-11.2-.8ZM116.3,187.4c3.3.2,4.8-5.7-.8-6.5,2.3.8.9,6.7-2.5,5.5l1.6.9h1.6q0,0,0,0ZM109.8,185.6c5.2,3.9,16.4,4.5,16,7.2,1.8-1.3,1.6-5-2-4.8-3.6.1-4.3.8-6.7,0s-4.4-1.2-4.4-1.2l-1.5-.7-1.3-.5h0ZM118.1,177c0,2.2,1.3,6.1,5.2,6.3,4.8.3,7-5.8,1.5-7.1,2,1.3.8,5.5-2.3,4.9-1.3-.3-3-1.6-3-1.6l-.6-1.9-.7-.7h0ZM100,176.9c8,11.2,19.3,12.4,23.8,11.3,5.5-1.3,9.1-5.6,8.6-10.5-.2-2.1-1.2-4-2.8-5.3-1.4-1.2-3.1-1.8-5-1.8s-.5,0-.8,0c-3.5.3-6.1,3.5-5.7,7,.3,2.9,2.8,5,5.7,4.7v-1.1c-2.4.2-4.4-1.4-4.6-3.7-.3-2.9,1.8-5.5,4.7-5.8,1.8-.2,3.5.4,4.9,1.5,1.4,1.1,2.3,2.8,2.4,4.5.5,5.1-3.5,8.4-7.7,9.4-4.3,1-13.2,1-23.1-10.9l.8-1-1.3-1.7-1.3,1.7,1.3,1.7h0ZM101.5,192.8c.4,1.8-.8,2.2-1.5.6v6.5c.5-.2,1.7-3,1.5-3.9.5.7,2.4.5,3.7,0,0,0-3-2.6-4.2-7.7,0,0,0,2.6.5,4.4h0ZM91.4,188.1c-2.6,1.8-4.8,3.7-2.5,7,7-1.5,9.7-7.4,10.3-15.8,0,0-2.7,5.2-7.8,8.8h0ZM86.2,174.9c-2.2-1.4-1.1,5.7,4.3,5,3.2-.4,5.7-3.5,6.9-5.8,0,0-6,4.1-11.2.8ZM85.3,187.3l1.6-.9c-3.4,1.2-4.7-4.7-2.5-5.5-5.6.8-4.1,6.7-.8,6.5h1.6ZM88.9,186.1l-1.5.7s-2,.6-4.4,1.2c-2.4.7-3.1,0-6.7,0s-3.8,3.6-2,4.8c-.5-2.7,10.7-3.3,16-7.2l-1.3.5h0ZM81.2,177.7l-.6,1.9s-1.7,1.3-3,1.6c-3.1.6-4.3-3.6-2.3-4.9-5.5,1.2-3.3,7.4,1.5,7.1,3.9-.3,5.2-4.1,5.2-6.3l-.7.7h0ZM101.3,175.3l-1.3-1.7-1.3,1.7.8,1c-9.9,11.9-18.8,11.9-23.1,10.9-4.2-1-8.2-4.3-7.7-9.4.2-1.8,1-3.4,2.4-4.5,1.4-1.1,3.1-1.7,4.9-1.5,2.9.3,5,2.9,4.7,5.8-.2,2.3-2.2,3.9-4.5,3.7v1.1c2.7.3,5.3-1.8,5.6-4.7.3-3.5-2.2-6.6-5.7-7-.3,0-.5,0-.8,0-1.8,0-3.5.6-5,1.8-1.6,1.3-2.6,3.2-2.8,5.3-.5,4.9,3.1,9.2,8.6,10.5,4.5,1.1,15.8-.1,23.8-11.3l1.3-1.7h0ZM99,188.4c-1.2,5.1-4.2,7.7-4.2,7.7,1.3.5,3.2.7,3.7,0-.2.8,1,3.7,1.5,3.9v-6.5c-.7,1.5-1.9,1.1-1.5-.6s.5-4.4.5-4.4h0ZM156.6,155.5c6.4,5.5,12.5,7.8,18.5,3.9-.6-4-3.6-3.7-6.7-3.2-6.2,1-11.8-.7-11.8-.7ZM154.3,150.6c2.4.7,6.4,1.2,9-.8,4.3-3.3,0-9.2-.5-6.6-1.3,6.1-8.5,7.4-8.5,7.4ZM173.3,150.2c2.5-2.2-.6-7.4-5.1-4,2.1-1,5.4,4.1,2.2,5.6l1.8-.5,1.2-1.1ZM167.4,153.6c6.4-1,14.8-8.4,16.3-6.2.4-2.2-2.4-4.6-4.8-2-2.5,2.6-2.5,3.6-4.7,4.8s-4,2.2-4,2.2l-1.5.6-1.3.6h0ZM167.2,141.6c1.6,1.6,5.2,3.4,8.1.8,3.6-3.2.8-9-4-6,2.3-.5,4.5,3.3,1.8,5.1-1.1.7-3.2,1-3.2,1l-1.8-1h-1s0,0,0,0ZM154.4,154.4c13.6,2.2,22.4-4.9,24.8-8.8,3-4.8,2.4-10.4-1.4-13.5-1.6-1.3-3.7-1.9-5.7-1.7-1.8.2-3.5,1-4.8,2.2s-.4.4-.5.6c-2.2,2.7-1.8,6.7.9,9,2.2,1.8,5.5,1.5,7.3-.7l-.8-.7c-1.4,1.8-4,2-5.8.6-2.2-1.8-2.6-5.2-.7-7.4,1.1-1.4,2.8-2.3,4.5-2.4,1.8-.2,3.5.4,4.9,1.5,4,3.2,3.4,8.4,1.1,12.1-2.3,3.7-8.6,10-24,8.6l-.2-1.2-2.1-.3.3,2.1,2.1.3h0ZM166.7,164.6c1.5,1,1,2.1-.6,1.5l4.6,4.6c.2-.5-.9-3.4-1.7-3.8.9.1,2.1-1.4,2.6-2.6,0,0-4,.3-8.4-2.4,0,0,1.9,1.8,3.4,2.8ZM156.2,168.4c-.5,3.1-.8,6,3.2,6.7,3.9-6,1.6-12.1-3.9-18.5,0,0,1.8,5.6.7,11.8ZM143.2,162.8c-2.6.6,3.2,4.8,6.6.5,2-2.6,1.6-6.5.8-9,0,0-1.3,7.1-7.4,8.5ZM151.4,172.1l.5-1.8c-1.5,3.2-6.7,0-5.6-2.2-3.4,4.5,1.8,7.7,4,5.1l1.1-1.2ZM153,168.7l-.6,1.5s-1,1.9-2.2,4-2.2,2.2-4.8,4.7-.2,5.2,2,4.8c-2.2-1.6,5.2-9.9,6.2-16.3l-.6,1.3h0ZM141.6,168.2l1,1.8s-.3,2.2-1,3.2c-1.8,2.6-5.6.5-5.1-1.8-3,4.7,2.9,7.6,6,4,2.6-2.9.8-6.5-.8-8.1v1s0,0,0,0ZM154.1,152.3l-2.1-.3.3,2.1,1.2.2c1.4,15.4-4.9,21.7-8.6,24-3.7,2.3-8.8,2.8-12.1-1.1-1.1-1.4-1.7-3.1-1.5-4.9.2-1.8,1-3.4,2.4-4.5,2.2-1.8,5.6-1.5,7.4.7,1.4,1.8,1.2,4.3-.6,5.8l.7.8c2.2-1.8,2.5-5.1.7-7.3-2.2-2.7-6.3-3.1-9-.9-.2.2-.4.3-.6.5-1.3,1.3-2.1,2.9-2.2,4.8-.2,2.1.4,4.1,1.7,5.7,3.1,3.8,8.7,4.4,13.5,1.4,3.9-2.4,11.1-11.3,8.8-24.8l-.3-2.1h0ZM161.8,163.2c2.8,4.5,2.4,8.4,2.4,8.4,1.3-.6,2.8-1.8,2.6-2.6.4.7,3.3,1.9,3.8,1.7l-4.6-4.6c.6,1.6-.5,2.1-1.5.6s-2.8-3.4-2.8-3.4ZM179.3,99.2c8.4-.6,14.4-3.3,15.8-10.3-3.3-2.4-5.1,0-7,2.5-3.6,5.1-8.8,7.8-8.8,7.8h0ZM174.2,97.4c2.2-1.2,5.3-3.7,5.8-6.9.7-5.4-6.4-6.5-5-4.3,3.4,5.3-.8,11.2-.8,11.2ZM187.4,83.7c.2-3.3-5.7-4.8-6.5.8.8-2.3,6.7-.9,5.5,2.5l.9-1.6v-1.6q0,0,0,0ZM185.6,90.2c3.9-5.2,4.5-16.4,7.2-16-1.3-1.8-5-1.6-4.8,2,.1,3.6.8,4.3,0,6.7s-1.2,4.4-1.2,4.4l-.7,1.5-.5,1.3h0ZM177,81.9c2.2,0,6.1-1.3,6.3-5.2.3-4.8-5.8-7-7.1-1.5,1.3-2,5.5-.8,4.9,2.3-.3,1.3-1.6,3-1.6,3l-1.9.6-.7.7h0ZM176.9,100c11.2-8,12.4-19.3,11.3-23.8-1.3-5.5-5.6-9.1-10.5-8.6-2.1.2-4,1.2-5.3,2.8-1.2,1.4-1.8,3.1-1.8,5s0,.5,0,.8c.3,3.5,3.5,6.1,7,5.7,2.9-.3,5-2.8,4.7-5.7h-1.1c.2,2.4-1.4,4.4-3.7,4.6-2.9.3-5.5-1.8-5.8-4.7-.2-1.8.4-3.5,1.5-4.9,1.1-1.4,2.8-2.3,4.5-2.4,5.1-.5,8.4,3.5,9.4,7.7,1,4.3,1,13.2-10.9,23.1l-1-.8-1.7,1.3,1.7,1.3,1.7-1.3h0ZM192.8,98.5c1.8-.4,2.2.8.6,1.5h6.5c-.2-.5-3-1.7-3.9-1.5.7-.5.5-2.4,0-3.7,0,0-2.6,3-7.7,4.2,0,0,2.6,0,4.4-.5h0ZM188.1,108.6c1.8,2.6,3.7,4.8,7,2.5-1.5-7-7.4-9.7-15.8-10.3,0,0,5.2,2.7,8.8,7.8h0ZM174.9,113.8c-1.4,2.2,5.7,1.1,5-4.3-.4-3.2-3.5-5.7-5.8-6.9,0,0,4.1,6,.8,11.2ZM187.3,114.7l-.9-1.6c1.2,3.4-4.7,4.7-5.5,2.5.8,5.6,6.7,4.1,6.5.8v-1.6h0ZM186.1,111.1l.7,1.5s.6,2,1.2,4.4c.7,2.4,0,3.1,0,6.7s3.6,3.8,4.8,2c-2.7.5-3.3-10.7-7.2-16l.5,1.3h0ZM177.7,118.8l1.9.6s1.3,1.7,1.6,3c.6,3.1-3.6,4.3-4.9,2.3,1.2,5.5,7.4,3.3,7.1-1.5-.3-3.9-4.1-5.2-6.3-5.2l.7.7ZM175.3,98.7l-1.7,1.3,1.7,1.3,1-.8c11.9,9.9,11.9,18.8,10.9,23.1-1,4.2-4.3,8.2-9.4,7.7-1.8-.2-3.4-1-4.5-2.4-1.1-1.4-1.7-3.1-1.5-4.9.3-2.9,2.9-5,5.8-4.7,2.3.2,3.9,2.2,3.7,4.5h1.1c.3-2.7-1.8-5.3-4.7-5.6-3.5-.3-6.6,2.2-7,5.7,0,.3,0,.5,0,.8,0,1.8.6,3.5,1.8,5,1.3,1.6,3.2,2.6,5.3,2.8,4.9.5,9.2-3.1,10.5-8.6,1.1-4.5-.1-15.8-11.3-23.8l-1.7-1.3h0ZM188.4,101c5.1,1.2,7.7,4.2,7.7,4.2.5-1.3.7-3.2,0-3.7.8.2,3.7-1,3.9-1.5h-6.5c1.5.7,1.1,1.9-.6,1.5s-4.4-.5-4.4-.5h0ZM155.5,43.4c5.5-6.4,7.8-12.5,3.9-18.5-4,.6-3.7,3.6-3.2,6.7,1,6.2-.7,11.8-.7,11.8ZM150.6,45.7c.7-2.4,1.2-6.4-.8-9-3.3-4.3-9.2,0-6.6.5,6.1,1.3,7.4,8.5,7.4,8.5ZM150.2,26.7c-2.2-2.5-7.4.6-4,5.1-1-2.1,4.1-5.4,5.6-2.2l-.5-1.8-1.1-1.2ZM153.6,32.6c-1-6.4-8.4-14.8-6.2-16.3-2.2-.4-4.6,2.4-2,4.8,2.6,2.5,3.6,2.5,4.8,4.7s2.2,4,2.2,4l.6,1.5.6,1.3h0ZM141.6,32.8c1.6-1.6,3.4-5.2.8-8.1-3.2-3.6-9-.8-6,4-.5-2.3,3.3-4.5,5.1-1.8.7,1.1,1,3.2,1,3.2l-1,1.8v1ZM154.4,45.6c2.2-13.6-4.9-22.4-8.8-24.8-4.8-3-10.4-2.4-13.5,1.4-1.3,1.6-1.9,3.7-1.7,5.7.2,1.8,1,3.5,2.2,4.8s.4.4.6.5c2.7,2.2,6.7,1.8,9-.9,1.8-2.2,1.5-5.5-.7-7.3l-.7.8c1.8,1.4,2,4,.6,5.8-1.8,2.2-5.2,2.6-7.4.7-1.4-1.1-2.3-2.8-2.4-4.5s.4-3.5,1.5-4.9c3.2-4,8.4-3.4,12.1-1.1,3.7,2.3,10,8.6,8.6,24l-1.2.2-.3,2.1,2.1-.3.3-2.1h0ZM164.6,33.3c1-1.5,2.1-1,1.5.6l4.6-4.6c-.5-.2-3.4.9-3.8,1.7.1-.9-1.4-2.1-2.6-2.6,0,0,.3,4-2.4,8.4,0,0,1.8-1.9,2.8-3.4ZM168.4,43.8c3.1.5,6,.8,6.7-3.2-6-3.9-12.1-1.6-18.5,3.9,0,0,5.6-1.8,11.8-.7ZM162.8,56.8c.6,2.6,4.8-3.2.5-6.6-2.6-2-6.5-1.6-9-.8,0,0,7.1,1.3,8.5,7.4ZM172.1,48.6l-1.8-.5c3.2,1.5,0,6.7-2.2,5.6,4.5,3.4,7.7-1.8,5.1-4l-1.2-1.1ZM168.7,47l1.5.6s1.9,1,4,2.2,2.2,2.2,4.7,4.8,5.2.2,4.8-2c-1.6,2.2-9.9-5.2-16.3-6.2l1.3.6h0ZM168.2,58.4l1.8-1s2.2.3,3.2,1c2.6,1.8.5,5.6-1.8,5.1,4.7,3,7.6-2.9,4-6-2.9-2.6-6.5-.8-8.1.8h1s0,0,0,0ZM152.3,45.9l-.3,2.1,2.1-.3.2-1.2c15.4-1.4,21.7,4.9,24,8.6,2.3,3.7,2.8,8.8-1.1,12.1-1.4,1.1-3.1,1.7-4.9,1.5-1.8-.2-3.4-1-4.5-2.4-1.8-2.2-1.5-5.6.7-7.4,1.8-1.4,4.3-1.2,5.8.6l.8-.7c-1.8-2.2-5.1-2.5-7.3-.7-2.7,2.2-3.1,6.3-.9,9,.2.2.3.4.5.6,1.3,1.3,2.9,2.1,4.8,2.2,2.1.2,4.1-.4,5.7-1.7,3.8-3.1,4.4-8.7,1.4-13.5-2.4-3.9-11.3-11.1-24.8-8.8l-2.1.3h0ZM163.2,38.2c4.5-2.8,8.4-2.4,8.4-2.4-.6-1.3-1.8-2.8-2.6-2.6.7-.4,1.9-3.3,1.7-3.8l-4.6,4.6c1.6-.6,2.1.5.6,1.5s-3.4,2.8-3.4,2.8Z"/>
      <g class="cls-2">
        <line class="cls-3" x1="78.1" y1="68" x2="125" y2="68"/>
        <line class="cls-3" x1="78.1" y1="130.3" x2="125" y2="130.3"/>
      </g>
      <g>
        <path class="cls-5" d="M59.3,109.2c.3,0,.6,0,.9,0,.3,0,.5-.1.7-.3.2-.1.4-.3.5-.6.1-.2.2-.6.2-1v-14.8c0-.4,0-.7-.2-1s-.3-.4-.5-.6c-.2-.1-.5-.2-.7-.3-.3,0-.6,0-.9,0v-.3c.6,0,1,0,1.4,0,.4,0,.7,0,1,0s.5,0,.7,0c.2,0,.4,0,.7,0,.5,0,1,0,1.6,0,.6,0,1.3,0,1.9,0,2.3,0,4,.4,5.2,1.2,1.2.8,1.8,2,1.8,3.6s-.6,3.3-1.8,4.2c-1.2.9-2.9,1.3-5.1,1.3s-.7,0-1.1,0c-.4,0-.7,0-1,0v6.8c0,.4,0,.7.2,1,.1.2.3.4.5.6.2.1.5.2.7.3.3,0,.6,0,.9,0v.3c-.6,0-1,0-1.4,0-.3,0-.6,0-.9,0s-.5,0-.7,0c-.2,0-.5,0-.8,0s-.6,0-.8,0c-.2,0-.4,0-.7,0s-.5,0-.9,0c-.3,0-.8,0-1.4,0v-.3h0ZM64.5,100c.3,0,.5,0,.8,0s.5,0,.7,0c1.4,0,2.5-.4,3.2-1.1.7-.8,1.1-2,1.1-3.7s-.4-2.5-1.1-3.3c-.7-.8-1.8-1.2-3.1-1.2s-.4,0-.6,0c-.2,0-.4,0-.5.1-.2,0-.3.2-.4.3-.1.1-.2.3-.2.6v8.1h0Z"/>
        <path class="cls-5" d="M89.2,103.3c0,1-.2,1.8-.5,2.6-.3.8-.8,1.5-1.4,2.1s-1.3,1-2.1,1.4c-.8.3-1.7.5-2.6.5s-1.8-.2-2.6-.5-1.5-.8-2.1-1.4c-.6-.6-1.1-1.3-1.4-2.1s-.5-1.7-.5-2.6.2-1.9.5-2.7c.3-.8.8-1.5,1.4-2.1.6-.6,1.3-1,2.1-1.3.8-.3,1.7-.5,2.6-.5s1.7.2,2.5.5c.8.3,1.5.7,2.1,1.3.6.6,1.1,1.3,1.4,2.1.4.8.5,1.7.5,2.7h0ZM82.6,97.3c-.7,0-1.3.2-1.8.5-.5.3-.9.8-1.2,1.3-.3.6-.6,1.2-.7,1.9-.2.7-.2,1.5-.2,2.3s0,1.6.2,2.3.4,1.4.7,2,.7,1,1.2,1.4c.5.3,1.1.5,1.8.5s1.3-.2,1.8-.5c.5-.3.9-.8,1.2-1.4s.5-1.2.7-2,.2-1.5.2-2.3,0-1.6-.2-2.3-.4-1.4-.7-1.9c-.3-.6-.7-1-1.2-1.3-.5-.3-1.1-.5-1.7-.5Z"/>
        <path class="cls-5" d="M93.1,99.7c0-.4,0-.7-.1-.9,0-.2-.2-.4-.4-.5-.2-.1-.4-.2-.6-.2s-.5,0-.8,0v-.3c.7,0,1.4-.2,2.2-.3.7-.2,1.5-.4,2.2-.7v10.8c0,.4,0,.7.1.9,0,.2.2.4.4.5.2.1.4.2.6.2.2,0,.5,0,.8,0v.3c-.5,0-.8,0-1.1,0-.3,0-.5,0-.7,0-.2,0-.4,0-.6,0-.2,0-.4,0-.7,0s-.5,0-.7,0c-.2,0-.4,0-.6,0-.2,0-.5,0-.7,0-.3,0-.7,0-1.1,0v-.3c.3,0,.5,0,.8,0,.2,0,.4,0,.6-.2.2-.1.3-.3.4-.5,0-.2.1-.5.1-.9v-7.9h0ZM93.9,91c.4,0,.8.2,1.1.5s.5.7.5,1.1-.2.8-.5,1.1-.7.5-1.1.5-.8-.2-1.1-.5c-.3-.3-.5-.7-.5-1.1s.2-.8.5-1.1.7-.5,1.1-.5Z"/>
        <path class="cls-5" d="M100.8,98.8c0-.2-.2-.4-.4-.5s-.4-.2-.6-.2c-.2,0-.5,0-.8,0v-.3c.7,0,1.3-.2,1.9-.4.6-.2,1.2-.4,1.8-.7,0,.5.2,1,.2,1.5,0,.5.1.9.1,1.2.4-.8,1.1-1.4,1.9-1.9s1.7-.7,2.8-.7,1.7.2,2.2.5c.5.3.9.8,1.2,1.3.3.5.4,1,.5,1.6,0,.5,0,1,0,1.4v6c0,.4,0,.7.1.9,0,.2.2.4.4.5.2.1.4.2.6.2.2,0,.5,0,.8,0v.3c-.5,0-.8,0-1.1,0-.3,0-.5,0-.7,0-.2,0-.4,0-.6,0-.2,0-.4,0-.7,0s-.5,0-.7,0c-.2,0-.4,0-.6,0-.2,0-.5,0-.7,0-.3,0-.7,0-1.1,0v-.3c.3,0,.5,0,.8,0,.2,0,.4,0,.6-.2.2-.1.3-.3.4-.5,0-.2.1-.5.1-.9v-6.1c0-.2,0-.6,0-1,0-.4-.1-.9-.3-1.3-.2-.4-.4-.8-.7-1.2s-.8-.5-1.4-.5-.9,0-1.3.3c-.4.2-.8.5-1.2.8s-.6.7-.8,1.2c-.2.4-.3.9-.3,1.4v6.4c0,.4,0,.7.1.9s.2.4.4.5c.2.1.4.2.6.2s.5,0,.8,0v.3c-.5,0-.8,0-1.1,0-.3,0-.5,0-.7,0-.2,0-.4,0-.6,0-.2,0-.4,0-.7,0s-.5,0-.7,0c-.2,0-.4,0-.6,0-.2,0-.5,0-.7,0-.3,0-.7,0-1.1,0v-.3c.3,0,.5,0,.8,0,.2,0,.4,0,.6-.2s.3-.3.4-.5c0-.2.1-.5.1-.9v-7.9c0-.4,0-.7-.1-.9h0Z"/>
        <path class="cls-5" d="M120.3,109.9c-.7,0-1.2,0-1.7-.3s-.8-.5-1-.8-.4-.7-.5-1.2c-.1-.4-.2-.9-.2-1.4v-8.5h-1.6v-.3c.8-.3,1.5-.8,2.2-1.4.7-.7,1.2-1.4,1.5-2.2h.3v3.5h3v.4h-3v7.8c0,.4,0,.9,0,1.3,0,.4.1.8.2,1.2.1.3.3.6.6.8.2.2.6.3,1,.3s1-.1,1.3-.3c.3-.2.6-.5.8-.8l.2.2c-.3.4-.7.8-1.2,1.2-.5.4-1.2.6-2,.6h0Z"/>
        <path class="cls-5" d="M125.9,108.2c0-.5.2-.8.5-1.2s.7-.5,1.2-.5.8.2,1.2.5c.3.3.5.7.5,1.2s-.2.8-.5,1.2c-.3.3-.7.5-1.2.5s-.8-.2-1.2-.5c-.3-.3-.5-.7-.5-1.2Z"/>
        <path class="cls-5" d="M138.9,108.6c.2-.2.3-.5.4-.8,0-.3,0-.7,0-1.1v-3.6h-7.3v-.5l9.3-12.4h.5v12.4h3.2v.5h-3.2v3.7c0,.3,0,.7,0,1.1,0,.4.2.7.5.9.2.2.6.4,1,.4.4,0,.8,0,1,0v.3c-.5,0-.9,0-1.2,0-.3,0-.6,0-.9,0-.3,0-.5,0-.8,0-.3,0-.5,0-.8,0s-.7,0-1,0c-.3,0-.6,0-.9,0-.3,0-.7,0-1,0-.4,0-.8,0-1.3,0v-.3c.4,0,.8,0,1.3,0,.5,0,.8-.2,1.2-.6h0ZM139.4,102.5v-8.9l-6.7,8.9h6.7Z"/>
      </g>
    </g>
  </g>
</svg>