<?xml version="1.0" encoding="UTF-8"?>
<svg id="_レイヤー_1" data-name="レイヤー_1" xmlns="http://www.w3.org/2000/svg" viewBox="0 0 73 79">
  <rect width="73" height="79" style="fill: none;"/>
  <path d="M44.135,63.702c1.641,1.096,3.484,1.954,5.528,2.574,2.044.62,4.095.93,6.154.93,1.752,0,3.414-.205,4.985-.615,1.571-.41,2.83-.968,3.776-1.674.834-.622,1.495-1.35,1.982-2.183.486-.834.924-1.986,1.314-3.455l.668.084c-.112,2.048-.453,3.78-1.022,5.197-.57,1.416-1.481,2.784-2.733,4.103-3.31,3.478-8.094,5.218-14.352,5.218-3.644,0-6.703-.663-9.178-1.989-2.226-1.214-4.604-3.4-7.134-6.56l-.25-.296c-2.448,0-4.985-.383-7.614-1.148-2.628-.765-5.097-1.843-7.405-3.236-4.562-2.727-8.101-6.303-10.618-10.729-2.518-4.425-3.776-9.24-3.776-14.446,0-4.648,1.001-8.968,3.004-12.962s4.923-7.48,8.761-10.458c2.809-2.198,5.882-3.889,9.22-5.072,3.338-1.183,6.689-1.774,10.054-1.774,3.949,0,7.787.794,11.515,2.38,2.837,1.253,5.486,2.929,7.948,5.031s4.54,4.474,6.237,7.117c3.004,4.677,4.506,9.77,4.506,15.281,0,3.534-.633,6.951-1.898,10.249-1.266,3.298-3.094,6.325-5.486,9.081-1.975,2.283-4.061,4.147-6.258,5.594-2.198,1.447-4.839,2.7-7.927,3.757ZM20.855,56.443c2.03-.584,4.047-.876,6.049-.876,2.475,0,4.853.487,7.134,1.46.973.417,1.974.96,3.004,1.627,1.029.668,2.697,1.836,5.006,3.504l.375.292c1.808-.974,3.372-2.115,4.693-3.424,1.321-1.308,2.607-3.02,3.859-5.135,3.087-5.094,4.631-11.05,4.631-17.869,0-4.453-.605-8.698-1.815-12.734-1.21-4.036-2.914-7.431-5.111-10.187-1.78-2.254-3.762-3.911-5.945-4.968-2.184-1.057-4.735-1.587-7.656-1.587-2.948,0-5.514.522-7.697,1.566-2.184,1.044-4.166,2.707-5.945,4.989-2.169,2.756-3.859,6.146-5.069,10.168-1.21,4.022-1.815,8.26-1.815,12.714,0,4.12.501,7.802,1.502,11.044,1.001,3.243,2.6,6.382,4.798,9.415ZM32.912,63.869l-.292-.334c-1.947-2.336-3.602-3.977-4.965-4.923-1.363-.945-2.753-1.418-4.172-1.418-.529,0-1.113.112-1.752.334,1.752,2.031,3.469,3.519,5.152,4.464,1.682.946,3.692,1.572,6.028,1.877Z" style="fill: #9f9678;"/>
</svg>