<?xml version="1.0" encoding="UTF-8"?>
<svg id="_レイヤー_1" data-name="レイヤー_1" xmlns="http://www.w3.org/2000/svg" xmlns:xlink="http://www.w3.org/1999/xlink" viewBox="0 0 393 75">
  <defs>
    <linearGradient id="_名称未設定グラデーション_2" data-name="名称未設定グラデーション 2" x1=".213" y1="1441.37" x2="37" y2="1441.37" gradientTransform="translate(0 1476) scale(1 -1)" gradientUnits="userSpaceOnUse">
      <stop offset="0" stop-color="#baaf8d"/>
      <stop offset=".513" stop-color="#9f9678"/>
      <stop offset="1" stop-color="#8e474f"/>
    </linearGradient>
  </defs>
  <g>
    <path d="M114.094,47.742c0,5.515-1.892,9.856-5.676,13.024-3.784,3.168-8.023,4.752-12.716,4.752-2.64,0-5.707-.455-9.196-1.364-3.491-.909-5.442-1.364-5.852-1.364-2.112,0-3.08.939-2.904,2.816l-.528.176-6.776-20.768.616-.264c2.346,4.4,4.722,8.039,7.128,10.912,2.405,2.875,4.722,4.915,6.952,6.116,2.229,1.203,4.092,1.995,5.588,2.376,1.496.382,3.124.572,4.884.572,3.812,0,6.996-1.158,9.548-3.476,2.552-2.317,3.828-5.118,3.828-8.404,0-6.277-4.694-11.117-14.08-14.52l-7.304-2.728c-4.224-1.584-7.715-3.754-10.472-6.512-2.758-2.757-4.136-6.16-4.136-10.208,0-4.517,1.628-8.154,4.884-10.912,3.256-2.757,7.318-4.136,12.188-4.136,1.76,0,3.96.279,6.6.836,2.64.559,4.312.836,5.016.836.997,0,1.76-.22,2.288-.66.528-.44.762-1.158.704-2.156l.528-.176,7.304,18.744-.616.264c-3.814-6.453-7.466-10.882-10.956-13.288-3.491-2.405-7.114-3.608-10.868-3.608-3.99,0-7.07.968-9.24,2.904-2.171,1.936-3.256,4.4-3.256,7.392s1.041,5.5,3.124,7.524c2.082,2.024,5.47,3.887,10.164,5.588l7.48,2.816c10.5,3.931,15.752,9.563,15.752,16.896Z" style="fill: #474336;"/>
    <path d="M163.197,63.934v.704h-1.936c-.704,0-1.746-.044-3.124-.132-1.379-.088-2.538-.132-3.476-.132s-2.112.044-3.52.132c-1.408.088-2.436.132-3.08.132h-1.936v-.704h.088c1.877,0,3.124-.322,3.74-.968.616-.645.924-1.965.924-3.96V5.59h-7.128c-1.643,0-2.86.176-3.652.528-.792.352-1.716,1.203-2.772,2.552-2.582,3.286-5.867,8.771-9.856,16.456l-.616-.264,6.424-22.88.616.088c0,1.76,1.114,2.64,3.344,2.64h9.504c.528,0,1.672.015,3.432.044,1.76.03,3.256.044,4.488.044,1.173,0,2.64-.014,4.4-.044,1.76-.029,2.933-.044,3.52-.044h9.416c2.288,0,3.432-.88,3.432-2.64l.528-.088,6.424,22.88-.616.264c-4.283-8.213-7.54-13.698-9.768-16.456-1.115-1.349-2.068-2.2-2.86-2.552s-1.98-.528-3.564-.528h-7.128v53.416c0,1.995.308,3.315.924,3.96.616.646,1.833.968,3.652.968h.176Z" style="fill: #474336;"/>
    <path d="M235.885,67.366l-.528-.088c.117-.822-.059-1.467-.528-1.936s-1.291-.704-2.464-.704h-20.24c-.88,0-2.156-.014-3.828-.044-1.672-.029-3.066-.044-4.18-.044-.939,0-2.112.015-3.52.044-1.408.03-2.435.044-3.08.044h-1.936v-.704h.088c1.818,0,3.05-.337,3.696-1.012.645-.674.968-1.98.968-3.916V10.342c0-1.936-.323-3.241-.968-3.916-.646-.674-1.878-1.012-3.696-1.012h-.088v-.704h1.936c.645,0,1.672.015,3.08.044,1.408.03,2.581.044,3.52.044,1.114,0,2.566-.014,4.356-.044,1.789-.029,3.124-.044,4.004-.044h18.92c1.173,0,2.024-.22,2.552-.66s.733-1.1.616-1.98l.528-.176,7.744,20.328-.616.264c-5.398-7.509-8.859-12.056-10.384-13.64-2.112-2.17-4.87-3.256-8.272-3.256h-15.752v28.16h10.56c3.226,0,5.397-.938,6.512-2.816,1.114-1.877,1.906-4.869,2.376-8.976h.704v24.816h-.704c-.176-1.642-.352-2.977-.528-4.004-.176-1.025-.47-2.112-.88-3.256-.411-1.144-.924-2.024-1.54-2.64s-1.423-1.144-2.42-1.584c-.998-.44-2.171-.66-3.52-.66h-10.56v29.128h16.544c1.936,0,3.505-.234,4.708-.704,1.202-.469,2.537-1.466,4.004-2.992,2.581-2.816,6.072-7.772,10.472-14.872l.616.264-8.272,21.912Z" style="fill: #474336;"/>
    <path d="M279.356,64.638h-3.256c-.88,0-2.187-.044-3.916-.132-1.731-.088-3.183-.132-4.356-.132-.999,0-2.23.044-3.696.132-1.467.088-2.552.132-3.256.132h-1.936v-.704h.088c1.818,0,3.05-.337,3.696-1.012.645-.674.968-1.98.968-3.916V10.342c0-1.936-.323-3.241-.968-3.916-.646-.674-1.878-1.012-3.696-1.012h-.088v-.704h1.936c.645,0,1.672.015,3.08.044,1.408.03,2.581.044,3.52.044,1.232,0,2.713-.014,4.444-.044,1.73-.029,3.065-.044,4.004-.044h8.624c5.984,0,10.853,1.408,14.608,4.224,3.753,2.816,5.632,6.776,5.632,11.88,0,5.223-1.863,9.24-5.588,12.056-3.727,2.816-8.61,4.224-14.652,4.224h-13.376v21.824c0,1.936.381,3.256,1.144,3.96.762.704,2.258,1.056,4.488,1.056h2.552v.704ZM284.196,36.214c4.693,0,7.905-1.217,9.636-3.652,1.73-2.434,2.596-6.35,2.596-11.748,0-5.337-.866-9.209-2.596-11.616-1.731-2.405-4.943-3.608-9.636-3.608h-13.024v30.624h13.024Z" style="fill: #474336;"/>
    <path d="M328.371,63.89c-.998.968-2.2,1.452-3.608,1.452s-2.611-.484-3.608-1.452c-.999-.968-1.496-2.156-1.496-3.564s.513-2.61,1.54-3.608c1.026-.997,2.214-1.496,3.564-1.496,1.408,0,2.61.499,3.608,1.496.997.998,1.496,2.2,1.496,3.608s-.499,2.596-1.496,3.564Z" style="fill: #474336;"/>
    <path d="M383.105,57.686l-2.64,12.584-.528-.088c.058-2.171-.279-3.638-1.012-4.4-.734-.763-2.127-1.144-4.18-1.144h-30.272v-.352l11.792-12.76c6.042-6.629,10.545-12.496,13.508-17.6,2.962-5.104,4.444-10.413,4.444-15.928,0-4.752-.719-8.169-2.156-10.252-1.438-2.082-3.623-3.124-6.556-3.124-2.992,0-5.324.983-6.996,2.948-1.672,1.966-3.095,4.767-4.268,8.404-.763,2.347-1.995,3.52-3.696,3.52-.88,0-1.628-.293-2.244-.88-.616-.586-.924-1.378-.924-2.376,0-2.757,1.936-5.514,5.808-8.272,3.872-2.757,8.037-4.136,12.496-4.136,4.693,0,8.697,1.291,12.012,3.872,3.314,2.583,4.972,6.219,4.972,10.912,0,2.464-.484,4.87-1.452,7.216-.968,2.347-2.45,4.723-4.444,7.128-1.995,2.406-3.872,4.475-5.632,6.204-1.76,1.731-4.136,3.946-7.128,6.644-2.992,2.699-5.223,4.782-6.688,6.248l-5.632,5.632h31.416Z" style="fill: #474336;"/>
  </g>
  <path d="M.214,34.641c1.47-.403,2.813-.891,4.093-1.491,3.332-1.567,5.976-3.728,8.118-6.32,2.336-2.826,3.924-5.932,5.035-9.208.497-1.462.878-2.943,1.173-4.451.031.149.066.297.09.448.65,4.033,2.062,7.868,4.459,11.442,1.89,2.817,4.341,5.242,7.577,7.101,1.833,1.053,3.821,1.847,5.956,2.397.081.021.162.044.285.078-.058.028-.081.044-.107.052-5.369,1.533-9.497,4.345-12.595,8.211-2.235,2.787-3.725,5.837-4.719,9.059-.405,1.311-.704,2.636-.904,3.978-.008.049-.018.098-.078.152-.029-.161-.055-.323-.086-.484-.031-.164-.061-.328-.095-.492-.998-4.716-2.972-9.114-6.413-13.02-2.986-3.389-6.824-5.894-11.613-7.391-.038-.012-.075-.026-.176-.061h.002Z" style="fill: url(#_名称未設定グラデーション_2);"/>
  <rect width="393" height="75" style="fill: none;"/>
</svg>